ply
format ascii 1.0
comment VCGLIB generated
element vertex 698
property float x
property float y
property float z
element face 1328
property list uchar int vertex_indices
end_header
-0.655573 -0.589421 0.375926 
-0.658503 -0.608628 0.349666 
-0.649916 -0.613288 0.367216 
-0.647126 -0.595 0.392218 
-0.661931 -0.61028 0.354326 
-0.65504 -0.613008 0.369303 
-0.67146 -0.60113 0.337051 
-0.675776 -0.603179 0.339826 
-0.668449 -0.5814 0.364025 
-0.66424 -0.423532 0.524152 
-0.657976 -0.437696 0.533942 
-0.662576 -0.437203 0.538634 
-0.6692 -0.422157 0.528336 
-0.648517 -0.450778 0.542607 
-0.652571 -0.451111 0.547728 
-0.661151 -0.458497 0.505503 
-0.651612 -0.471058 0.514881 
-0.667482 -0.44478 0.495102 
-0.666222 -0.394101 0.502703 
-0.667001 -0.408809 0.513601 
-0.672118 -0.406536 0.517213 
-0.67129 -0.390944 0.505703 
-0.67029 -0.430367 0.484128 
-0.669539 -0.415841 0.472982 
-0.654166 -0.366983 0.481505 
-0.661865 -0.379981 0.491871 
-0.666677 -0.375988 0.494244 
-0.658525 -0.362228 0.483269 
-0.665192 -0.401781 0.462067 
-0.657492 -0.388783 0.451701 
-0.629913 -0.346359 0.463712 
-0.643358 -0.355642 0.472003 
-0.647083 -0.350221 0.47321 
-0.632849 -0.340392 0.464432 
-0.646685 -0.377442 0.442199 
-0.63324 -0.368159 0.433908 
-0.597159 -0.335376 0.452023 
-0.614302 -0.339532 0.456976 
-0.616321 -0.333165 0.457301 
-0.598171 -0.328765 0.452057 
-0.617628 -0.361332 0.427172 
-0.600485 -0.357176 0.422219 
-0.582446 -0.355903 0.419274 
-0.591511 -0.415307 0.338059 
-0.60955 -0.41658 0.341003 
-0.600546 -0.474514 0.257113 
-0.618585 -0.475787 0.260057 
-0.57328 -0.416911 0.337197 
-0.582315 -0.476118 0.256251 
-0.564215 -0.357506 0.418413 
-0.526625 -0.347301 0.452873 
-0.543169 -0.340181 0.449511 
-0.541012 -0.333852 0.449398 
-0.523497 -0.34139 0.452956 
-0.560889 -0.335707 0.448217 
-0.559772 -0.329115 0.448027 
-0.546495 -0.361981 0.419707 
-0.529951 -0.3691 0.423069 
-0.515248 -0.378641 0.428406 
-0.524313 -0.438045 0.34719 
-0.539016 -0.428505 0.341853 
-0.533348 -0.497253 0.266244 
-0.548051 -0.487712 0.260907 
-0.511975 -0.449597 0.354263 
-0.52101 -0.508804 0.273317 
-0.50291 -0.390193 0.435478 
-0.483882 -0.395772 0.483556 
-0.490135 -0.381547 0.473849 
-0.484865 -0.377646 0.475164 
-0.478244 -0.392707 0.485441 
-0.499584 -0.368393 0.465282 
-0.494868 -0.36372 0.466094 
-0.493462 -0.403347 0.444045 
-0.487208 -0.417572 0.453752 
-0.484453 -0.432337 0.464244 
-0.493518 -0.491742 0.383029 
-0.496273 -0.476976 0.372536 
-0.502553 -0.550949 0.302083 
-0.505308 -0.536184 0.29159 
-0.494265 -0.506241 0.394212 
-0.503275 -0.565284 0.313491 
-0.485225 -0.447001 0.475202 
-0.493956 -0.452321 0.526203 
-0.486262 -0.439366 0.515778 
-0.480769 -0.438886 0.519518 
-0.488919 -0.452637 0.530508 
-0.481908 -0.425262 0.504923 
-0.476155 -0.423935 0.508054 
-0.489552 -0.460923 0.486305 
-0.497198 -0.473568 0.497153 
-0.518188 -0.472812 0.544177 
-0.504754 -0.4636 0.535788 
-0.500358 -0.464628 0.540588 
-0.51459 -0.474439 0.54939 
-0.507928 -0.484402 0.507349 
-0.521282 -0.493092 0.516451 
-0.544907 -0.488081 0.558759 
-0.533788 -0.479565 0.551014 
-0.531115 -0.481647 0.556547 
-0.539931 -0.488869 0.561818 
-0.536801 -0.499308 0.524022 
-0.547776 -0.506879 0.533059 
-0.665583 -0.457687 0.555466 
-0.650347 -0.471952 0.564199 
-0.66138 -0.481833 0.571446 
-0.678797 -0.465589 0.561391 
-0.637672 -0.482495 0.569255 
-0.648428 -0.487753 0.573489 
-0.639506 -0.463322 0.555241 
-0.633679 -0.47302 0.560689 
-0.684972 -0.423878 0.532901 
-0.67725 -0.441444 0.544887 
-0.692135 -0.447075 0.54924 
-0.700965 -0.42704 0.535496 
-0.687408 -0.387453 0.506529 
-0.688374 -0.405646 0.519944 
-0.704855 -0.406229 0.52066 
-0.703753 -0.385454 0.505315 
-0.672518 -0.353956 0.480367 
-0.682026 -0.370007 0.493168 
-0.697604 -0.365523 0.490042 
-0.68674 -0.347184 0.475415 
-0.642571 -0.328489 0.458396 
-0.659173 -0.339953 0.468634 
-0.671491 -0.331183 0.462009 
-0.652521 -0.318084 0.45031 
-0.602124 -0.314927 0.443961 
-0.623293 -0.320059 0.450078 
-0.630494 -0.308452 0.440807 
-0.606306 -0.302587 0.433817 
-0.557337 -0.315335 0.439261 
-0.579849 -0.313354 0.440325 
-0.580854 -0.300791 0.429663 
-0.55513 -0.303054 0.428447 
-0.579073 -0.327417 0.448939 
-0.515026 -0.329652 0.445011 
-0.535455 -0.32086 0.44086 
-0.530128 -0.309367 0.430274 
-0.506785 -0.319412 0.435016 
-0.481635 -0.355697 0.460335 
-0.49687 -0.341433 0.451601 
-0.486039 -0.332874 0.442547 
-0.468631 -0.349173 0.452526 
-0.50793 -0.35149 0.458607 
-0.462245 -0.389506 0.4829 
-0.469968 -0.37194 0.470913 
-0.4553 -0.367733 0.464613 
-0.446476 -0.387804 0.478309 
-0.45981 -0.425932 0.509271 
-0.458844 -0.407739 0.495856 
-0.442589 -0.408637 0.493114 
-0.443692 -0.429421 0.508448 
-0.475327 -0.408339 0.496549 
-0.4747 -0.459428 0.535433 
-0.465192 -0.443378 0.522633 
-0.44984 -0.449343 0.523732 
-0.4607 -0.46766 0.53839 
-0.504647 -0.484896 0.557404 
-0.488045 -0.473432 0.547166 
-0.475944 -0.483626 0.551845 
-0.494907 -0.496678 0.563606 
-0.539476 -0.499096 0.570438 
-0.523925 -0.493326 0.565722 
-0.516926 -0.506255 0.573186 
-0.531148 -0.507582 0.574902 
-0.704134 -0.605395 0.375829 
-0.684137 -0.610154 0.402929 
-0.681131 -0.611268 0.394487 
-0.700265 -0.606276 0.369049 
-0.665207 -0.612389 0.414893 
-0.667522 -0.612878 0.402424 
-0.681663 -0.593948 0.425085 
-0.66285 -0.59694 0.436013 
-0.701421 -0.587615 0.400138 
-0.700366 -0.470373 0.521405 
-0.697372 -0.450751 0.548232 
-0.683457 -0.469898 0.561076 
-0.686246 -0.488175 0.536089 
-0.706584 -0.429986 0.533773 
-0.709735 -0.450637 0.50554 
-0.73403 -0.547498 0.282459 
-0.734762 -0.56641 0.302172 
-0.729588 -0.568311 0.299068 
-0.72888 -0.550118 0.280192 
-0.729946 -0.583085 0.324461 
-0.724979 -0.584409 0.320346 
-0.731597 -0.545673 0.330523 
-0.726881 -0.562995 0.351928 
-0.730812 -0.526407 0.311293 
-0.706429 -0.387827 0.456464 
-0.703102 -0.366027 0.486268 
-0.709504 -0.386775 0.502193 
-0.712812 -0.408454 0.472555 
-0.691786 -0.346925 0.471032 
-0.695112 -0.368725 0.441228 
-0.680805 -0.478234 0.223922 
-0.700565 -0.491878 0.236108 
-0.69675 -0.496707 0.23571 
-0.677779 -0.483608 0.224011 
-0.716448 -0.508545 0.250072 
-0.711998 -0.512709 0.249116 
-0.697328 -0.47067 0.265103 
-0.713212 -0.487337 0.279067 
-0.677569 -0.457025 0.252918 
-0.636526 -0.328381 0.40518 
-0.633199 -0.306581 0.434984 
-0.656143 -0.316614 0.444883 
-0.659469 -0.338414 0.415079 
-0.608005 -0.300473 0.427704 
-0.611331 -0.322272 0.3979 
-0.58482 -0.320402 0.393572 
-0.581493 -0.298602 0.423376 
-0.5547 -0.300959 0.42211 
-0.558026 -0.322759 0.392306 
-0.529005 -0.479618 0.207992 
-0.55332 -0.469154 0.203052 
-0.555386 -0.474892 0.203975 
-0.532043 -0.484937 0.208717 
-0.579362 -0.462579 0.201149 
-0.580388 -0.468579 0.202148 
-0.550083 -0.447946 0.232047 
-0.576126 -0.44137 0.230144 
-0.525769 -0.458409 0.236987 
-0.489263 -0.510616 0.22623 
-0.507396 -0.493639 0.215836 
-0.511298 -0.498398 0.216248 
-0.493889 -0.514698 0.226226 
-0.50416 -0.472431 0.244831 
-0.486027 -0.489408 0.255225 
-0.466187 -0.550855 0.253086 
-0.475378 -0.529949 0.23882 
-0.480558 -0.533258 0.238314 
-0.471734 -0.553329 0.25201 
-0.472141 -0.50874 0.267815 
-0.46295 -0.529647 0.282081 
-0.463149 -0.593295 0.285722 
-0.462138 -0.572555 0.268507 
-0.467847 -0.574162 0.266815 
-0.468819 -0.594085 0.283325 
-0.458902 -0.551347 0.297502 
-0.45993 -0.572204 0.314556 
-0.465971 -0.59058 0.333723 
-0.457137 -0.532687 0.412872 
-0.450946 -0.513325 0.395053 
-0.448273 -0.474602 0.492285 
-0.441931 -0.45425 0.475818 
-0.468061 -0.54922 0.431621 
-0.459474 -0.492947 0.508555 
-0.476619 -0.605305 0.354943 
-0.475179 -0.508445 0.524118 
-0.472185 -0.488822 0.550945 
-0.456323 -0.472297 0.536788 
-0.491916 -0.502281 0.563383 
-0.494705 -0.520558 0.538396 
-0.531198 -0.619386 0.426898 
-0.524294 -0.574143 0.488752 
-0.502304 -0.57036 0.470308 
-0.509879 -0.619998 0.402445 
-0.517368 -0.52875 0.550812 
-0.54362 -0.572858 0.496333 
-0.537016 -0.529587 0.555492 
-0.550201 -0.615985 0.43737 
-0.688095 -0.605216 0.35377 
-0.671601 -0.611235 0.373776 
-0.657764 -0.614163 0.389243 
-0.709436 -0.584195 0.313722 
-0.700853 -0.596119 0.333421 
-0.686506 -0.59402 0.324238 
-0.693731 -0.582919 0.308548 
-0.715043 -0.597194 0.344004 
-0.712759 -0.553585 0.2794 
-0.713407 -0.569694 0.295663 
-0.69706 -0.569992 0.293742 
-0.69647 -0.555952 0.280111 
-0.697975 -0.520783 0.252288 
-0.707483 -0.536833 0.265089 
-0.691935 -0.541513 0.267945 
-0.683783 -0.527752 0.25697 
-0.722862 -0.531048 0.263743 
-0.668028 -0.495315 0.230317 
-0.68463 -0.506779 0.240555 
-0.672341 -0.515746 0.246911 
-0.658107 -0.505917 0.238133 
-0.627581 -0.481753 0.215883 
-0.64875 -0.486885 0.222 
-0.641579 -0.49869 0.231002 
-0.62343 -0.494289 0.225758 
-0.655752 -0.473976 0.214508 
-0.631564 -0.468112 0.207518 
-0.582794 -0.482161 0.211183 
-0.605306 -0.480181 0.212247 
-0.604332 -0.492942 0.22264 
-0.58503 -0.49464 0.221728 
-0.606112 -0.466316 0.203364 
-0.540483 -0.496478 0.216932 
-0.560912 -0.487686 0.212782 
-0.56627 -0.499376 0.223099 
-0.548755 -0.506914 0.226657 
-0.507092 -0.522523 0.232256 
-0.522327 -0.508259 0.223523 
-0.533188 -0.517015 0.232308 
-0.520126 -0.529245 0.239795 
-0.487702 -0.556332 0.254821 
-0.495425 -0.538766 0.242835 
-0.510123 -0.543171 0.248865 
-0.503502 -0.558231 0.259142 
-0.485161 -0.592063 0.282142 
-0.484301 -0.574565 0.267778 
-0.500586 -0.573864 0.27025 
-0.501335 -0.588942 0.282462 
-0.499163 -0.619744 0.316255 
-0.490225 -0.607427 0.298351 
-0.505711 -0.602342 0.296047 
-0.51345 -0.613399 0.31072 
-0.474573 -0.611425 0.30214 
-0.484714 -0.625029 0.323241 
-0.527159 -0.632424 0.355709 
-0.511648 -0.628107 0.335701 
-0.524288 -0.621445 0.326192 
-0.537795 -0.626507 0.341489 
-0.498851 -0.633744 0.346609 
-0.516375 -0.637365 0.371264 
-0.559568 -0.630765 0.390426 
-0.545179 -0.632608 0.375299 
-0.55354 -0.628605 0.355632 
-0.561293 -0.628857 0.370432 
-0.536677 -0.63569 0.396227 
-0.550241 -0.632706 0.403836 
-0.633685 -0.487572 0.568804 
-0.647243 -0.494662 0.575844 
-0.636287 -0.504623 0.545492 
-0.649666 -0.510542 0.554134 
-0.62865 -0.473923 0.55775 
-0.631518 -0.492721 0.53205 
-0.5475 -0.519634 0.546561 
-0.544898 -0.502583 0.569873 
-0.534593 -0.513708 0.577201 
-0.572926 -0.275311 0.057435 
-0.582146 -0.269905 0.061293 
-0.596072 -0.350486 0.141319 
-0.586639 -0.356017 0.137372 
-0.589934 -0.263427 0.066442 
-0.604041 -0.343858 0.146587 
-0.564765 -0.163491 -0.046294 
-0.572553 -0.157014 -0.041145 
-0.555544 -0.168898 -0.050151 
-0.595961 -0.256108 0.072707 
-0.610206 -0.33637 0.152997 
-0.600029 -0.248243 0.079829 
-0.614368 -0.328323 0.160284 
-0.578579 -0.149695 -0.03488 
-0.582647 -0.14183 -0.027758 
-0.601943 -0.240126 0.087548 
-0.616327 -0.320019 0.168182 
-0.601671 -0.232072 0.095559 
-0.616049 -0.311778 0.176378 
-0.584561 -0.133713 -0.020039 
-0.58429 -0.125659 -0.012028 
-0.599182 -0.224392 0.103556 
-0.613502 -0.303921 0.18456 
-0.594612 -0.217374 0.111236 
-0.608826 -0.29674 0.192418 
-0.5818 -0.117979 -0.00403 
-0.577231 -0.110961 0.00365 
-0.588098 -0.211302 0.118295 
-0.602162 -0.290527 0.19964 
-0.579926 -0.206388 0.124475 
-0.593806 -0.285529 0.205934 
-0.570717 -0.104888 0.010709 
-0.562544 -0.099975 0.016889 
-0.570379 -0.202847 0.12952 
-0.584054 -0.281993 0.211007 
-0.559848 -0.200786 0.13326 
-0.573305 -0.280029 0.214685 
-0.552998 -0.096433 0.021934 
-0.542467 -0.094373 0.025673 
-0.548723 -0.200315 0.135523 
-0.561957 -0.279749 0.216796 
-0.537437 -0.201421 0.136253 
-0.55043 -0.280996 0.217425 
-0.531341 -0.093902 0.027937 
-0.520055 -0.095007 0.028666 
-0.526425 -0.204092 0.13539 
-0.539144 -0.283614 0.216659 
-0.516102 -0.208196 0.132998 
-0.528547 -0.287611 0.214418 
-0.509044 -0.097678 0.027803 
-0.498721 -0.101783 0.025412 
-0.506882 -0.213602 0.129141 
-0.519087 -0.292997 0.210618 
-0.499094 -0.22008 0.123992 
-0.511103 -0.299538 0.205439 
-0.4895 -0.107189 0.021554 
-0.481712 -0.113666 0.016405 
-0.493067 -0.227399 0.117726 
-0.504933 -0.306996 0.199059 
-0.489 -0.235263 0.110604 
-0.500771 -0.315043 0.191772 
-0.475686 -0.120985 0.01014 
-0.471618 -0.12885 0.003018 
-0.487085 -0.24338 0.102885 
-0.498812 -0.323348 0.183874 
-0.487357 -0.251435 0.094875 
-0.49909 -0.331589 0.175678 
-0.469704 -0.136967 -0.004701 
-0.469976 -0.145022 -0.012712 
-0.489846 -0.259114 0.086877 
-0.501637 -0.339446 0.167495 
-0.494416 -0.266133 0.079197 
-0.506313 -0.346627 0.159637 
-0.472465 -0.152701 -0.02071 
-0.477035 -0.159719 -0.02839 
-0.50093 -0.272205 0.072138 
-0.512977 -0.35284 0.152416 
-0.509102 -0.277119 0.065958 
-0.521339 -0.357867 0.146092 
-0.483549 -0.165792 -0.035448 
-0.491721 -0.170706 -0.041629 
-0.518649 -0.28066 0.060913 
-0.531106 -0.36149 0.140931 
-0.52918 -0.282721 0.057173 
-0.54188 -0.363599 0.137105 
-0.501267 -0.174247 -0.046674 
-0.511798 -0.176308 -0.050413 
-0.540305 -0.283192 0.05491 
-0.553264 -0.36408 0.134789 
-0.551591 -0.282086 0.054181 
-0.564811 -0.362949 0.134043 
-0.522924 -0.176779 -0.052677 
-0.53421 -0.175673 -0.053406 
-0.562603 -0.279415 0.055043 
-0.576077 -0.360216 0.134925 
-0.545221 -0.173002 -0.052543 
-0.593015 -0.385309 0.162011 
-0.603088 -0.379403 0.166225 
-0.607474 -0.392217 0.174851 
-0.59676 -0.398499 0.170369 
-0.611597 -0.372326 0.171851 
-0.616524 -0.384691 0.180834 
-0.618181 -0.36433 0.178696 
-0.623526 -0.376187 0.188114 
-0.622626 -0.355737 0.186477 
-0.628252 -0.367048 0.196389 
-0.624717 -0.346869 0.19491 
-0.630477 -0.357617 0.205358 
-0.62442 -0.338069 0.203662 
-0.630159 -0.348246 0.214678 
-0.6217 -0.329679 0.2124 
-0.62726 -0.339288 0.224007 
-0.616708 -0.322011 0.220791 
-0.621987 -0.331342 0.232718 
-0.609591 -0.315377 0.228503 
-0.614545 -0.325009 0.240184 
-0.600683 -0.310125 0.235136 
-0.605238 -0.320373 0.246274 
-0.590314 -0.306605 0.240293 
-0.594366 -0.317517 0.250854 
-0.578911 -0.304934 0.243788 
-0.582379 -0.316541 0.253756 
-0.566897 -0.305227 0.245439 
-0.569723 -0.317542 0.254811 
-0.554648 -0.306897 0.245767 
-0.556751 -0.319634 0.254838 
-0.542536 -0.309354 0.245293 
-0.543815 -0.321931 0.254656 
-0.531116 -0.31303 0.243502 
-0.531548 -0.325151 0.253452 
-0.520941 -0.318356 0.239878 
-0.520586 -0.330015 0.250413 
-0.51237 -0.325084 0.234608 
-0.511315 -0.336282 0.245712 
-0.505766 -0.332963 0.227882 
-0.504125 -0.343713 0.239523 
-0.501322 -0.341556 0.220101 
-0.499271 -0.352129 0.231983 
-0.499231 -0.350424 0.211667 
-0.497011 -0.36135 0.223228 
-0.499528 -0.359224 0.202915 
-0.497332 -0.370745 0.213884 
-0.502247 -0.367614 0.194177 
-0.500227 -0.37968 0.204579 
-0.50724 -0.375282 0.185786 
-0.505537 -0.387835 0.195655 
-0.514356 -0.381916 0.178075 
-0.513105 -0.394891 0.187453 
-0.523285 -0.387285 0.171322 
-0.522601 -0.4006 0.180272 
-0.533715 -0.391154 0.16581 
-0.533694 -0.404715 0.17441 
-0.54522 -0.393405 0.161725 
-0.54593 -0.407109 0.170065 
-0.557376 -0.39392 0.159252 
-0.558858 -0.407656 0.167435 
-0.569706 -0.392712 0.158455 
-0.571971 -0.406371 0.166587 
-0.581736 -0.389793 0.159398 
-0.584766 -0.403268 0.16759 
-0.602583 -0.430897 0.201465 
-0.61351 -0.42449 0.206037 
-0.62037 -0.466492 0.248502 
-0.609443 -0.472899 0.24393 
-0.62274 -0.416813 0.212138 
-0.6296 -0.458816 0.254603 
-0.629881 -0.40814 0.219563 
-0.636741 -0.450142 0.262028 
-0.634702 -0.39882 0.228003 
-0.641562 -0.440822 0.270468 
-0.63697 -0.389201 0.237151 
-0.643831 -0.431203 0.279616 
-0.63664 -0.379608 0.246692 
-0.643492 -0.421563 0.289205 
-0.633665 -0.370366 0.256314 
-0.640493 -0.41218 0.29897 
-0.628397 -0.362887 0.264563 
-0.635371 -0.405539 0.306367 
-0.621185 -0.358582 0.269986 
-0.628666 -0.404125 0.308848 
-0.61215 -0.356468 0.273536 
-0.620242 -0.405487 0.308862 
-0.601415 -0.355563 0.276166 
-0.609962 -0.407175 0.308853 
-0.589422 -0.355894 0.277776 
-0.598252 -0.409119 0.308822 
-0.576614 -0.357488 0.278269 
-0.585538 -0.411249 0.30877 
-0.563401 -0.359719 0.278196 
-0.572325 -0.413479 0.308699 
-0.55019 -0.361964 0.278111 
-0.559114 -0.415725 0.308612 
-0.537579 -0.364676 0.277466 
-0.546409 -0.417901 0.308512 
-0.526165 -0.368309 0.275716 
-0.534712 -0.419922 0.308403 
-0.516358 -0.372694 0.272963 
-0.52445 -0.421713 0.308289 
-0.508566 -0.377658 0.269312 
-0.516048 -0.423201 0.308175 
-0.503238 -0.384088 0.263814 
-0.510212 -0.426739 0.305618 
-0.500822 -0.392868 0.255519 
-0.50765 -0.434682 0.298176 
-0.501169 -0.402555 0.245882 
-0.508021 -0.44451 0.288395 
-0.504127 -0.411703 0.236356 
-0.510988 -0.453705 0.278821 
-0.509543 -0.42002 0.227254 
-0.516403 -0.462022 0.269719 
-0.517262 -0.427217 0.218889 
-0.524123 -0.469219 0.261354 
-0.526947 -0.43304 0.211565 
-0.533808 -0.475042 0.25403 
-0.53826 -0.437237 0.205586 
-0.545121 -0.479238 0.248051 
-0.55074 -0.439678 0.201155 
-0.557601 -0.48168 0.24362 
-0.563925 -0.440237 0.198472 
-0.570786 -0.482239 0.240937 
-0.5773 -0.438926 0.197608 
-0.58416 -0.480928 0.240073 
-0.590349 -0.435761 0.198631 
-0.59721 -0.477763 0.241096 
-0.63918 -0.481999 0.522788 
-0.636168 -0.462256 0.549781 
-0.678422 -0.571678 0.350766 
-0.68151 -0.591916 0.323098 
-0.688277 -0.581059 0.308786 
-0.685123 -0.560388 0.337047 
-0.688189 -0.547662 0.323766 
-0.691389 -0.568635 0.295093 
-0.690816 -0.555272 0.282356 
-0.687589 -0.534123 0.31127 
-0.674257 -0.461185 0.380852 
-0.678579 -0.47508 0.391991 
-0.683291 -0.520392 0.299906 
-0.666557 -0.448188 0.370485 
-0.675592 -0.507395 0.289539 
-0.664784 -0.496054 0.280038 
-0.66802 -0.517262 0.251043 
-0.678828 -0.528603 0.260544 
-0.654576 -0.507978 0.242752 
-0.651339 -0.48677 0.271747 
-0.635728 -0.479944 0.265011 
-0.638964 -0.501152 0.236016 
-0.621821 -0.496996 0.231062 
-0.57912 -0.334103 0.449078 
-0.564595 -0.480592 0.257546 
-0.567831 -0.501801 0.228551 
-0.585551 -0.497326 0.227256 
-0.551287 -0.50892 0.231912 
-0.511922 -0.356841 0.45821 
-0.511562 -0.521959 0.281884 
-0.514798 -0.543167 0.252888 
-0.524246 -0.530013 0.244321 
-0.508544 -0.557392 0.262595 
-0.481127 -0.410537 0.494048 
-0.507451 -0.578218 0.325943 
-0.510651 -0.599191 0.29727 
-0.506502 -0.586433 0.284576 
-0.517994 -0.609848 0.310837 
-0.514839 -0.589177 0.339098 
-0.516578 -0.541086 0.429851 
-0.506033 -0.531469 0.417994 
-0.525199 -0.597583 0.352612 
-0.529715 -0.548355 0.440898 
-0.53812 -0.603434 0.365595 
-0.553193 -0.606729 0.377159 
-0.556124 -0.625937 0.350899 
-0.541131 -0.623164 0.338621 
-0.566173 -0.627446 0.368225 
-0.563383 -0.609158 0.393227 
-0.667833 -0.503312 0.548999 
-0.665291 -0.486653 0.571774 
-0.708525 -0.523844 0.448303 
-0.718322 -0.506909 0.428606 
-0.716658 -0.577137 0.375443 
-0.693846 -0.537977 0.468 
-0.7139 -0.429694 0.489085 
-0.710647 -0.408378 0.518227 
-0.724528 -0.506439 0.294302 
-0.727764 -0.527647 0.265307 
-0.679229 -0.352058 0.427264 
-0.675902 -0.330258 0.457068 
-0.645591 -0.387785 0.323964 
-0.620396 -0.381677 0.316684 
-0.654625 -0.446993 0.243018 
-0.629431 -0.440884 0.235738 
-0.668534 -0.397818 0.333863 
-0.60292 -0.439013 0.231411 
-0.606156 -0.460221 0.202416 
-0.632667 -0.462093 0.206743 
-0.531984 -0.329334 0.394209 
-0.528657 -0.307534 0.424013 
-0.504343 -0.317998 0.428953 
-0.507669 -0.339798 0.399148 
-0.48606 -0.353819 0.406992 
-0.482734 -0.332019 0.436796 
-0.464601 -0.348997 0.447191 
-0.467928 -0.370797 0.417386 
-0.454042 -0.390129 0.429977 
-0.450715 -0.368329 0.459781 
-0.441524 -0.389235 0.474047 
-0.444851 -0.411035 0.444243 
-0.440802 -0.432735 0.459663 
-0.437476 -0.410935 0.489467 
-0.438623 -0.432571 0.505456 
-0.445021 -0.453286 0.521427 
-0.483338 -0.561915 0.451015 
-0.49147 -0.615208 0.378155 
-0.514826 -0.512092 0.573586 
-0.643378 -0.551088 0.481967 
-0.656269 -0.553813 0.494976 
-0.650445 -0.597399 0.418653 
-0.639335 -0.543945 0.462018 
-0.55459 -0.566099 0.483036 
-0.555592 -0.558103 0.463027 
-0.561657 -0.61241 0.419722 
-0.64739 -0.535799 0.449235 
-0.660045 -0.526321 0.439328 
-0.603782 -0.495723 0.228118 
-0.536584 -0.518461 0.237249 
-0.505789 -0.572157 0.273088 
-0.67476 -0.548705 0.486939 
-0.722763 -0.487779 0.409672 
-0.721827 -0.467529 0.39179 
-0.688294 -0.411462 0.346049 
-0.704177 -0.428129 0.360013 
-0.541049 -0.388739 0.312993 
-0.567091 -0.382163 0.31109 
-0.516734 -0.399202 0.317933 
-0.495125 -0.413224 0.325777 
-0.476992 -0.430201 0.336171 
-0.463107 -0.449533 0.348761 
-0.453916 -0.47044 0.363027 
-0.449867 -0.49214 0.378448 
-0.469135 -0.611318 0.305371 
-0.479685 -0.625395 0.327476 
-0.533671 -0.635592 0.404741 
-0.552558 -0.631434 0.41625 
-0.512592 -0.637778 0.378137 
-0.6698 -0.515182 0.428006 
-0.676317 -0.50268 0.415943 
-0.679255 -0.489112 0.403813 
-0.686528 -0.541601 0.270911 
-0.655749 -0.436847 0.360984 
-0.642305 -0.427563 0.352693 
-0.626693 -0.420736 0.345957 
-0.55556 -0.421385 0.338492 
-0.502527 -0.462751 0.362829 
-0.498516 -0.519669 0.405991 
-0.528287 -0.61782 0.324944 
-0.54501 -0.553108 0.450468 
-0.719571 -0.596226 0.349344 
-0.715493 -0.447232 0.375248 
-0.657862 -0.468201 0.214023 
-0.593885 -0.379806 0.312357 
-0.494383 -0.634298 0.352057 
-0.652976 -0.613987 0.395973 
-0.564188 -0.628998 0.397043 
3 0 1 2 
3 0 2 3 
3 2 1 4 
3 2 4 5 
3 4 1 6 
3 4 6 7 
3 6 1 0 
3 6 0 8 
3 9 10 11 
3 9 11 12 
3 11 10 13 
3 11 13 14 
3 13 10 15 
3 13 15 16 
3 15 10 9 
3 15 9 17 
3 18 19 20 
3 18 20 21 
3 20 19 9 
3 20 9 12 
3 9 19 22 
3 9 22 17 
3 22 19 18 
3 22 18 23 
3 24 25 26 
3 24 26 27 
3 26 25 18 
3 26 18 21 
3 18 25 28 
3 18 28 23 
3 28 25 24 
3 28 24 29 
3 30 31 32 
3 30 32 33 
3 32 31 24 
3 32 24 27 
3 24 31 34 
3 24 34 29 
3 34 31 30 
3 34 30 35 
3 36 37 38 
3 36 38 39 
3 38 37 30 
3 38 30 33 
3 30 37 40 
3 30 40 35 
3 40 37 36 
3 40 36 41 
3 42 43 44 
3 42 44 41 
3 44 43 45 
3 44 45 46 
3 45 43 47 
3 45 47 48 
3 47 43 42 
3 47 42 49 
3 50 51 52 
3 50 52 53 
3 52 51 54 
3 52 54 55 
3 54 51 56 
3 54 56 49 
3 56 51 50 
3 56 50 57 
3 58 59 60 
3 58 60 57 
3 60 59 61 
3 60 61 62 
3 61 59 63 
3 61 63 64 
3 63 59 58 
3 63 58 65 
3 66 67 68 
3 66 68 69 
3 68 67 70 
3 68 70 71 
3 70 67 72 
3 70 72 65 
3 72 67 66 
3 72 66 73 
3 74 75 76 
3 74 76 73 
3 76 75 77 
3 76 77 78 
3 77 75 79 
3 77 79 80 
3 79 75 74 
3 79 74 81 
3 82 83 84 
3 82 84 85 
3 84 83 86 
3 84 86 87 
3 86 83 88 
3 86 88 81 
3 88 83 82 
3 88 82 89 
3 90 91 92 
3 90 92 93 
3 92 91 82 
3 92 82 85 
3 82 91 94 
3 82 94 89 
3 94 91 90 
3 94 90 95 
3 96 97 98 
3 96 98 99 
3 98 97 90 
3 98 90 93 
3 90 97 100 
3 90 100 95 
3 100 97 96 
3 100 96 101 
3 102 103 104 
3 102 104 105 
3 104 103 106 
3 104 106 107 
3 106 103 108 
3 106 108 109 
3 108 103 102 
3 108 102 14 
3 110 111 112 
3 110 112 113 
3 112 111 102 
3 112 102 105 
3 102 111 11 
3 102 11 14 
3 11 111 110 
3 11 110 12 
3 114 115 116 
3 114 116 117 
3 116 115 110 
3 116 110 113 
3 110 115 20 
3 110 20 12 
3 20 115 114 
3 20 114 21 
3 118 119 120 
3 118 120 121 
3 120 119 114 
3 120 114 117 
3 114 119 26 
3 114 26 21 
3 26 119 118 
3 26 118 27 
3 122 123 124 
3 122 124 125 
3 124 123 118 
3 124 118 121 
3 118 123 32 
3 118 32 27 
3 32 123 122 
3 32 122 33 
3 126 127 128 
3 126 128 129 
3 128 127 122 
3 128 122 125 
3 122 127 38 
3 122 38 33 
3 38 127 126 
3 38 126 39 
3 130 131 132 
3 130 132 133 
3 132 131 126 
3 132 126 129 
3 126 131 134 
3 126 134 39 
3 134 131 130 
3 134 130 55 
3 135 136 137 
3 135 137 138 
3 137 136 130 
3 137 130 133 
3 130 136 52 
3 130 52 55 
3 52 136 135 
3 52 135 53 
3 139 140 141 
3 139 141 142 
3 141 140 135 
3 141 135 138 
3 135 140 143 
3 135 143 53 
3 143 140 139 
3 143 139 71 
3 144 145 146 
3 144 146 147 
3 146 145 139 
3 146 139 142 
3 139 145 68 
3 139 68 71 
3 68 145 144 
3 68 144 69 
3 148 149 150 
3 148 150 151 
3 150 149 144 
3 150 144 147 
3 144 149 152 
3 144 152 69 
3 152 149 148 
3 152 148 87 
3 153 154 155 
3 153 155 156 
3 155 154 148 
3 155 148 151 
3 148 154 84 
3 148 84 87 
3 84 154 153 
3 84 153 85 
3 157 158 159 
3 157 159 160 
3 159 158 153 
3 159 153 156 
3 153 158 92 
3 153 92 85 
3 92 158 157 
3 92 157 93 
3 161 162 163 
3 161 163 164 
3 163 162 157 
3 163 157 160 
3 157 162 98 
3 157 98 93 
3 98 162 161 
3 98 161 99 
3 165 166 167 
3 165 167 168 
3 167 166 169 
3 167 169 170 
3 169 166 171 
3 169 171 172 
3 171 166 165 
3 171 165 173 
3 174 175 176 
3 174 176 177 
3 176 175 112 
3 176 112 105 
3 112 175 178 
3 112 178 113 
3 178 175 174 
3 178 174 179 
3 180 181 182 
3 180 182 183 
3 182 181 184 
3 182 184 185 
3 184 181 186 
3 184 186 187 
3 186 181 180 
3 186 180 188 
3 189 190 191 
3 189 191 192 
3 191 190 120 
3 191 120 117 
3 120 190 193 
3 120 193 121 
3 193 190 189 
3 193 189 194 
3 195 196 197 
3 195 197 198 
3 197 196 199 
3 197 199 200 
3 199 196 201 
3 199 201 202 
3 201 196 195 
3 201 195 203 
3 204 205 206 
3 204 206 207 
3 206 205 128 
3 206 128 125 
3 128 205 208 
3 128 208 129 
3 208 205 204 
3 208 204 209 
3 210 211 208 
3 210 208 209 
3 208 211 132 
3 208 132 129 
3 132 211 212 
3 132 212 133 
3 212 211 210 
3 212 210 213 
3 214 215 216 
3 214 216 217 
3 216 215 218 
3 216 218 219 
3 218 215 220 
3 218 220 221 
3 220 215 214 
3 220 214 222 
3 223 224 225 
3 223 225 226 
3 225 224 214 
3 225 214 217 
3 214 224 227 
3 214 227 222 
3 227 224 223 
3 227 223 228 
3 229 230 231 
3 229 231 232 
3 231 230 223 
3 231 223 226 
3 223 230 233 
3 223 233 228 
3 233 230 229 
3 233 229 234 
3 235 236 237 
3 235 237 238 
3 237 236 229 
3 237 229 232 
3 229 236 239 
3 229 239 234 
3 239 236 235 
3 239 235 240 
3 241 242 243 
3 241 243 240 
3 243 242 244 
3 243 244 245 
3 244 242 246 
3 244 246 247 
3 246 242 241 
3 246 241 248 
3 249 250 251 
3 249 251 247 
3 251 250 159 
3 251 159 156 
3 159 250 252 
3 159 252 160 
3 252 250 249 
3 252 249 253 
3 254 255 256 
3 254 256 257 
3 256 255 258 
3 256 258 253 
3 258 255 259 
3 258 259 260 
3 259 255 254 
3 259 254 261 
3 262 263 4 
3 262 4 7 
3 4 263 264 
3 4 264 5 
3 264 263 167 
3 264 167 170 
3 167 263 262 
3 167 262 168 
3 265 266 267 
3 265 267 268 
3 267 266 262 
3 267 262 7 
3 262 266 269 
3 262 269 168 
3 269 266 265 
3 269 265 185 
3 270 271 272 
3 270 272 273 
3 272 271 265 
3 272 265 268 
3 265 271 182 
3 265 182 185 
3 182 271 270 
3 182 270 183 
3 274 275 276 
3 274 276 277 
3 276 275 270 
3 276 270 273 
3 270 275 278 
3 270 278 183 
3 278 275 274 
3 278 274 200 
3 279 280 281 
3 279 281 282 
3 281 280 274 
3 281 274 277 
3 274 280 197 
3 274 197 200 
3 197 280 279 
3 197 279 198 
3 283 284 285 
3 283 285 286 
3 285 284 279 
3 285 279 282 
3 279 284 287 
3 279 287 198 
3 287 284 283 
3 287 283 288 
3 289 290 291 
3 289 291 292 
3 291 290 283 
3 291 283 286 
3 283 290 293 
3 283 293 288 
3 293 290 289 
3 293 289 219 
3 294 295 296 
3 294 296 297 
3 296 295 289 
3 296 289 292 
3 289 295 216 
3 289 216 219 
3 216 295 294 
3 216 294 217 
3 298 299 300 
3 298 300 301 
3 300 299 294 
3 300 294 297 
3 294 299 225 
3 294 225 217 
3 225 299 298 
3 225 298 226 
3 302 303 304 
3 302 304 305 
3 304 303 298 
3 304 298 301 
3 298 303 231 
3 298 231 226 
3 231 303 302 
3 231 302 232 
3 306 307 308 
3 306 308 309 
3 308 307 302 
3 308 302 305 
3 302 307 237 
3 302 237 232 
3 237 307 306 
3 237 306 238 
3 310 311 312 
3 310 312 313 
3 312 311 306 
3 312 306 309 
3 306 311 314 
3 306 314 238 
3 314 311 310 
3 314 310 315 
3 316 317 318 
3 316 318 319 
3 318 317 310 
3 318 310 313 
3 310 317 320 
3 310 320 315 
3 320 317 316 
3 320 316 321 
3 322 323 324 
3 322 324 325 
3 324 323 316 
3 324 316 319 
3 316 323 326 
3 316 326 321 
3 326 323 322 
3 326 322 327 
3 106 328 329 
3 106 329 107 
3 329 328 330 
3 329 330 331 
3 330 328 332 
3 330 332 333 
3 332 328 106 
3 332 106 109 
3 334 335 336 
3 334 336 260 
3 336 335 161 
3 336 161 164 
3 161 335 96 
3 161 96 99 
3 96 335 334 
3 96 334 101 
3 337 338 339 
3 337 339 340 
3 339 338 341 
3 339 341 342 
3 341 338 343 
3 341 343 344 
3 343 338 337 
3 343 337 345 
3 341 346 347 
3 341 347 342 
3 347 346 348 
3 347 348 349 
3 348 346 350 
3 348 350 351 
3 350 346 341 
3 350 341 344 
3 348 352 353 
3 348 353 349 
3 353 352 354 
3 353 354 355 
3 354 352 356 
3 354 356 357 
3 356 352 348 
3 356 348 351 
3 354 358 359 
3 354 359 355 
3 359 358 360 
3 359 360 361 
3 360 358 362 
3 360 362 363 
3 362 358 354 
3 362 354 357 
3 360 364 365 
3 360 365 361 
3 365 364 366 
3 365 366 367 
3 366 364 368 
3 366 368 369 
3 368 364 360 
3 368 360 363 
3 366 370 371 
3 366 371 367 
3 371 370 372 
3 371 372 373 
3 372 370 374 
3 372 374 375 
3 374 370 366 
3 374 366 369 
3 372 376 377 
3 372 377 373 
3 377 376 378 
3 377 378 379 
3 378 376 380 
3 378 380 381 
3 380 376 372 
3 380 372 375 
3 378 382 383 
3 378 383 379 
3 383 382 384 
3 383 384 385 
3 384 382 386 
3 384 386 387 
3 386 382 378 
3 386 378 381 
3 384 388 389 
3 384 389 385 
3 389 388 390 
3 389 390 391 
3 390 388 392 
3 390 392 393 
3 392 388 384 
3 392 384 387 
3 390 394 395 
3 390 395 391 
3 395 394 396 
3 395 396 397 
3 396 394 398 
3 396 398 399 
3 398 394 390 
3 398 390 393 
3 396 400 401 
3 396 401 397 
3 401 400 402 
3 401 402 403 
3 402 400 404 
3 402 404 405 
3 404 400 396 
3 404 396 399 
3 402 406 407 
3 402 407 403 
3 407 406 408 
3 407 408 409 
3 408 406 410 
3 408 410 411 
3 410 406 402 
3 410 402 405 
3 408 412 413 
3 408 413 409 
3 413 412 414 
3 413 414 415 
3 414 412 416 
3 414 416 417 
3 416 412 408 
3 416 408 411 
3 414 418 419 
3 414 419 415 
3 419 418 420 
3 419 420 421 
3 420 418 422 
3 420 422 423 
3 422 418 414 
3 422 414 417 
3 420 424 425 
3 420 425 421 
3 425 424 426 
3 425 426 427 
3 426 424 428 
3 426 428 429 
3 428 424 420 
3 428 420 423 
3 426 430 431 
3 426 431 427 
3 431 430 337 
3 431 337 340 
3 337 430 432 
3 337 432 345 
3 432 430 426 
3 432 426 429 
3 433 434 435 
3 433 435 436 
3 435 434 437 
3 435 437 438 
3 437 434 339 
3 437 339 342 
3 339 434 433 
3 339 433 340 
3 437 439 440 
3 437 440 438 
3 440 439 441 
3 440 441 442 
3 441 439 347 
3 441 347 349 
3 347 439 437 
3 347 437 342 
3 441 443 444 
3 441 444 442 
3 444 443 445 
3 444 445 446 
3 445 443 353 
3 445 353 355 
3 353 443 441 
3 353 441 349 
3 445 447 448 
3 445 448 446 
3 448 447 449 
3 448 449 450 
3 449 447 359 
3 449 359 361 
3 359 447 445 
3 359 445 355 
3 449 451 452 
3 449 452 450 
3 452 451 453 
3 452 453 454 
3 453 451 365 
3 453 365 367 
3 365 451 449 
3 365 449 361 
3 453 455 456 
3 453 456 454 
3 456 455 457 
3 456 457 458 
3 457 455 371 
3 457 371 373 
3 371 455 453 
3 371 453 367 
3 457 459 460 
3 457 460 458 
3 460 459 461 
3 460 461 462 
3 461 459 377 
3 461 377 379 
3 377 459 457 
3 377 457 373 
3 461 463 464 
3 461 464 462 
3 464 463 465 
3 464 465 466 
3 465 463 383 
3 465 383 385 
3 383 463 461 
3 383 461 379 
3 465 467 468 
3 465 468 466 
3 468 467 469 
3 468 469 470 
3 469 467 389 
3 469 389 391 
3 389 467 465 
3 389 465 385 
3 469 471 472 
3 469 472 470 
3 472 471 473 
3 472 473 474 
3 473 471 395 
3 473 395 397 
3 395 471 469 
3 395 469 391 
3 473 475 476 
3 473 476 474 
3 476 475 477 
3 476 477 478 
3 477 475 401 
3 477 401 403 
3 401 475 473 
3 401 473 397 
3 477 479 480 
3 477 480 478 
3 480 479 481 
3 480 481 482 
3 481 479 407 
3 481 407 409 
3 407 479 477 
3 407 477 403 
3 481 483 484 
3 481 484 482 
3 484 483 485 
3 484 485 486 
3 485 483 413 
3 485 413 415 
3 413 483 481 
3 413 481 409 
3 485 487 488 
3 485 488 486 
3 488 487 489 
3 488 489 490 
3 489 487 419 
3 489 419 421 
3 419 487 485 
3 419 485 415 
3 489 491 492 
3 489 492 490 
3 492 491 493 
3 492 493 494 
3 493 491 425 
3 493 425 427 
3 425 491 489 
3 425 489 421 
3 493 495 496 
3 493 496 494 
3 496 495 433 
3 496 433 436 
3 433 495 431 
3 433 431 340 
3 431 495 493 
3 431 493 427 
3 497 498 499 
3 497 499 500 
3 499 498 501 
3 499 501 502 
3 501 498 435 
3 501 435 438 
3 435 498 497 
3 435 497 436 
3 501 503 504 
3 501 504 502 
3 504 503 505 
3 504 505 506 
3 505 503 440 
3 505 440 442 
3 440 503 501 
3 440 501 438 
3 505 507 508 
3 505 508 506 
3 508 507 509 
3 508 509 510 
3 509 507 444 
3 509 444 446 
3 444 507 505 
3 444 505 442 
3 509 511 512 
3 509 512 510 
3 512 511 513 
3 512 513 514 
3 513 511 448 
3 513 448 450 
3 448 511 509 
3 448 509 446 
3 513 515 516 
3 513 516 514 
3 516 515 517 
3 516 517 518 
3 517 515 452 
3 517 452 454 
3 452 515 513 
3 452 513 450 
3 517 519 520 
3 517 520 518 
3 520 519 521 
3 520 521 522 
3 521 519 456 
3 521 456 458 
3 456 519 517 
3 456 517 454 
3 521 523 524 
3 521 524 522 
3 524 523 525 
3 524 525 526 
3 525 523 460 
3 525 460 462 
3 460 523 521 
3 460 521 458 
3 525 527 528 
3 525 528 526 
3 528 527 529 
3 528 529 530 
3 529 527 464 
3 529 464 466 
3 464 527 525 
3 464 525 462 
3 529 531 532 
3 529 532 530 
3 532 531 533 
3 532 533 534 
3 533 531 468 
3 533 468 470 
3 468 531 529 
3 468 529 466 
3 533 535 536 
3 533 536 534 
3 536 535 537 
3 536 537 538 
3 537 535 472 
3 537 472 474 
3 472 535 533 
3 472 533 470 
3 537 539 540 
3 537 540 538 
3 540 539 541 
3 540 541 542 
3 541 539 476 
3 541 476 478 
3 476 539 537 
3 476 537 474 
3 541 543 544 
3 541 544 542 
3 544 543 545 
3 544 545 546 
3 545 543 480 
3 545 480 482 
3 480 543 541 
3 480 541 478 
3 545 547 548 
3 545 548 546 
3 548 547 549 
3 548 549 550 
3 549 547 484 
3 549 484 486 
3 484 547 545 
3 484 545 482 
3 549 551 552 
3 549 552 550 
3 552 551 553 
3 552 553 554 
3 553 551 488 
3 553 488 490 
3 488 551 549 
3 488 549 486 
3 553 555 556 
3 553 556 554 
3 556 555 557 
3 556 557 558 
3 557 555 492 
3 557 492 494 
3 492 555 553 
3 492 553 490 
3 557 559 560 
3 557 560 558 
3 560 559 497 
3 560 497 500 
3 497 559 496 
3 497 496 436 
3 496 559 557 
3 496 557 494 
3 561 562 13 
3 561 13 16 
3 13 562 108 
3 13 108 14 
3 108 562 332 
3 108 332 109 
3 332 562 561 
3 332 561 333 
3 563 564 6 
3 563 6 8 
3 6 564 267 
3 6 267 7 
3 267 564 565 
3 267 565 268 
3 565 564 563 
3 565 563 566 
3 567 568 565 
3 567 565 566 
3 565 568 272 
3 565 272 268 
3 272 568 569 
3 272 569 273 
3 569 568 567 
3 569 567 570 
3 28 571 572 
3 28 572 23 
3 572 571 573 
3 572 573 570 
3 573 571 574 
3 573 574 575 
3 574 571 28 
3 574 28 29 
3 576 577 578 
3 576 578 575 
3 578 577 281 
3 578 281 277 
3 281 577 579 
3 281 579 282 
3 579 577 576 
3 579 576 580 
3 581 582 579 
3 581 579 580 
3 579 582 285 
3 579 285 282 
3 285 582 583 
3 285 583 286 
3 583 582 581 
3 583 581 46 
3 42 584 54 
3 42 54 49 
3 54 584 134 
3 54 134 55 
3 134 584 36 
3 134 36 39 
3 36 584 42 
3 36 42 41 
3 585 586 587 
3 585 587 48 
3 587 586 296 
3 587 296 292 
3 296 586 588 
3 296 588 297 
3 588 586 585 
3 588 585 62 
3 58 589 70 
3 58 70 65 
3 70 589 143 
3 70 143 71 
3 143 589 50 
3 143 50 53 
3 50 589 58 
3 50 58 57 
3 590 591 592 
3 590 592 64 
3 592 591 304 
3 592 304 301 
3 304 591 593 
3 304 593 305 
3 593 591 590 
3 593 590 78 
3 74 594 86 
3 74 86 81 
3 86 594 152 
3 86 152 87 
3 152 594 66 
3 152 66 69 
3 66 594 74 
3 66 74 73 
3 595 596 597 
3 595 597 80 
3 597 596 312 
3 597 312 309 
3 312 596 598 
3 312 598 313 
3 598 596 595 
3 598 595 599 
3 94 600 601 
3 94 601 89 
3 601 600 602 
3 601 602 599 
3 602 600 603 
3 602 603 604 
3 603 600 94 
3 603 94 95 
3 605 606 607 
3 605 607 604 
3 607 606 324 
3 607 324 319 
3 324 606 608 
3 324 608 325 
3 608 606 605 
3 608 605 609 
3 610 611 329 
3 610 329 331 
3 329 611 104 
3 329 104 107 
3 104 611 176 
3 104 176 105 
3 176 611 610 
3 176 610 177 
3 174 612 613 
3 174 613 179 
3 613 612 614 
3 613 614 187 
3 614 612 615 
3 614 615 173 
3 615 612 174 
3 615 174 177 
3 616 617 178 
3 616 178 179 
3 178 617 116 
3 178 116 113 
3 116 617 191 
3 116 191 117 
3 191 617 616 
3 191 616 192 
3 618 619 199 
3 618 199 202 
3 199 619 278 
3 199 278 200 
3 278 619 180 
3 278 180 183 
3 180 619 618 
3 180 618 188 
3 620 621 193 
3 620 193 194 
3 193 621 124 
3 193 124 121 
3 124 621 206 
3 124 206 125 
3 206 621 620 
3 206 620 207 
3 204 622 623 
3 204 623 209 
3 623 622 624 
3 623 624 625 
3 624 622 626 
3 624 626 203 
3 626 622 204 
3 626 204 207 
3 627 628 218 
3 627 218 221 
3 218 628 293 
3 218 293 219 
3 293 628 629 
3 293 629 288 
3 629 628 627 
3 629 627 625 
3 630 631 212 
3 630 212 213 
3 212 631 137 
3 212 137 133 
3 137 631 632 
3 137 632 138 
3 632 631 630 
3 632 630 633 
3 634 635 632 
3 634 632 633 
3 632 635 141 
3 632 141 138 
3 141 635 636 
3 141 636 142 
3 636 635 634 
3 636 634 637 
3 638 639 636 
3 638 636 637 
3 636 639 146 
3 636 146 142 
3 146 639 640 
3 146 640 147 
3 640 639 638 
3 640 638 641 
3 642 643 640 
3 642 640 641 
3 640 643 150 
3 640 150 147 
3 150 643 644 
3 150 644 151 
3 644 643 642 
3 644 642 245 
3 244 645 644 
3 244 644 245 
3 644 645 155 
3 644 155 151 
3 155 645 251 
3 155 251 156 
3 251 645 244 
3 251 244 247 
3 249 646 256 
3 249 256 253 
3 256 646 647 
3 256 647 257 
3 647 646 246 
3 647 246 248 
3 246 646 249 
3 246 249 247 
3 258 648 252 
3 258 252 253 
3 252 648 163 
3 252 163 160 
3 163 648 336 
3 163 336 164 
3 336 648 258 
3 336 258 260 
3 330 649 650 
3 330 650 331 
3 650 649 651 
3 650 651 172 
3 651 649 652 
3 651 652 3 
3 652 649 330 
3 652 330 333 
3 334 653 654 
3 334 654 101 
3 654 653 655 
3 654 655 609 
3 655 653 259 
3 655 259 261 
3 259 653 334 
3 259 334 260 
3 0 656 657 
3 0 657 8 
3 657 656 561 
3 657 561 16 
3 561 656 652 
3 561 652 333 
3 652 656 0 
3 652 0 3 
3 45 658 583 
3 45 583 46 
3 583 658 291 
3 583 291 286 
3 291 658 587 
3 291 587 292 
3 587 658 45 
3 587 45 48 
3 61 659 588 
3 61 588 62 
3 588 659 300 
3 588 300 297 
3 300 659 592 
3 300 592 301 
3 592 659 61 
3 592 61 64 
3 77 660 593 
3 77 593 78 
3 593 660 308 
3 593 308 305 
3 308 660 597 
3 308 597 309 
3 597 660 77 
3 597 77 80 
3 171 661 650 
3 171 650 172 
3 650 661 610 
3 650 610 331 
3 610 661 615 
3 610 615 177 
3 615 661 171 
3 615 171 173 
3 186 662 613 
3 186 613 187 
3 613 662 616 
3 613 616 179 
3 616 662 663 
3 616 663 192 
3 663 662 186 
3 663 186 188 
3 201 664 665 
3 201 665 202 
3 665 664 620 
3 665 620 194 
3 620 664 626 
3 620 626 207 
3 626 664 201 
3 626 201 203 
3 220 666 667 
3 220 667 221 
3 667 666 630 
3 667 630 213 
3 630 666 668 
3 630 668 633 
3 668 666 220 
3 668 220 222 
3 227 669 668 
3 227 668 222 
3 668 669 634 
3 668 634 633 
3 634 669 670 
3 634 670 637 
3 670 669 227 
3 670 227 228 
3 233 671 670 
3 233 670 228 
3 670 671 638 
3 670 638 637 
3 638 671 672 
3 638 672 641 
3 672 671 233 
3 672 233 234 
3 239 673 672 
3 239 672 234 
3 672 673 642 
3 672 642 641 
3 642 673 243 
3 642 243 245 
3 243 673 239 
3 243 239 240 
3 241 674 675 
3 241 675 248 
3 675 674 314 
3 675 314 315 
3 314 674 235 
3 314 235 238 
3 235 674 241 
3 235 241 240 
3 254 676 677 
3 254 677 261 
3 677 676 326 
3 677 326 327 
3 326 676 678 
3 326 678 321 
3 678 676 254 
3 678 254 257 
3 563 679 680 
3 563 680 566 
3 680 679 15 
3 680 15 17 
3 15 679 657 
3 15 657 16 
3 657 679 563 
3 657 563 8 
3 567 681 572 
3 567 572 570 
3 572 681 22 
3 572 22 23 
3 22 681 680 
3 22 680 17 
3 680 681 567 
3 680 567 566 
3 573 682 569 
3 573 569 570 
3 569 682 276 
3 569 276 273 
3 276 682 578 
3 276 578 277 
3 578 682 573 
3 578 573 575 
3 576 683 684 
3 576 684 580 
3 684 683 34 
3 684 34 35 
3 34 683 574 
3 34 574 29 
3 574 683 576 
3 574 576 575 
3 581 685 44 
3 581 44 46 
3 44 685 40 
3 44 40 41 
3 40 685 684 
3 40 684 35 
3 684 685 581 
3 684 581 580 
3 585 686 60 
3 585 60 62 
3 60 686 56 
3 60 56 57 
3 56 686 47 
3 56 47 49 
3 47 686 585 
3 47 585 48 
3 590 687 76 
3 590 76 78 
3 76 687 72 
3 76 72 73 
3 72 687 63 
3 72 63 65 
3 63 687 590 
3 63 590 64 
3 595 688 601 
3 595 601 599 
3 601 688 88 
3 601 88 89 
3 88 688 79 
3 88 79 81 
3 79 688 595 
3 79 595 80 
3 602 689 598 
3 602 598 599 
3 598 689 318 
3 598 318 313 
3 318 689 607 
3 318 607 319 
3 607 689 602 
3 607 602 604 
3 605 690 654 
3 605 654 609 
3 654 690 100 
3 654 100 101 
3 100 690 603 
3 100 603 95 
3 603 690 605 
3 603 605 604 
3 614 691 184 
3 614 184 187 
3 184 691 269 
3 184 269 185 
3 269 691 165 
3 269 165 168 
3 165 691 614 
3 165 614 173 
3 618 692 663 
3 618 663 188 
3 663 692 189 
3 663 189 192 
3 189 692 665 
3 189 665 194 
3 665 692 618 
3 665 618 202 
3 624 693 629 
3 624 629 625 
3 629 693 287 
3 629 287 288 
3 287 693 195 
3 287 195 198 
3 195 693 624 
3 195 624 203 
3 627 694 623 
3 627 623 625 
3 623 694 210 
3 623 210 209 
3 210 694 667 
3 210 667 213 
3 667 694 627 
3 667 627 221 
3 647 695 678 
3 647 678 257 
3 678 695 320 
3 678 320 321 
3 320 695 675 
3 320 675 315 
3 675 695 647 
3 675 647 248 
3 651 696 169 
3 651 169 172 
3 169 696 264 
3 169 264 170 
3 264 696 2 
3 264 2 5 
3 2 696 651 
3 2 651 3 
3 655 697 608 
3 655 608 609 
3 608 697 322 
3 608 322 325 
3 322 697 677 
3 322 677 327 
3 677 697 655 
3 677 655 261 
