ply
format ascii 1.0
comment VCGLIB generated
element vertex 274
property float x
property float y
property float z
element face 544
property list uchar int vertex_indices
end_header
-0.143863 2.26241 -0.05959 
-0.155716 2.26241 0 
-0.141708 2.26361 0 
-0.134349 2.26361 -0.036999 
-0.130921 2.26361 -0.054229 
-0.141708 2.26764 0 
-0.130921 2.26764 -0.054229 
0.188526 1.6652 0 
0.174175 1.6652 0.072146 
0.133308 1.6652 0.133308 
0.072146 1.6652 0.174175 
0 1.6652 0.188526 
-0.072146 1.6652 0.174175 
-0.133308 1.6652 0.133308 
-0.174175 1.6652 0.072146 
-0.188526 1.6652 0 
-0.174175 1.6652 -0.072145 
-0.133308 1.6652 -0.133308 
-0.072146 1.6652 -0.174175 
0 1.6652 -0.188525 
0.072146 1.6652 -0.174175 
0.133308 1.6652 -0.133308 
0.174175 1.6652 -0.072145 
0.174175 1.76943 -0.072145 
0.133308 1.76943 -0.133307 
0.165811 1.77738 -0.165811 
0.216643 1.77738 -0.089736 
0.072146 1.76943 -0.174175 
0.089736 1.77738 -0.216642 
0 1.76943 -0.188525 
0 1.77738 -0.234492 
-0.072146 1.76943 -0.174175 
-0.089736 1.77738 -0.216642 
-0.133308 1.76943 -0.133308 
-0.165811 1.77738 -0.165811 
-0.174175 1.76943 -0.072145 
-0.216643 1.77738 -0.089736 
-0.188526 1.76943 0 
-0.234492 1.77738 0 
-0.174175 1.76943 0.072146 
-0.216643 1.77738 0.089736 
-0.133308 1.76943 0.133308 
-0.165811 1.77738 0.165811 
-0.072146 1.76943 0.174176 
-0.089736 1.77738 0.216643 
0 1.76943 0.188526 
0 1.77738 0.234493 
0.072146 1.76943 0.174176 
0.089736 1.77738 0.216643 
0.133308 1.76943 0.133308 
0.165811 1.77738 0.165811 
0.174175 1.76943 0.072146 
0.216643 1.77738 0.089737 
0.188526 1.76943 0 
0.234492 1.77738 0 
0.191091 1.79537 -0.191091 
0.249673 1.79537 -0.103417 
0.103418 1.79537 -0.249672 
0 1.79537 -0.270244 
-0.103418 1.79537 -0.249673 
-0.191091 1.79537 -0.191091 
-0.249673 1.79537 -0.103418 
-0.270244 1.79537 0 
-0.249673 1.79537 0.103418 
-0.191091 1.79537 0.191091 
-0.103418 1.79537 0.249673 
0 1.79537 0.270244 
0.103418 1.79537 0.249673 
0.191091 1.79537 0.191092 
0.249673 1.79537 0.103418 
0.270244 1.79537 0 
0.210352 1.82801 -0.210352 
0.274839 1.82801 -0.113841 
0.113842 1.82801 -0.274838 
0 1.82801 -0.297483 
-0.113842 1.82801 -0.274838 
-0.210352 1.82801 -0.210352 
-0.274839 1.82801 -0.113842 
-0.297483 1.82801 0 
-0.274839 1.82801 0.113842 
-0.210352 1.82801 0.210353 
-0.113842 1.82801 0.274839 
0 1.82801 0.297484 
0.113842 1.82801 0.274839 
0.210352 1.82801 0.210353 
0.274839 1.82801 0.113842 
0.297483 1.82801 0 
0.216372 1.864 -0.216371 
0.282703 1.864 -0.117099 
0.1171 1.864 -0.282703 
0 1.864 -0.305995 
-0.117099 1.864 -0.282703 
-0.216371 1.864 -0.216371 
-0.282703 1.864 -0.117099 
-0.305995 1.864 0 
-0.282703 1.864 0.1171 
-0.216372 1.864 0.216372 
-0.1171 1.864 0.282703 
0 1.864 0.305996 
0.117099 1.864 0.282703 
0.216371 1.864 0.216372 
0.282703 1.864 0.1171 
0.305995 1.864 0 
0.216372 2.16904 -0.216371 
0.282703 2.16904 -0.117099 
0.117099 2.16904 -0.282703 
0 2.16904 -0.305995 
-0.117099 2.16904 -0.282703 
-0.216372 2.16904 -0.216371 
-0.282703 2.16904 -0.117099 
-0.305996 2.16904 0 
-0.282703 2.16904 0.1171 
-0.216372 2.16904 0.216372 
-0.1171 2.16904 0.282703 
0 2.16904 0.305996 
0.117099 2.16904 0.282703 
0.216371 2.16904 0.216372 
0.282703 2.16904 0.1171 
0.305995 2.16904 0 
0.20975 2.20503 -0.20975 
0.274052 2.20503 -0.113516 
0.113516 2.20503 -0.274052 
0 2.20503 -0.296632 
-0.113516 2.20503 -0.274052 
-0.20975 2.20503 -0.20975 
-0.274052 2.20503 -0.113516 
-0.296632 2.20503 0 
-0.274052 2.20503 0.113516 
-0.209751 2.20503 0.209751 
-0.113516 2.20503 0.274053 
0 2.20503 0.296632 
0.113516 2.20503 0.274053 
0.20975 2.20503 0.209751 
0.274052 2.20503 0.113517 
0.296632 2.20503 0 
0.189887 2.23766 -0.189887 
0.2481 2.23766 -0.102766 
0.102766 2.23766 -0.2481 
0 2.23766 -0.268541 
-0.102766 2.23766 -0.2481 
-0.189888 2.23766 -0.189887 
-0.2481 2.23766 -0.102766 
-0.268542 2.23766 0 
-0.2481 2.23766 0.102767 
-0.189888 2.23766 0.189888 
-0.102766 2.23766 0.2481 
0 2.23766 0.268542 
0.102766 2.23766 0.2481 
0.189887 2.23766 0.189888 
0.2481 2.23766 0.102767 
0.268541 2.23766 0 
0.165811 2.25566 -0.165811 
0.216643 2.25566 -0.089736 
0.089736 2.25566 -0.216642 
0 2.25566 -0.234492 
-0.089736 2.25566 -0.216642 
-0.165811 2.25566 -0.165811 
-0.216643 2.25566 -0.089736 
-0.234492 2.25566 0 
-0.216643 2.25566 0.089737 
-0.165811 2.25566 0.165811 
-0.089736 2.25566 0.216643 
0 2.25566 0.234493 
0.089736 2.25566 0.216643 
0.165811 2.25566 0.165811 
0.216642 2.25566 0.089737 
0.234492 2.25566 0 
0.143863 2.26241 -0.05959 
0.110108 2.26241 -0.110108 
0.100203 2.26361 -0.100202 
0.130921 2.26361 -0.054229 
0.05959 2.26241 -0.143863 
0 2.26241 -0.155716 
-0.05959 2.26241 -0.143863 
-0.110108 2.26241 -0.110108 
-0.143863 2.26241 0.05959 
-0.110108 2.26241 0.110109 
-0.05959 2.26241 0.143864 
0 2.26241 0.155717 
0.05959 2.26241 0.143864 
0.110108 2.26241 0.110109 
0.143863 2.26241 0.05959 
0.155716 2.26241 0 
0.141708 2.26361 0 
0.174175 1.67763 -0.072145 
0.133308 1.67763 -0.133308 
0.072146 1.67763 -0.174175 
0 1.67763 -0.188525 
-0.072146 1.67763 -0.174175 
-0.133308 1.67763 -0.133308 
-0.174175 1.67763 -0.072145 
-0.188526 1.67763 0 
-0.174175 1.67763 0.072146 
-0.133308 1.67763 0.133308 
-0.072146 1.67763 0.174175 
0 1.67763 0.188526 
0.072146 1.67763 0.174175 
0.133308 1.67763 0.133308 
0.174175 1.67763 0.072146 
0.188526 1.67763 0 
0.130921 2.26764 -0.054229 
0.100203 2.26764 -0.100202 
0.100203 2.31458 -0.100202 
0.130921 2.31458 -0.054229 
0.054229 2.26361 -0.130921 
0.054229 2.26764 -0.130921 
0 2.26361 -0.141708 
0 2.26764 -0.141708 
-0.054229 2.26361 -0.130921 
-0.054229 2.26764 -0.130921 
-0.100203 2.26361 -0.100203 
-0.100203 2.26764 -0.100203 
-0.141708 2.31458 0 
-0.130921 2.31458 -0.054229 
-0.130921 2.26361 0.05423 
-0.130921 2.26764 0.05423 
-0.100203 2.26361 0.100203 
-0.100203 2.26764 0.100203 
-0.05423 2.26361 0.130922 
-0.05423 2.26764 0.130922 
0 2.26361 0.141709 
0 2.26764 0.141709 
0.054229 2.26361 0.130922 
0.054229 2.26764 0.130922 
0.100203 2.26361 0.100203 
0.100203 2.26764 0.100203 
0.130921 2.26361 0.05423 
0.130921 2.26764 0.05423 
0.141708 2.26764 0 
0.141708 2.31458 0 
0 2.32198 1.8e-05 
0 2.32198 0.141709 
0.054229 2.32198 0.130922 
0.100203 2.32198 0.100203 
0.130921 2.32198 0.05423 
0.141708 2.32198 0 
-0.100203 2.32198 -0.100202 
-0.130921 2.32198 -0.054229 
-0.141708 2.32198 0 
0.130921 2.32198 -0.054229 
0.100203 2.32198 -0.100202 
0 2.32198 -0.141708 
-0.054229 2.32198 -0.130921 
0.054229 2.32198 -0.130921 
-0.100203 2.32198 0.100203 
-0.05423 2.32198 0.130922 
-0.130921 2.32198 0.05423 
0 1.66852 0.188526 
0.072146 1.66852 0.174175 
-0.072146 1.66852 0.174175 
-0.133308 1.66852 0.133308 
-0.174175 1.66852 0.072146 
-0.188526 1.66852 0 
-0.174175 1.66852 -0.072145 
-0.133308 1.66852 -0.133308 
-0.072146 1.66852 -0.174175 
0 1.66852 -0.188525 
0.072146 1.66852 -0.174175 
0.133308 1.66852 -0.133308 
0.174175 1.66852 -0.072145 
0.188526 1.66852 0 
0.174175 1.66852 0.072146 
0.133308 1.66852 0.133308 
0.054229 2.31458 0.130922 
0 2.31458 0.141709 
0.100203 2.31458 0.100203 
0.130921 2.31458 0.05423 
-0.100203 2.31458 -0.100202 
-0.054229 2.31458 -0.130921 
0 2.31458 -0.141708 
0.054229 2.31458 -0.130921 
-0.05423 2.31458 0.130922 
-0.100203 2.31458 0.100203 
-0.130921 2.31458 0.05423 
3 0 1 2 
3 0 2 3 
3 0 3 4 
3 3 2 5 
3 3 5 6 
3 3 6 4 
3 7 8 9 
3 7 9 10 
3 7 10 11 
3 7 11 12 
3 7 12 13 
3 7 13 14 
3 7 14 15 
3 7 15 16 
3 7 16 17 
3 7 17 18 
3 7 18 19 
3 7 19 20 
3 7 20 21 
3 7 21 22 
3 23 24 25 
3 23 25 26 
3 24 27 28 
3 24 28 25 
3 27 29 30 
3 27 30 28 
3 29 31 32 
3 29 32 30 
3 31 33 34 
3 31 34 32 
3 33 35 36 
3 33 36 34 
3 35 37 38 
3 35 38 36 
3 37 39 40 
3 37 40 38 
3 39 41 42 
3 39 42 40 
3 41 43 44 
3 41 44 42 
3 43 45 46 
3 43 46 44 
3 45 47 48 
3 45 48 46 
3 47 49 50 
3 47 50 48 
3 49 51 52 
3 49 52 50 
3 51 53 54 
3 51 54 52 
3 53 23 26 
3 53 26 54 
3 26 25 55 
3 26 55 56 
3 25 28 57 
3 25 57 55 
3 28 30 58 
3 28 58 57 
3 30 32 59 
3 30 59 58 
3 32 34 60 
3 32 60 59 
3 34 36 61 
3 34 61 60 
3 36 38 62 
3 36 62 61 
3 38 40 63 
3 38 63 62 
3 40 42 64 
3 40 64 63 
3 42 44 65 
3 42 65 64 
3 44 46 66 
3 44 66 65 
3 46 48 67 
3 46 67 66 
3 48 50 68 
3 48 68 67 
3 50 52 69 
3 50 69 68 
3 52 54 70 
3 52 70 69 
3 54 26 56 
3 54 56 70 
3 56 55 71 
3 56 71 72 
3 55 57 73 
3 55 73 71 
3 57 58 74 
3 57 74 73 
3 58 59 75 
3 58 75 74 
3 59 60 76 
3 59 76 75 
3 60 61 77 
3 60 77 76 
3 61 62 78 
3 61 78 77 
3 62 63 79 
3 62 79 78 
3 63 64 80 
3 63 80 79 
3 64 65 81 
3 64 81 80 
3 65 66 82 
3 65 82 81 
3 66 67 83 
3 66 83 82 
3 67 68 84 
3 67 84 83 
3 68 69 85 
3 68 85 84 
3 69 70 86 
3 69 86 85 
3 70 56 72 
3 70 72 86 
3 72 71 87 
3 72 87 88 
3 71 73 89 
3 71 89 87 
3 73 74 90 
3 73 90 89 
3 74 75 91 
3 74 91 90 
3 75 76 92 
3 75 92 91 
3 76 77 93 
3 76 93 92 
3 77 78 94 
3 77 94 93 
3 78 79 95 
3 78 95 94 
3 79 80 96 
3 79 96 95 
3 80 81 97 
3 80 97 96 
3 81 82 98 
3 81 98 97 
3 82 83 99 
3 82 99 98 
3 83 84 100 
3 83 100 99 
3 84 85 101 
3 84 101 100 
3 85 86 102 
3 85 102 101 
3 86 72 88 
3 86 88 102 
3 88 87 103 
3 88 103 104 
3 87 89 105 
3 87 105 103 
3 89 90 106 
3 89 106 105 
3 90 91 107 
3 90 107 106 
3 91 92 108 
3 91 108 107 
3 92 93 109 
3 92 109 108 
3 93 94 110 
3 93 110 109 
3 94 95 111 
3 94 111 110 
3 95 96 112 
3 95 112 111 
3 96 97 113 
3 96 113 112 
3 97 98 114 
3 97 114 113 
3 98 99 115 
3 98 115 114 
3 99 100 116 
3 99 116 115 
3 100 101 117 
3 100 117 116 
3 101 102 118 
3 101 118 117 
3 102 88 104 
3 102 104 118 
3 104 103 119 
3 104 119 120 
3 103 105 121 
3 103 121 119 
3 105 106 122 
3 105 122 121 
3 106 107 123 
3 106 123 122 
3 107 108 124 
3 107 124 123 
3 108 109 125 
3 108 125 124 
3 109 110 126 
3 109 126 125 
3 110 111 127 
3 110 127 126 
3 111 112 128 
3 111 128 127 
3 112 113 129 
3 112 129 128 
3 113 114 130 
3 113 130 129 
3 114 115 131 
3 114 131 130 
3 115 116 132 
3 115 132 131 
3 116 117 133 
3 116 133 132 
3 117 118 134 
3 117 134 133 
3 118 104 120 
3 118 120 134 
3 120 119 135 
3 120 135 136 
3 119 121 137 
3 119 137 135 
3 121 122 138 
3 121 138 137 
3 122 123 139 
3 122 139 138 
3 123 124 140 
3 123 140 139 
3 124 125 141 
3 124 141 140 
3 125 126 142 
3 125 142 141 
3 126 127 143 
3 126 143 142 
3 127 128 144 
3 127 144 143 
3 128 129 145 
3 128 145 144 
3 129 130 146 
3 129 146 145 
3 130 131 147 
3 130 147 146 
3 131 132 148 
3 131 148 147 
3 132 133 149 
3 132 149 148 
3 133 134 150 
3 133 150 149 
3 134 120 136 
3 134 136 150 
3 136 135 151 
3 136 151 152 
3 135 137 153 
3 135 153 151 
3 137 138 154 
3 137 154 153 
3 138 139 155 
3 138 155 154 
3 139 140 156 
3 139 156 155 
3 140 141 157 
3 140 157 156 
3 141 142 158 
3 141 158 157 
3 142 143 159 
3 142 159 158 
3 143 144 160 
3 143 160 159 
3 144 145 161 
3 144 161 160 
3 145 146 162 
3 145 162 161 
3 146 147 163 
3 146 163 162 
3 147 148 164 
3 147 164 163 
3 148 149 165 
3 148 165 164 
3 149 150 166 
3 149 166 165 
3 150 136 152 
3 150 152 166 
3 167 168 169 
3 167 169 170 
3 168 151 153 
3 168 153 171 
3 171 153 154 
3 171 154 172 
3 172 154 155 
3 172 155 173 
3 173 155 156 
3 173 156 174 
3 174 156 157 
3 174 157 0 
3 0 157 158 
3 0 158 1 
3 1 158 159 
3 1 159 175 
3 175 159 160 
3 175 160 176 
3 176 160 161 
3 176 161 177 
3 177 161 162 
3 177 162 178 
3 178 162 163 
3 178 163 179 
3 179 163 164 
3 179 164 180 
3 180 164 165 
3 180 165 181 
3 181 165 166 
3 181 166 182 
3 182 167 170 
3 182 170 183 
3 24 23 184 
3 24 184 185 
3 27 24 185 
3 27 185 186 
3 29 27 186 
3 29 186 187 
3 31 29 187 
3 31 187 188 
3 33 31 188 
3 33 188 189 
3 35 33 189 
3 35 189 190 
3 37 35 190 
3 37 190 191 
3 39 37 191 
3 39 191 192 
3 41 39 192 
3 41 192 193 
3 43 41 193 
3 43 193 194 
3 45 43 194 
3 45 194 195 
3 47 45 195 
3 47 195 196 
3 49 47 196 
3 49 196 197 
3 51 49 197 
3 51 197 198 
3 53 51 198 
3 53 198 199 
3 23 53 199 
3 23 199 184 
3 200 201 202 
3 200 202 203 
3 201 169 204 
3 201 204 205 
3 205 204 206 
3 205 206 207 
3 207 206 208 
3 207 208 209 
3 209 208 210 
3 209 210 211 
3 211 210 4 
3 211 4 6 
3 6 5 212 
3 6 212 213 
3 5 2 214 
3 5 214 215 
3 215 214 216 
3 215 216 217 
3 217 216 218 
3 217 218 219 
3 219 218 220 
3 219 220 221 
3 221 220 222 
3 221 222 223 
3 223 222 224 
3 223 224 225 
3 225 224 226 
3 225 226 227 
3 227 226 183 
3 227 183 228 
3 228 200 203 
3 228 203 229 
3 230 231 232 
3 230 232 233 
3 167 152 151 
3 167 151 168 
3 200 170 169 
3 200 169 201 
3 233 234 235 
3 233 235 230 
3 236 237 238 
3 236 238 230 
3 230 235 239 
3 230 239 240 
3 230 241 242 
3 230 242 236 
3 240 243 241 
3 240 241 230 
3 244 245 231 
3 244 231 230 
3 230 238 246 
3 230 246 244 
3 195 247 248 
3 195 248 196 
3 194 249 247 
3 194 247 195 
3 193 250 249 
3 193 249 194 
3 192 251 250 
3 192 250 193 
3 191 252 251 
3 191 251 192 
3 190 253 252 
3 190 252 191 
3 189 254 253 
3 189 253 190 
3 188 255 254 
3 188 254 189 
3 187 256 255 
3 187 255 188 
3 186 257 256 
3 186 256 187 
3 185 258 257 
3 185 257 186 
3 184 259 258 
3 184 258 185 
3 199 260 259 
3 199 259 184 
3 198 261 260 
3 198 260 199 
3 197 262 261 
3 197 261 198 
3 196 248 262 
3 196 262 197 
3 247 11 10 
3 247 10 248 
3 249 12 11 
3 249 11 247 
3 250 13 12 
3 250 12 249 
3 251 14 13 
3 251 13 250 
3 252 15 14 
3 252 14 251 
3 253 16 15 
3 253 15 252 
3 254 17 16 
3 254 16 253 
3 255 18 17 
3 255 17 254 
3 256 19 18 
3 256 18 255 
3 257 20 19 
3 257 19 256 
3 258 21 20 
3 258 20 257 
3 259 22 21 
3 259 21 258 
3 260 7 22 
3 260 22 259 
3 261 8 7 
3 261 7 260 
3 262 9 8 
3 262 8 261 
3 248 10 9 
3 248 9 262 
3 263 232 231 
3 263 231 264 
3 265 233 232 
3 265 232 263 
3 266 234 233 
3 266 233 265 
3 229 235 234 
3 229 234 266 
3 213 237 236 
3 213 236 267 
3 212 238 237 
3 212 237 213 
3 203 239 235 
3 203 235 229 
3 202 240 239 
3 202 239 203 
3 268 242 241 
3 268 241 269 
3 267 236 242 
3 267 242 268 
3 270 243 240 
3 270 240 202 
3 269 241 243 
3 269 243 270 
3 271 245 244 
3 271 244 272 
3 264 231 245 
3 264 245 271 
3 273 246 238 
3 273 238 212 
3 272 244 246 
3 272 246 273 
3 205 270 202 
3 205 202 201 
3 207 269 270 
3 207 270 205 
3 209 268 269 
3 209 269 207 
3 211 267 268 
3 211 268 209 
3 6 213 267 
3 6 267 211 
3 215 273 212 
3 215 212 5 
3 217 272 273 
3 217 273 215 
3 219 271 272 
3 219 272 217 
3 221 264 271 
3 221 271 219 
3 223 263 264 
3 223 264 221 
3 225 265 263 
3 225 263 223 
3 227 266 265 
3 227 265 225 
3 228 229 266 
3 228 266 227 
3 228 183 170 
3 228 170 200 
3 171 204 169 
3 171 169 168 
3 172 206 204 
3 172 204 171 
3 173 208 206 
3 173 206 172 
3 174 210 208 
3 174 208 173 
3 0 4 210 
3 0 210 174 
3 175 214 2 
3 175 2 1 
3 176 216 214 
3 176 214 175 
3 177 218 216 
3 177 216 176 
3 178 220 218 
3 178 218 177 
3 179 222 220 
3 179 220 178 
3 180 224 222 
3 180 222 179 
3 181 226 224 
3 181 224 180 
3 182 183 226 
3 182 226 181 
3 182 166 152 
3 182 152 167 
