ply
format ascii 1.0
comment VCGLIB generated
element vertex 925
property float x
property float y
property float z
element face 463
property list uchar int vertex_indices
end_header
-131.146 -2.76751e-05 169.868 
-131.146 -2.76751e-05 169.868 
-131.071 -2.7655e-05 169.745 
-131.071 -2.7655e-05 169.745 
-131.096 -2.76666e-05 169.816 
-131.074 -2.76403e-05 169.655 
-131.074 -2.76403e-05 169.655 
-131.221 -2.76804e-05 169.901 
-131.221 -2.76804e-05 169.901 
-131.105 -2.76224e-05 169.545 
-131.105 -2.76224e-05 169.545 
-131.32 -2.76825e-05 169.914 
-131.32 -2.76825e-05 169.914 
-131.164 -2.76014e-05 169.416 
-131.164 -2.76014e-05 169.416 
-131.441 -2.76816e-05 169.908 
-131.441 -2.76816e-05 169.908 
-131.254 -2.75772e-05 169.268 
-131.254 -2.75772e-05 169.268 
-131.584 -2.76774e-05 169.883 
-131.584 -2.76774e-05 169.883 
-131.53 -2.75194e-05 168.913 
-131.53 -2.75194e-05 168.913 
-131.929 -2.76598e-05 169.775 
-131.929 -2.76598e-05 169.775 
-132.581 -2.76099e-05 169.468 
-132.581 -2.76099e-05 169.468 
-132.197 -2.7409e-05 168.235 
-132.197 -2.7409e-05 168.235 
-133.654 -2.74995e-05 168.791 
-133.654 -2.74995e-05 168.791 
-134.061 -2.71617e-05 166.717 
-134.061 -2.71617e-05 166.717 
-134.894 -2.73392e-05 167.807 
-134.894 -2.73392e-05 167.807 
-136.984 -2.68353e-05 164.714 
-136.984 -2.68353e-05 164.714 
-136.232 -2.7129e-05 166.517 
-136.232 -2.7129e-05 166.517 
-137.598 -2.68692e-05 164.922 
-137.598 -2.68692e-05 164.922 
-138.633 -2.66853e-05 163.793 
-138.633 -2.66853e-05 163.793 
-138.633 -2.66853e-05 163.793 
-138.921 -2.65596e-05 163.022 
-138.921 -2.65596e-05 163.022 
-141.991 -2.64468e-05 162.33 
-141.991 -2.64468e-05 162.33 
-144.748 -2.49205e-05 152.961 
-144.748 -2.49205e-05 152.961 
-157.337 -2.56322e-05 157.329 
-157.337 -2.56322e-05 157.329 
-150.771 -2.3054e-05 141.504 
-155.759 -2.12775e-05 130.6 
-155.759 -2.12775e-05 130.6 
-156.848 -2.07661e-05 127.461 
-156.848 -2.07661e-05 127.461 
-158.171 -1.99025e-05 122.161 
-158.171 -1.99025e-05 122.161 
-159.138 -1.90695e-05 117.048 
-159.138 -1.90695e-05 117.048 
-159.84 -1.80904e-05 111.038 
-159.84 -1.80904e-05 111.038 
-159.84 -1.80904e-05 111.038 
-92.7002 9.93272e-06 -60.9666 
-92.7002 9.93272e-06 -60.9666 
-88.0496 9.66839e-06 -59.3442 
-155.874 -1.40904e-05 86.4861 
-155.874 -1.40904e-05 86.4861 
-155.874 -1.40904e-05 86.4861 
-97.3212 1.02632e-05 -62.9953 
-97.3212 1.02632e-05 -62.9953 
-157.404 -1.47204e-05 90.3534 
-157.404 -1.47204e-05 90.3534 
-100.806 1.05767e-05 -64.9196 
-100.806 1.05767e-05 -64.9196 
-104.066 1.09442e-05 -67.1753 
-104.066 1.09442e-05 -67.1753 
-106.683 1.13024e-05 -69.3734 
-106.683 1.13024e-05 -69.3734 
-109.897 1.18255e-05 -72.5841 
-109.897 1.18255e-05 -72.5841 
-158.143 -1.51198e-05 92.8047 
-158.143 -1.51198e-05 92.8047 
-113.167 1.24638e-05 -76.5023 
-113.167 1.24638e-05 -76.5023 
-116.036 1.31865e-05 -80.938 
-116.036 1.31865e-05 -80.938 
-116.036 1.31865e-05 -80.938 
-221.118 -2.2386e-05 137.404 
-221.118 -2.2386e-05 137.404 
-159.921 -1.76011e-05 108.035 
-159.921 -1.76011e-05 108.035 
-159.559 -1.65625e-05 101.66 
-159.559 -1.65625e-05 101.66 
-158.677 -1.55151e-05 95.231 
-158.677 -1.55151e-05 95.231 
-118.798 1.38762e-05 -85.1713 
-120.572 1.42247e-05 -87.3105 
-120.572 1.42247e-05 -87.3105 
-122.271 1.45267e-05 -89.1645 
-122.271 1.45267e-05 -89.1645 
-125.892 1.50892e-05 -92.6169 
-125.892 1.50892e-05 -92.6169 
-125.892 1.50892e-05 -92.6169 
-232.219 -2.15996e-05 132.578 
-232.219 -2.15996e-05 132.578 
-126.182 1.51245e-05 -92.8335 
-126.327 1.51378e-05 -92.9154 
-126.327 1.51378e-05 -92.9154 
-126.473 1.51484e-05 -92.9804 
-126.473 1.51484e-05 -92.9804 
-126.619 1.51563e-05 -93.0287 
-126.619 1.51563e-05 -93.0287 
-126.765 1.51615e-05 -93.0609 
-126.765 1.51615e-05 -93.0609 
-126.912 1.51642e-05 -93.0772 
-126.912 1.51642e-05 -93.0772 
-127.06 1.51643e-05 -93.0781 
-127.06 1.51643e-05 -93.0781 
-127.209 1.5162e-05 -93.064 
-127.209 1.5162e-05 -93.064 
-127.359 1.51574e-05 -93.0353 
-127.359 1.51574e-05 -93.0353 
-127.664 1.51411e-05 -92.9357 
-127.664 1.51411e-05 -92.9357 
-127.974 1.51162e-05 -92.7825 
-127.974 1.51162e-05 -92.7825 
-128.292 1.5083e-05 -92.5789 
-128.292 1.5083e-05 -92.5789 
-128.785 1.5019e-05 -92.1861 
-128.785 1.5019e-05 -92.1861 
-133.599 1.41432e-05 -86.8104 
-133.599 1.41432e-05 -86.8104 
-135.896 1.37709e-05 -84.5249 
-135.896 1.37709e-05 -84.5249 
-144.188 1.26844e-05 -77.8563 
-144.188 1.26844e-05 -77.8563 
-144.188 1.26844e-05 -77.8563 
-241.644 -2.0758e-05 127.412 
-241.644 -2.0758e-05 127.412 
-156.888 1.12577e-05 -69.0994 
-166.494 1.03601e-05 -63.59 
-166.494 1.03601e-05 -63.59 
-172.414 9.91836e-06 -60.8785 
-172.414 9.91836e-06 -60.8785 
-174.969 9.76661e-06 -59.947 
-174.969 9.76661e-06 -59.947 
-177.706 9.63084e-06 -59.1137 
-177.706 9.63084e-06 -59.1137 
-184.63 9.38139e-06 -57.5826 
-184.63 9.38139e-06 -57.5826 
-192.001 9.23563e-06 -56.6879 
-192.001 9.23563e-06 -56.6879 
-199.441 9.2052e-06 -56.5011 
-199.441 9.2052e-06 -56.5011 
-205.586 9.27973e-06 -56.9585 
-205.586 9.27973e-06 -56.9585 
-210.362 9.41838e-06 -57.8096 
-210.362 9.41838e-06 -57.8096 
-213.857 9.58245e-06 -58.8167 
-213.857 9.58245e-06 -58.8167 
-213.857 9.58245e-06 -58.8167 
-287.624 -1.5644e-05 96.022 
-287.624 -1.5644e-05 96.022 
-216.243 9.73794e-06 -59.771 
-218.393 9.92224e-06 -60.9023 
-218.393 9.92224e-06 -60.9023 
-219.68 1.00616e-05 -61.7575 
-219.68 1.00616e-05 -61.7575 
-220.86 1.02186e-05 -62.7214 
-220.86 1.02186e-05 -62.7214 
-221.415 1.0305e-05 -63.2519 
-221.415 1.0305e-05 -63.2519 
-222.459 1.04926e-05 -64.4033 
-222.459 1.04926e-05 -64.4033 
-223.862 1.08075e-05 -66.3359 
-223.862 1.08075e-05 -66.3359 
-225.081 1.11572e-05 -68.4823 
-225.081 1.11572e-05 -68.4823 
-226.436 1.16673e-05 -71.6133 
-226.436 1.16673e-05 -71.6133 
-227.502 1.22144e-05 -74.9716 
-227.502 1.22144e-05 -74.9716 
-227.502 1.22144e-05 -74.9716 
-303.233 -1.35046e-05 82.8908 
-303.233 -1.35046e-05 82.8908 
-228.468 1.29288e-05 -79.3562 
-229.216 1.39359e-05 -85.5379 
-229.216 1.39359e-05 -85.5379 
-229.376 1.48822e-05 -91.3466 
-229.376 1.48822e-05 -91.3466 
-229.376 1.48822e-05 -91.3466 
-309.481 -1.25086e-05 76.7775 
-309.481 -1.25086e-05 76.7775 
-229.074 1.56916e-05 -96.3144 
-228.646 1.61436e-05 -99.0889 
-228.646 1.61436e-05 -99.0889 
-226.511 1.77617e-05 -109.02 
-226.511 1.77617e-05 -109.02 
-224.373 1.90995e-05 -117.232 
-224.373 1.90995e-05 -117.232 
-223.587 1.9456e-05 -119.42 
-223.587 1.9456e-05 -119.42 
-223.587 1.9456e-05 -119.42 
-217.415 2.25339e-05 -138.312 
-217.415 2.25339e-05 -138.312 
-217.415 2.25339e-05 -138.312 
-218.765 2.12246e-05 -130.275 
-218.765 2.12246e-05 -130.275 
-316.117 -1.12943e-05 69.324 
-321.903 -1.00062e-05 61.4179 
-321.903 -1.00062e-05 61.4179 
-326.991 -8.61718e-06 52.8919 
-326.991 -8.61718e-06 52.8919 
-326.991 -8.61718e-06 52.8919 
-245.096 2.02661e-05 -124.392 
-245.096 2.02661e-05 -124.392 
-332.002 -6.92052e-06 42.4778 
-332.002 -6.92052e-06 42.4778 
-264.28 1.83907e-05 -112.881 
-264.28 1.83907e-05 -112.881 
-335.969 -5.20038e-06 31.9197 
-335.969 -5.20038e-06 31.9197 
-271.122 1.75752e-05 -107.876 
-271.122 1.75752e-05 -107.876 
-338.84 -3.51816e-06 21.5943 
-340.389 -2.15296e-06 13.2148 
-340.389 -2.15296e-06 13.2148 
-340.389 -2.15296e-06 13.2148 
-292.208 1.46123e-05 -89.6894 
-292.208 1.46123e-05 -89.6894 
-341.062 -8.9937e-07 5.5203 
-341.087 -5.12991e-07 3.14872 
-341.087 -5.12991e-07 3.14872 
-340.932 3.21402e-08 -0.197275 
-340.932 3.21402e-08 -0.197275 
-340.932 3.21402e-08 -0.197275 
-309.849 1.17707e-05 -72.2483 
-309.849 1.17707e-05 -72.2483 
-339.157 2.33991e-06 -14.3622 
-339.157 2.33991e-06 -14.3622 
-315.563 1.06618e-05 -65.4418 
-315.563 1.06618e-05 -65.4418 
-336.968 3.94821e-06 -24.2339 
-336.968 3.94821e-06 -24.2339 
-322.893 9.01564e-06 -55.3376 
-322.893 9.01564e-06 -55.3376 
-334.671 5.13234e-06 -31.5021 
-334.671 5.13234e-06 -31.5021 
-327.673 7.73512e-06 -47.4778 
-331.99 6.24279e-06 -38.318 
122.904 1.41373e-05 -86.7742 
122.904 1.41373e-05 -86.7742 
122.904 1.41373e-05 -86.7742 
123.535 1.43556e-05 -88.1141 
123.535 1.43556e-05 -88.1141 
123.535 1.43556e-05 -88.1141 
15.0757 -2.31726e-05 142.233 
15.0757 -2.31726e-05 142.233 
15.0757 -2.31726e-05 142.233 
15.0308 -2.3173e-05 142.235 
14.9881 -2.31741e-05 142.242 
14.9881 -2.31741e-05 142.242 
14.9474 -2.3176e-05 142.253 
14.9474 -2.3176e-05 142.253 
14.9474 -2.3176e-05 142.253 
122.298 1.39728e-05 -85.7642 
122.298 1.39728e-05 -85.7642 
14.9087 -2.31784e-05 142.268 
14.8718 -2.31815e-05 142.287 
14.8718 -2.31815e-05 142.287 
14.8028 -2.31891e-05 142.334 
14.8028 -2.31891e-05 142.334 
14.7397 -2.31983e-05 142.39 
14.7397 -2.31983e-05 142.39 
14.6536 -2.32138e-05 142.486 
14.6536 -2.32138e-05 142.486 
14.4514 -2.32533e-05 142.728 
14.4514 -2.32533e-05 142.728 
14.4514 -2.32533e-05 142.728 
121.56 1.38108e-05 -84.7701 
121.56 1.38108e-05 -84.7701 
14.4019 -2.32599e-05 142.768 
14.3766 -2.32624e-05 142.784 
14.3766 -2.32624e-05 142.784 
14.3507 -2.32642e-05 142.795 
14.3507 -2.32642e-05 142.795 
14.3084 -2.32672e-05 142.813 
14.3084 -2.32672e-05 142.813 
14.2943 -2.32687e-05 142.822 
14.2943 -2.32687e-05 142.822 
14.2847 -2.32702e-05 142.832 
14.2847 -2.32702e-05 142.832 
14.2793 -2.32717e-05 142.841 
14.2793 -2.32717e-05 142.841 
13.8853 -2.33701e-05 143.445 
13.8853 -2.33701e-05 143.445 
13.8853 -2.33701e-05 143.445 
120.669 1.36544e-05 -83.8101 
120.669 1.36544e-05 -83.8101 
12.0919 -2.3395e-05 143.597 
9.33518 -2.34041e-05 143.653 
9.33518 -2.34041e-05 143.653 
9.33518 -2.34041e-05 143.653 
110.531 1.21147e-05 -74.3592 
99.9734 1.06385e-05 -65.2985 
99.9734 1.06385e-05 -65.2985 
96.5877 1.02411e-05 -62.8596 
96.5877 1.02411e-05 -62.8596 
96.5877 1.02411e-05 -62.8596 
-1.82491 -2.32888e-05 142.945 
-1.82491 -2.32888e-05 142.945 
93.778 9.97056e-06 -61.1989 
90.7542 9.73864e-06 -59.7753 
90.7542 9.73864e-06 -59.7753 
83.9581 9.35471e-06 -57.4188 
83.9581 9.35471e-06 -57.4188 
82.4577 9.2917e-06 -57.032 
82.4577 9.2917e-06 -57.032 
80.8249 9.24934e-06 -56.772 
80.8249 9.24934e-06 -56.772 
80.8249 9.24934e-06 -56.772 
-14.131 -2.31551e-05 142.125 
-14.284 -2.31557e-05 142.129 
-14.284 -2.31557e-05 142.129 
-14.4356 -2.31587e-05 142.147 
-14.4356 -2.31587e-05 142.147 
-14.5858 -2.3164e-05 142.18 
-14.5858 -2.3164e-05 142.18 
-14.8826 -2.31814e-05 142.286 
-14.8826 -2.31814e-05 142.286 
-14.8826 -2.31814e-05 142.286 
78.6151 9.22669e-06 -56.633 
78.6151 9.22669e-06 -56.633 
-15.1746 -2.32072e-05 142.445 
-15.462 -2.32411e-05 142.653 
-15.462 -2.32411e-05 142.653 
-15.7452 -2.32823e-05 142.906 
-15.7452 -2.32823e-05 142.906 
-16.1627 -2.3357e-05 143.364 
-16.1627 -2.3357e-05 143.364 
-16.7073 -2.34774e-05 144.103 
-16.7073 -2.34774e-05 144.103 
-18.7921 -2.41148e-05 148.016 
-18.7921 -2.41148e-05 148.016 
-20.8395 -2.47926e-05 152.176 
-20.8395 -2.47926e-05 152.176 
-27.3068 -2.67308e-05 164.072 
-27.3068 -2.67308e-05 164.072 
-27.3068 -2.67308e-05 164.072 
76.2385 9.23923e-06 -56.71 
76.2385 9.23923e-06 -56.71 
-34.5123 -2.89993e-05 177.996 
-34.6463 -2.90197e-05 178.122 
-34.6463 -2.90197e-05 178.122 
-34.7752 -2.90166e-05 178.103 
-34.7752 -2.90166e-05 178.103 
-34.8991 -2.89908e-05 177.945 
-34.8991 -2.89908e-05 177.945 
-35.0182 -2.89432e-05 177.652 
-35.0182 -2.89432e-05 177.652 
-35.1328 -2.88747e-05 177.231 
-35.1328 -2.88747e-05 177.231 
-35.1328 -2.88747e-05 177.231 
73.198 9.30299e-06 -57.1014 
69.9882 9.42255e-06 -57.8352 
69.9882 9.42255e-06 -57.8352 
66.6478 9.60069e-06 -58.9286 
66.6478 9.60069e-06 -58.9286 
62.6371 9.88632e-06 -60.6818 
62.6371 9.88632e-06 -60.6818 
62.6371 9.88632e-06 -60.6818 
-36.922 -2.38276e-05 146.253 
-36.922 -2.38276e-05 146.253 
58.5624 1.02599e-05 -62.9751 
55.8246 1.06158e-05 -65.1594 
55.8246 1.06158e-05 -65.1594 
52.3878 1.11783e-05 -68.6117 
52.3878 1.11783e-05 -68.6117 
52.3878 1.11783e-05 -68.6117 
-38.9508 -1.82231e-05 111.853 
-42.1903 -1.60733e-05 98.657 
-42.1903 -1.60733e-05 98.657 
-44.4423 -1.50167e-05 92.1721 
-44.4423 -1.50167e-05 92.1721 
-44.4423 -1.50167e-05 92.1721 
38.3221 1.39576e-05 -85.6714 
38.3221 1.39576e-05 -85.6714 
-46.1932 -1.4387e-05 88.3065 
-47.1536 -1.40994e-05 86.5417 
-47.1536 -1.40994e-05 86.5417 
-48.1752 -1.38323e-05 84.9023 
-48.1752 -1.38323e-05 84.9023 
-57.9917 -1.15027e-05 70.603 
-57.9917 -1.15027e-05 70.603 
-59.5843 -1.12036e-05 68.7675 
-59.5843 -1.12036e-05 68.7675 
-61.4373 -1.09117e-05 66.9752 
-61.4373 -1.09117e-05 66.9752 
-65.9072 -1.03415e-05 63.4758 
-65.9072 -1.03415e-05 63.4758 
-65.9072 -1.03415e-05 63.4758 
17.534 1.87435e-05 -115.046 
17.534 1.87435e-05 -115.046 
-70.1007 -9.89805e-06 60.7538 
-70.1007 -9.89805e-06 60.7538 
14.7298 1.95146e-05 -119.78 
14.2978 1.96652e-05 -120.704 
14.2978 1.96652e-05 -120.704 
14.2978 1.96652e-05 -120.704 
-72.2041 -9.70709e-06 59.5817 
-74.5834 -9.51482e-06 58.4016 
-74.5834 -9.51482e-06 58.4016 
-76.961 -9.35898e-06 57.445 
-76.961 -9.35898e-06 57.445 
-76.961 -9.35898e-06 57.445 
7.33398 2.235e-05 -137.183 
7.33398 2.235e-05 -137.183 
-84.7786 -8.9992e-06 55.2367 
-84.7786 -8.9992e-06 55.2367 
5.4446 2.35226e-05 -144.381 
5.4446 2.35226e-05 -144.381 
-92.7637 -8.71663e-06 53.5023 
-92.7637 -8.71663e-06 53.5023 
3.56857 2.48906e-05 -152.777 
2.75908 2.53352e-05 -155.506 
2.75908 2.53352e-05 -155.506 
2.35164 2.5495e-05 -156.487 
2.35164 2.5495e-05 -156.487 
2.35164 2.5495e-05 -156.487 
-15.9746 1.93051e-05 -118.494 
-15.9746 1.93051e-05 -118.494 
-15.9746 1.93051e-05 -118.494 
-97.0679 -8.59744e-06 52.7707 
-98.9578 -8.57688e-06 52.6445 
-98.9578 -8.57688e-06 52.6445 
-100.818 -8.5857e-06 52.6986 
-100.818 -8.5857e-06 52.6986 
-100.818 -8.5857e-06 52.6986 
-39.368 1.28747e-05 -79.0242 
-40.8953 1.25234e-05 -76.8679 
-40.8953 1.25234e-05 -76.8679 
-41.9548 1.23062e-05 -75.535 
-41.9548 1.23062e-05 -75.535 
-41.9548 1.23062e-05 -75.535 
-103.117 -8.63021e-06 52.9718 
-103.117 -8.63021e-06 52.9718 
-44.7206 1.18192e-05 -72.5459 
-47.6054 1.14055e-05 -70.0067 
-47.6054 1.14055e-05 -70.0067 
-47.6054 1.14055e-05 -70.0067 
-106.254 -8.72192e-06 53.5348 
-106.254 -8.72192e-06 53.5348 
-50.5494 1.10569e-05 -67.8669 
-54.656 1.06626e-05 -65.4464 
-54.656 1.06626e-05 -65.4464 
-66.0978 9.87277e-06 -60.5987 
-66.0978 9.87277e-06 -60.5987 
-66.0978 9.87277e-06 -60.5987 
-122.938 -9.35551e-06 57.4237 
-122.938 -9.35551e-06 57.4237 
-70.3934 9.60082e-06 -58.9294 
-74.4243 9.40863e-06 -57.7498 
-74.4243 9.40863e-06 -57.7498 
-74.4243 9.40863e-06 -57.7498 
-129.791 -9.73146e-06 59.7313 
-129.791 -9.73146e-06 59.7313 
-76.3962 9.35333e-06 -57.4103 
-76.3962 9.35333e-06 -57.4103 
-133.439 -9.99393e-06 61.3423 
-133.439 -9.99393e-06 61.3423 
-78.039 9.33227e-06 -57.2811 
-78.039 9.33227e-06 -57.2811 
-135.05 -1.01354e-05 62.2108 
-135.05 -1.01354e-05 62.2108 
-79.6953 9.33664e-06 -57.3079 
-79.6953 9.33664e-06 -57.3079 
-136.482 -1.02837e-05 63.121 
-136.482 -1.02837e-05 63.121 
-81.3778 9.36896e-06 -57.5063 
-81.3778 9.36896e-06 -57.5063 
-139.973 -1.07234e-05 65.8199 
-139.973 -1.07234e-05 65.8199 
-83.0995 9.43175e-06 -57.8917 
-83.0995 9.43175e-06 -57.8917 
-144.057 -1.13436e-05 69.6264 
-148.342 -1.21214e-05 74.4009 
-148.342 -1.21214e-05 74.4009 
-151.215 -1.27357e-05 78.1712 
-151.215 -1.27357e-05 78.1712 
-153.286 -1.32627e-05 81.4059 
-153.286 -1.32627e-05 81.4059 
15.1074 -2.33323e-05 143.212 
15.1074 -2.33323e-05 143.212 
15.1154 -2.33294e-05 143.195 
15.1154 -2.33294e-05 143.195 
15.1134 -2.33308e-05 143.204 
15.0971 -2.33337e-05 143.221 
15.0971 -2.33337e-05 143.221 
15.1136 -2.33279e-05 143.186 
15.1081 -2.33264e-05 143.177 
15.1081 -2.33264e-05 143.177 
15.1081 -2.33264e-05 143.177 
15.0823 -2.33351e-05 143.23 
15.0823 -2.33351e-05 143.23 
15.0991 -2.33249e-05 143.167 
15.0991 -2.33249e-05 143.167 
15.0628 -2.33365e-05 143.238 
15.0628 -2.33365e-05 143.238 
15.087 -2.33234e-05 143.158 
15.087 -2.33234e-05 143.158 
15.0384 -2.33379e-05 143.247 
15.0384 -2.33379e-05 143.247 
15.054 -2.33204e-05 143.14 
15.054 -2.33204e-05 143.14 
14.974 -2.33406e-05 143.264 
14.974 -2.33406e-05 143.264 
14.4118 -2.32873e-05 142.937 
14.3424 -2.32826e-05 142.908 
14.3424 -2.32826e-05 142.908 
14.3424 -2.32826e-05 142.908 
14.3085 -2.32795e-05 142.888 
14.3085 -2.32795e-05 142.888 
14.2959 -2.32779e-05 142.879 
14.2959 -2.32779e-05 142.879 
14.2865 -2.32763e-05 142.869 
14.2865 -2.32763e-05 142.869 
14.2804 -2.32748e-05 142.86 
14.2804 -2.32748e-05 142.86 
14.2779 -2.32733e-05 142.85 
14.2779 -2.32733e-05 142.85 
223.766 1.09426e-05 -67.1653 
223.766 1.09426e-05 -67.1653 
225.363 1.13885e-05 -69.9023 
225.363 1.13885e-05 -69.9023 
154.162 -1.36661e-05 83.8819 
154.162 -1.36661e-05 83.8819 
222.398 1.06379e-05 -65.2948 
222.398 1.06379e-05 -65.2948 
220.88 1.03629e-05 -63.607 
220.88 1.03629e-05 -63.607 
219.097 1.01162e-05 -62.0927 
219.097 1.01162e-05 -62.0927 
217.711 9.96518e-06 -61.1658 
217.711 9.96518e-06 -61.1658 
215.37 9.75898e-06 -59.9002 
215.37 9.75898e-06 -59.9002 
215.37 9.75898e-06 -59.9002 
150.278 -1.26308e-05 77.5272 
150.278 -1.26308e-05 77.5272 
211.826 9.52221e-06 -58.4469 
211.826 9.52221e-06 -58.4469 
146.859 -1.18911e-05 72.9871 
146.859 -1.18911e-05 72.9871 
206.865 9.28806e-06 -57.0097 
206.865 9.28806e-06 -57.0097 
143.353 -1.12695e-05 69.1716 
143.353 -1.12695e-05 69.1716 
200.403 9.09862e-06 -55.847 
200.403 9.09862e-06 -55.847 
139.823 -1.07532e-05 66.0029 
139.823 -1.07532e-05 66.0029 
193.719 9.01018e-06 -55.3041 
193.719 9.01018e-06 -55.3041 
137.391 -1.04484e-05 64.1321 
134.768 -1.01577e-05 62.3475 
134.768 -1.01577e-05 62.3475 
134.768 -1.01577e-05 62.3475 
187.165 9.02392e-06 -55.3884 
187.165 9.02392e-06 -55.3884 
130.37 -9.74816e-06 59.8338 
130.37 -9.74816e-06 59.8338 
182.057 9.11427e-06 -55.943 
182.057 9.11427e-06 -55.943 
125.914 -9.41982e-06 57.8185 
125.914 -9.41982e-06 57.8185 
178.35 9.23869e-06 -56.7067 
175.859 9.36264e-06 -57.4675 
175.859 9.36264e-06 -57.4675 
175.859 9.36264e-06 -57.4675 
120.87 -9.13378e-06 56.0628 
120.87 -9.13378e-06 56.0628 
173.665 9.51303e-06 -58.3906 
173.665 9.51303e-06 -58.3906 
114.165 -8.86342e-06 54.4033 
107.036 -8.67403e-06 53.2408 
107.036 -8.67403e-06 53.2408 
107.036 -8.67403e-06 53.2408 
161.732 1.0553e-05 -64.7737 
161.732 1.0553e-05 -64.7737 
103.262 -8.62104e-06 52.9156 
98.9537 -8.62523e-06 52.9413 
98.9537 -8.62523e-06 52.9413 
94.112 -8.70386e-06 53.4239 
94.112 -8.70386e-06 53.4239 
94.112 -8.70386e-06 53.4239 
151.563 1.15811e-05 -71.0842 
151.563 1.15811e-05 -71.0842 
87.1195 -8.93548e-06 54.8456 
87.1195 -8.93548e-06 54.8456 
144.218 1.24555e-05 -76.4511 
144.218 1.24555e-05 -76.4511 
80.1182 -9.27877e-06 56.9527 
75.2025 -9.59342e-06 58.884 
75.2025 -9.59342e-06 58.884 
70.7553 -9.95756e-06 61.1191 
70.7553 -9.95756e-06 61.1191 
66.2741 -1.04124e-05 63.9107 
66.2741 -1.04124e-05 63.9107 
66.2741 -1.04124e-05 63.9107 
134.733 1.38754e-05 -85.1665 
134.733 1.38754e-05 -85.1665 
61.7961 -1.09686e-05 67.325 
57.3589 -1.16371e-05 71.4279 
57.3589 -1.16371e-05 71.4279 
55.1672 -1.20167e-05 73.7582 
55.1672 -1.20167e-05 73.7582 
52.4623 -1.25366e-05 76.9489 
52.4623 -1.25366e-05 76.9489 
50.418 -1.30046e-05 79.8217 
50.418 -1.30046e-05 79.8217 
48.1388 -1.36676e-05 83.891 
48.1388 -1.36676e-05 83.891 
48.1388 -1.36676e-05 83.891 
17.4055 -2.36475e-05 145.147 
16.3945 -2.33726e-05 143.46 
16.3945 -2.33726e-05 143.46 
16.3945 -2.33726e-05 143.46 
127.556 1.50892e-05 -92.6169 
127.108 1.5159e-05 -93.0452 
127.108 1.5159e-05 -93.0452 
127.108 1.5159e-05 -93.0452 
15.9126 -2.3268e-05 142.818 
15.671 -2.3226e-05 142.56 
15.671 -2.3226e-05 142.56 
15.671 -2.3226e-05 142.56 
126.716 1.52114e-05 -93.3671 
126.716 1.52114e-05 -93.3671 
15.5277 -2.32055e-05 142.434 
15.3975 -2.31904e-05 142.342 
15.3975 -2.31904e-05 142.342 
15.3975 -2.31904e-05 142.342 
126.376 1.52474e-05 -93.5879 
126.376 1.52474e-05 -93.5879 
15.2795 -2.31803e-05 142.279 
15.2247 -2.31769e-05 142.259 
15.2247 -2.31769e-05 142.259 
15.1725 -2.31745e-05 142.244 
15.1725 -2.31745e-05 142.244 
15.1725 -2.31745e-05 142.244 
126.224 1.52595e-05 -93.662 
126.224 1.52595e-05 -93.662 
15.1229 -2.31731e-05 142.236 
126.082 1.52678e-05 -93.7129 
126.082 1.52678e-05 -93.7129 
124.104 1.46168e-05 -89.7172 
124.104 1.46168e-05 -89.7172 
125.95 1.52724e-05 -93.7412 
125.828 1.52734e-05 -93.7477 
125.828 1.52734e-05 -93.7477 
125.714 1.5271e-05 -93.7329 
125.714 1.5271e-05 -93.7329 
125.608 1.52653e-05 -93.6975 
125.608 1.52653e-05 -93.6975 
125.51 1.52563e-05 -93.6423 
125.51 1.52563e-05 -93.6423 
125.418 1.52441e-05 -93.5679 
125.418 1.52441e-05 -93.5679 
125.332 1.5229e-05 -93.475 
125.332 1.5229e-05 -93.475 
125.251 1.5211e-05 -93.3642 
125.251 1.5211e-05 -93.3642 
125.103 1.51666e-05 -93.0919 
36.4554 -2.91886e-05 179.159 
36.5321 -2.9165e-05 179.014 
36.5321 -2.9165e-05 179.014 
36.4958 -2.91794e-05 179.102 
36.4108 -2.91926e-05 179.183 
36.4108 -2.91926e-05 179.183 
36.4108 -2.91926e-05 179.183 
36.5934 -2.9122e-05 178.749 
36.5934 -2.9122e-05 178.749 
36.362 -2.91912e-05 179.174 
36.3087 -2.9184e-05 179.13 
36.3087 -2.9184e-05 179.13 
36.2509 -2.91709e-05 179.05 
36.2509 -2.91709e-05 179.05 
36.2509 -2.91709e-05 179.05 
36.6588 -2.90246e-05 178.152 
36.6588 -2.90246e-05 178.152 
36.1883 -2.91517e-05 178.932 
36.0485 -2.90941e-05 178.579 
36.0485 -2.90941e-05 178.579 
35.5498 -2.88972e-05 177.37 
35.5498 -2.88972e-05 177.37 
35.5498 -2.88972e-05 177.37 
36.3252 -2.6798e-05 164.485 
36.3252 -2.6798e-05 164.485 
31.2998 -2.76957e-05 169.995 
31.2998 -2.76957e-05 169.995 
35.9352 -2.49864e-05 153.365 
36.6034 -2.29209e-05 140.688 
36.6034 -2.29209e-05 140.688 
36.6034 -2.29209e-05 140.688 
26.1352 -2.63104e-05 161.492 
26.1352 -2.63104e-05 161.492 
38.4666 -1.99268e-05 122.31 
40.29 -1.79378e-05 110.102 
40.29 -1.79378e-05 110.102 
43.2236 -1.58259e-05 97.139 
43.2236 -1.58259e-05 97.139 
43.2236 -1.58259e-05 97.139 
45.7819 -1.45518e-05 89.3181 
45.7819 -1.45518e-05 89.3181 
151.475 -2.31353e-05 142.004 
151.475 -2.31353e-05 142.004 
151.689 -2.30439e-05 141.442 
151.689 -2.30439e-05 141.442 
272.671 1.75865e-05 -107.945 
272.671 1.75865e-05 -107.945 
272.671 1.75865e-05 -107.945 
154.985 -2.14418e-05 131.609 
154.985 -2.14418e-05 131.609 
157.818 -2.00038e-05 122.782 
157.818 -2.00038e-05 122.782 
160.513 -1.8212e-05 111.785 
160.513 -1.8212e-05 111.785 
160.769 -1.77952e-05 109.226 
160.769 -1.77952e-05 109.226 
160.763 -1.72651e-05 105.972 
160.763 -1.72651e-05 105.972 
160.358 -1.66171e-05 101.995 
160.358 -1.66171e-05 101.995 
160.358 -1.66171e-05 101.995 
262.08 1.8858e-05 -115.75 
262.08 1.8858e-05 -115.75 
159.421 -1.58565e-05 97.3263 
157.833 -1.50021e-05 92.0821 
157.833 -1.50021e-05 92.0821 
157.833 -1.50021e-05 92.0821 
255.19 1.95735e-05 -120.141 
255.19 1.95735e-05 -120.141 
156.262 -1.43583e-05 88.1308 
156.262 -1.43583e-05 88.1308 
252.453 1.98021e-05 -121.544 
252.453 1.98021e-05 -121.544 
226.711 1.18713e-05 -72.8653 
226.711 1.18713e-05 -72.8653 
228.06 1.25124e-05 -76.8004 
228.06 1.25124e-05 -76.8004 
229.21 1.33133e-05 -81.7163 
229.21 1.33133e-05 -81.7163 
229.879 1.41192e-05 -86.6633 
229.879 1.41192e-05 -86.6633 
230.098 1.48992e-05 -91.4504 
230.098 1.48992e-05 -91.4504 
230.098 1.48992e-05 -91.4504 
244.622 2.03181e-05 -124.712 
244.622 2.03181e-05 -124.712 
229.902 1.56219e-05 -95.8868 
229.657 1.59522e-05 -97.9138 
229.657 1.59522e-05 -97.9138 
229.188 1.63515e-05 -100.365 
229.188 1.63515e-05 -100.365 
229.188 1.63515e-05 -100.365 
238.989 2.07246e-05 -127.207 
238.989 2.07246e-05 -127.207 
225.63 1.85845e-05 -114.071 
225.63 1.85845e-05 -114.071 
227.957 2.17597e-05 -133.56 
227.957 2.17597e-05 -133.56 
221.791 2.05056e-05 -125.863 
220.138 2.11249e-05 -129.664 
220.138 2.11249e-05 -129.664 
220.138 2.11249e-05 -129.664 
221.637 2.21213e-05 -135.779 
221.637 2.21213e-05 -135.779 
217.777 2.18345e-05 -134.019 
215.866 2.23062e-05 -136.914 
215.866 2.23062e-05 -136.914 
215.866 2.23062e-05 -136.914 
214.824 2.24527e-05 -137.814 
214.824 2.24527e-05 -137.814 
214.824 2.24527e-05 -137.814 
214.737 2.25348e-05 -138.318 
214.737 2.25348e-05 -138.318 
213.837 2.25206e-05 -138.23 
213.837 2.25206e-05 -138.23 
214.092 2.26389e-05 -138.956 
214.092 2.26389e-05 -138.956 
213.464 2.25536e-05 -138.433 
213.464 2.25536e-05 -138.433 
213.81 2.26744e-05 -139.175 
213.81 2.26744e-05 -139.175 
213.182 2.2586e-05 -138.632 
213.182 2.2586e-05 -138.632 
213.56 2.26982e-05 -139.321 
213.56 2.26982e-05 -139.321 
213.446 2.27054e-05 -139.365 
213.446 2.27054e-05 -139.365 
213.077 2.26019e-05 -138.729 
213.077 2.26019e-05 -138.729 
213.342 2.27095e-05 -139.39 
213.342 2.27095e-05 -139.39 
212.999 2.26177e-05 -138.826 
212.999 2.26177e-05 -138.826 
213.247 2.27103e-05 -139.395 
213.247 2.27103e-05 -139.395 
212.947 2.26333e-05 -138.922 
212.947 2.26333e-05 -138.922 
213.161 2.27077e-05 -139.379 
213.161 2.27077e-05 -139.379 
212.923 2.26487e-05 -139.017 
212.923 2.26487e-05 -139.017 
213.085 2.27017e-05 -139.342 
213.085 2.27017e-05 -139.342 
213.019 2.26921e-05 -139.283 
213.019 2.26921e-05 -139.283 
212.928 2.26639e-05 -139.11 
212.963 2.2679e-05 -139.203 
323.927 -9.52773e-06 58.4808 
323.927 -9.52773e-06 58.4808 
332.072 -6.93608e-06 42.5734 
332.072 -6.93608e-06 42.5734 
328.721 -8.14361e-06 49.9851 
334.278 -5.90712e-06 36.2576 
337.627 -4.07148e-06 24.9906 
337.627 -4.07148e-06 24.9906 
337.627 -4.07148e-06 24.9906 
317.377 -1.10771e-05 67.9907 
317.377 -1.10771e-05 67.9907 
339.951 -2.47173e-06 15.1713 
339.951 -2.47173e-06 15.1713 
311.245 -1.23098e-05 75.557 
311.245 -1.23098e-05 75.557 
340.657 -1.57953e-06 9.69506 
340.657 -1.57953e-06 9.69506 
304.35 -1.35232e-05 83.0051 
304.35 -1.35232e-05 83.0051 
340.825 -7.71592e-07 4.736 
340.519 9.03545e-08 -0.554592 
340.519 9.03545e-08 -0.554592 
340.519 9.03545e-08 -0.554592 
297.347 -1.45697e-05 89.4281 
297.347 -1.45697e-05 89.4281 
338.853 2.36223e-06 -14.4993 
335.92 4.70406e-06 -28.8733 
335.92 4.70406e-06 -28.8733 
335.92 4.70406e-06 -28.8733 
270.354 -1.76787e-05 108.511 
270.354 -1.76787e-05 108.511 
333.518 5.91488e-06 -36.3053 
331.121 6.82172e-06 -41.8714 
331.121 6.82172e-06 -41.8714 
325.627 8.54849e-06 -52.4702 
325.627 8.54849e-06 -52.4702 
325.627 8.54849e-06 -52.4702 
237.511 -2.09148e-05 128.374 
230.71 -2.15087e-05 132.02 
230.71 -2.15087e-05 132.02 
230.71 -2.15087e-05 132.02 
319.697 1.01524e-05 -62.315 
314.186 1.13976e-05 -69.9582 
314.186 1.13976e-05 -69.9582 
314.186 1.13976e-05 -69.9582 
213.27 -2.27058e-05 139.367 
213.27 -2.27058e-05 139.367 
309.242 1.23238e-05 -75.643 
296.149 1.43691e-05 -88.1967 
296.149 1.43691e-05 -88.1967 
296.149 1.43691e-05 -88.1967 
165.413 -2.52843e-05 155.194 
165.413 -2.52843e-05 155.194 
282.601 1.62752e-05 -99.8964 
151.121 -2.32544e-05 142.735 
151.121 -2.32544e-05 142.735 
151.121 -2.32544e-05 142.735 
137.891 -2.68353e-05 164.714 
137.891 -2.68353e-05 164.714 
139.654 -2.61714e-05 160.639 
139.654 -2.61714e-05 160.639 
137.444 -2.68949e-05 165.08 
137.294 -2.69094e-05 165.169 
137.294 -2.69094e-05 165.169 
137.192 -2.69143e-05 165.199 
137.192 -2.69143e-05 165.199 
137.134 -2.69098e-05 165.171 
137.134 -2.69098e-05 165.171 
137.12 -2.68964e-05 165.089 
137.12 -2.68964e-05 165.089 
137.146 -2.68744e-05 164.954 
137.146 -2.68744e-05 164.954 
137.146 -2.68744e-05 164.954 
137.457 -2.67606e-05 164.255 
137.213 -2.68441e-05 164.768 
2.07875 2.5573e-05 -156.966 
2.07875 2.5573e-05 -156.966 
-5.88388 2.28399e-05 -140.19 
-5.88388 2.28399e-05 -140.19 
1.9419 2.56025e-05 -157.147 
1.80474 2.56253e-05 -157.287 
1.80474 2.56253e-05 -157.287 
1.66727 2.56411e-05 -157.384 
1.66727 2.56411e-05 -157.384 
1.52947 2.56496e-05 -157.436 
1.52947 2.56496e-05 -157.436 
1.39134 2.56505e-05 -157.442 
1.39134 2.56505e-05 -157.442 
1.25285 2.56435e-05 -157.399 
1.25285 2.56435e-05 -157.399 
1.11399 2.56284e-05 -157.306 
1.11399 2.56284e-05 -157.306 
0.974749 2.56047e-05 -157.161 
0.974749 2.56047e-05 -157.161 
0.835112 2.55723e-05 -156.962 
0.835112 2.55723e-05 -156.962 
0.554592 2.548e-05 -156.395 
-213.372 2.27833e-05 -139.843 
-213.372 2.27833e-05 -139.843 
-213.269 2.27805e-05 -139.826 
-213.267 2.27693e-05 -139.757 
-213.866 2.27649e-05 -139.73 
-213.866 2.27649e-05 -139.73 
-213.866 2.27649e-05 -139.73 
3 0 2 4 
3 0 5 3 
3 7 5 1 
3 7 9 6 
3 11 9 8 
3 11 13 10 
3 15 13 12 
3 15 17 14 
3 19 17 16 
3 19 21 18 
3 23 21 20 
3 25 21 24 
3 25 27 22 
3 29 27 26 
3 29 31 28 
3 33 31 30 
3 33 35 32 
3 37 35 34 
3 39 35 38 
3 39 41 36 
3 42 44 40 
3 46 44 43 
3 46 48 45 
3 50 48 47 
3 50 52 49 
3 53 52 51 
3 55 54 51 
3 57 56 51 
3 59 58 51 
3 61 60 51 
3 64 66 67 
3 70 65 67 
3 70 68 72 
3 74 71 72 
3 76 75 72 
3 78 77 72 
3 80 79 72 
3 80 73 82 
3 84 81 82 
3 86 85 82 
3 89 62 51 
3 89 91 63 
3 89 93 92 
3 89 95 94 
3 89 83 96 
3 89 87 82 
3 89 97 88 
3 98 97 90 
3 100 99 90 
3 102 101 90 
3 105 103 90 
3 105 107 104 
3 108 107 106 
3 110 109 106 
3 112 111 106 
3 114 113 106 
3 116 115 106 
3 118 117 106 
3 120 119 106 
3 122 121 106 
3 124 123 106 
3 126 125 106 
3 128 127 106 
3 130 129 106 
3 132 131 106 
3 134 133 106 
3 136 135 106 
3 139 137 106 
3 139 141 138 
3 142 141 140 
3 144 143 140 
3 146 145 140 
3 148 147 140 
3 150 149 140 
3 152 151 140 
3 154 153 140 
3 156 155 140 
3 158 157 140 
3 160 159 140 
3 163 161 140 
3 163 165 162 
3 166 165 164 
3 168 167 164 
3 170 169 164 
3 172 171 164 
3 174 173 164 
3 176 175 164 
3 178 177 164 
3 180 179 164 
3 182 181 164 
3 185 183 164 
3 185 187 184 
3 188 187 186 
3 190 189 186 
3 193 191 186 
3 193 195 192 
3 196 195 194 
3 198 197 194 
3 200 199 194 
3 202 201 194 
3 205 208 203 
3 205 204 194 
3 210 206 194 
3 210 211 207 
3 212 213 207 
3 214 216 207 
3 218 216 215 
3 218 220 217 
3 222 220 219 
3 222 224 221 
3 226 224 223 
3 226 227 225 
3 228 230 225 
3 232 230 229 
3 232 233 231 
3 234 235 231 
3 236 238 231 
3 240 238 237 
3 240 242 239 
3 244 242 241 
3 244 246 243 
3 248 246 245 
3 248 250 247 
3 251 250 249 
3 252 255 258 
3 261 253 258 
3 261 262 254 
3 263 264 254 
3 265 267 254 
3 269 267 266 
3 269 270 268 
3 271 272 268 
3 273 274 268 
3 275 276 268 
3 277 278 268 
3 279 281 268 
3 283 281 280 
3 283 284 282 
3 285 286 282 
3 287 288 282 
3 289 290 282 
3 291 292 282 
3 293 294 282 
3 295 296 282 
3 297 299 282 
3 301 299 298 
3 301 302 300 
3 303 305 300 
3 306 305 304 
3 308 307 304 
3 311 309 304 
3 311 313 310 
3 314 313 312 
3 316 315 312 
3 318 317 312 
3 320 319 312 
3 323 321 312 
3 323 324 322 
3 325 326 322 
3 327 328 322 
3 329 330 322 
3 331 333 322 
3 335 333 332 
3 335 336 334 
3 337 338 334 
3 339 340 334 
3 341 342 334 
3 343 344 334 
3 345 346 334 
3 347 348 334 
3 349 351 334 
3 353 351 350 
3 353 354 352 
3 355 356 352 
3 357 358 352 
3 359 360 352 
3 361 362 352 
3 363 365 352 
3 366 365 364 
3 368 367 364 
3 370 369 364 
3 373 371 364 
3 373 375 372 
3 376 375 374 
3 378 377 374 
3 381 379 374 
3 381 382 380 
3 383 384 380 
3 385 387 380 
3 389 387 386 
3 389 390 388 
3 391 392 388 
3 393 394 388 
3 395 396 388 
3 397 398 388 
3 399 400 388 
3 401 403 388 
3 405 403 402 
3 405 407 404 
3 408 407 406 
3 411 409 406 
3 411 412 410 
3 413 414 410 
3 415 417 410 
3 419 417 416 
3 419 421 418 
3 423 421 420 
3 423 425 422 
3 426 425 424 
3 428 427 424 
3 431 429 424 
3 434 432 424 
3 434 435 433 
3 436 437 433 
3 438 440 433 
3 441 440 439 
3 443 442 439 
3 446 444 439 
3 446 448 445 
3 449 448 447 
3 452 450 447 
3 452 454 451 
3 455 454 453 
3 457 456 453 
3 460 458 453 
3 460 462 459 
3 463 462 461 
3 466 464 461 
3 466 468 465 
3 470 468 467 
3 470 472 469 
3 474 472 471 
3 474 476 473 
3 478 476 475 
3 478 480 477 
3 482 480 479 
3 482 484 481 
3 486 484 483 
3 486 487 485 
3 488 489 485 
3 490 491 485 
3 492 68 485 
3 69 66 485 
3 493 495 497 
3 498 495 494 
3 498 500 496 
3 501 500 499 
3 504 502 499 
3 504 506 503 
3 508 506 505 
3 508 510 507 
3 512 510 509 
3 512 514 511 
3 516 514 513 
3 516 518 515 
3 519 518 517 
3 297 520 517 
3 297 522 521 
3 297 524 523 
3 297 526 525 
3 297 528 527 
3 297 530 529 
3 297 294 531 
3 532 534 536 
3 538 533 536 
3 540 539 536 
3 542 541 536 
3 544 543 536 
3 546 545 536 
3 549 547 536 
3 549 551 548 
3 553 551 550 
3 553 555 552 
3 557 555 554 
3 557 559 556 
3 561 559 558 
3 561 563 560 
3 565 563 562 
3 565 566 564 
3 567 569 564 
3 571 569 568 
3 571 573 570 
3 575 573 572 
3 575 577 574 
3 578 577 576 
3 581 579 576 
3 581 583 580 
3 585 583 582 
3 585 586 584 
3 587 589 584 
3 591 589 588 
3 591 592 590 
3 593 594 590 
3 595 597 590 
3 599 597 596 
3 599 601 598 
3 603 601 600 
3 603 604 602 
3 605 606 602 
3 607 608 602 
3 609 611 602 
3 613 611 610 
3 613 614 612 
3 615 616 612 
3 617 618 612 
3 619 620 612 
3 621 622 612 
3 625 626 623 
3 624 626 612 
3 627 629 612 
3 630 629 628 
3 633 631 628 
3 633 634 632 
3 635 637 632 
3 639 637 636 
3 639 640 638 
3 641 643 638 
3 645 643 642 
3 645 646 644 
3 647 648 644 
3 649 651 644 
3 653 651 650 
3 653 259 652 
3 260 255 652 
3 256 654 652 
3 656 654 257 
3 656 658 655 
3 659 658 657 
3 661 660 657 
3 663 662 657 
3 665 664 657 
3 667 666 657 
3 669 668 657 
3 671 670 657 
3 673 672 657 
3 674 675 677 
3 674 678 676 
3 679 681 676 
3 683 681 680 
3 683 684 682 
3 685 686 682 
3 687 689 682 
3 691 689 688 
3 691 692 690 
3 693 694 690 
3 695 697 690 
3 699 697 696 
3 699 701 698 
3 702 701 700 
3 705 703 700 
3 705 707 704 
3 708 707 706 
3 710 709 706 
3 625 711 706 
3 625 713 712 
3 625 622 714 
3 715 717 719 
3 718 722 719 
3 723 724 719 
3 725 726 719 
3 727 728 719 
3 729 730 719 
3 731 732 719 
3 733 735 719 
3 737 735 734 
3 737 738 736 
3 739 741 736 
3 743 741 740 
3 743 745 742 
3 537 745 744 
3 537 534 746 
3 535 747 746 
3 748 749 746 
3 750 751 746 
3 752 753 746 
3 754 755 746 
3 756 758 746 
3 760 758 757 
3 760 761 759 
3 762 763 759 
3 764 766 759 
3 768 766 765 
3 768 770 767 
3 772 770 769 
3 772 773 771 
3 774 776 771 
3 778 776 775 
3 778 779 777 
3 780 782 777 
3 783 785 781 
3 787 785 784 
3 787 789 786 
3 791 789 788 
3 791 793 790 
3 795 793 792 
3 795 797 794 
3 795 799 798 
3 801 799 796 
3 801 803 800 
3 805 803 802 
3 805 807 804 
3 809 807 806 
3 809 811 808 
3 813 811 810 
3 813 815 812 
3 813 817 816 
3 819 817 814 
3 819 820 818 
3 821 823 825 
3 821 826 824 
3 827 826 822 
3 830 828 822 
3 830 832 829 
3 834 832 831 
3 834 836 833 
3 838 836 835 
3 838 840 837 
3 841 840 839 
3 844 842 839 
3 844 846 843 
3 847 846 845 
3 850 848 845 
3 850 852 849 
3 853 852 851 
3 855 854 851 
3 858 856 851 
3 858 859 857 
3 860 862 857 
3 863 862 861 
3 866 864 861 
3 866 868 865 
3 869 868 867 
3 872 870 867 
3 872 874 871 
3 720 874 873 
3 715 721 873 
3 875 716 873 
3 878 876 873 
3 878 880 877 
3 882 880 879 
3 882 883 881 
3 884 885 881 
3 886 887 881 
3 888 889 881 
3 890 891 881 
3 892 894 881 
3 895 894 893 
3 431 896 430 
3 898 896 433 
3 898 900 897 
3 901 900 899 
3 903 902 899 
3 905 904 899 
3 907 906 899 
3 909 908 899 
3 911 910 899 
3 913 912 899 
3 915 914 899 
3 917 916 899 
3 918 920 921 
3 922 919 921 
3 209 923 921 
3 209 206 924 
