ply
format ascii 1.0
comment VCGLIB generated
element vertex 502
property float x
property float y
property float z
element face 929
property list uchar int vertex_indices
end_header
0.181837 0.634606 0.06515 
0.181837 0.609733 0.130489 
0.181837 0.6347 0.135671 
0.181837 0.661551 0.141324 
0.181837 0.661551 0.070662 
0.425621 0.830904 -0.118005 
0.424679 0.856578 -0.080555 
0.055458 0.856578 -0.080555 
0.047108 0.856578 -0.080555 
0.047108 0.830904 -0.118005 
0.231872 0.002039 -0.211986 
0.459303 0.00204 -0.211986 
0.376864 0.002039 -0.11777 
0.228044 0.002039 -0.11777 
0.094216 0.002039 -0.11777 
0.035331 0.002039 -0.211986 
0.424161 0.869013 -0.021488 
0.423972 0.873537 0 
0.047108 0.873537 0 
0.047108 0.56498 -0.211986 
0.23554 0.567335 -0.211986 
0.232643 0.496174 -0.211986 
0.035331 0.496338 -0.211986 
0.035331 0.56498 -0.211986 
0.424161 0.868739 -0.010916 
0.426563 0.807586 -0.150039 
0.035331 0.096696 -0.211986 
0.234915 0.096371 -0.211986 
0.23525 0.378903 -0.211986 
0.181649 0.367869 -0.211986 
0.035331 0.367597 -0.211986 
0.035331 0.378903 -0.211986 
0.136107 0.337013 -0.211986 
0.035331 0.336506 -0.211986 
0.105251 0.291471 -0.211986 
0.035331 0.291282 -0.211986 
0.094216 0.237579 -0.211986 
0.035331 0.237579 -0.211986 
0.439865 0.233845 0.141324 
0.440918 0.207941 0.141324 
0.04546 0.208796 0.141324 
0.04546 0.233664 0.141324 
0.105251 0.183688 -0.211986 
0.136107 0.138146 -0.211986 
0.035331 0.139261 -0.211986 
0.035331 0.184102 -0.211986 
0.181649 0.107291 -0.211986 
0.035331 0.107681 -0.211986 
0.055458 0.711494 0.049943 
0.047108 0.711509 0.049958 
0.047108 0.688591 0.065292 
0.055458 0.688585 0.065283 
0.454828 0.107562 -0.211986 
0.455535 0.096255 -0.211986 
0.289432 0.107291 -0.211986 
0.45365 0.138653 -0.211986 
0.334974 0.138146 -0.211986 
0.452002 0.183876 -0.211986 
0.365829 0.183688 -0.211986 
0.376864 0.237579 -0.211986 
0.449646 0.23758 -0.211986 
0.447526 0.291283 -0.211986 
0.365829 0.291471 -0.211986 
0.334973 0.337013 -0.211986 
0.445642 0.336506 -0.211986 
0.444464 0.367597 -0.211986 
0.289432 0.367869 -0.211986 
0.443993 0.378903 -0.211986 
0.035331 0.445107 -0.211986 
0.233645 0.445231 -0.211986 
0.181837 0.578641 -0.211986 
0.047108 0.578641 -0.211986 
0.047108 0.654956 -0.211986 
0.047108 0.708659 -0.202093 
0.094216 0.708659 -0.202093 
0.105522 0.654956 -0.211986 
0.047108 0.762362 -0.18113 
0.105522 0.762362 -0.18113 
0.136613 0.807586 -0.150039 
0.047108 0.807586 -0.150039 
0.181837 0.830904 -0.118005 
0.435985 0.578641 -0.211986 
0.436456 0.56498 -0.211986 
0.289243 0.578641 -0.211986 
0.334467 0.609733 -0.211986 
0.434571 0.609733 -0.211986 
0.432923 0.654956 -0.211986 
0.365558 0.654956 -0.211986 
0.430567 0.70866 -0.202093 
0.376864 0.708659 -0.202093 
0.441633 0.190471 0.141324 
0.04546 0.190471 0.141324 
0.428447 0.762362 -0.18113 
0.365558 0.762362 -0.18113 
0.334467 0.807586 -0.150039 
0.419254 0.742106 0.195027 
0.422315 0.661551 0.211986 
0.057237 0.661551 0.211986 
0.057237 0.742106 0.195027 
0.105251 0.183688 -0.11777 
0.094216 0.237579 -0.11777 
0.136107 0.138146 -0.11777 
0.181649 0.107291 -0.11777 
0.23554 0.096255 -0.11777 
0.289432 0.107291 -0.11777 
0.334974 0.138146 -0.11777 
0.365829 0.183688 -0.11777 
0.376864 0.237579 -0.11777 
0.365829 0.291471 -0.11777 
0.334973 0.337013 -0.11777 
0.289432 0.367869 -0.11777 
0.23554 0.378903 -0.11777 
0.181649 0.367869 -0.11777 
0.136107 0.337013 -0.11777 
0.105251 0.291471 -0.11777 
0.094216 0.708659 -0.11777 
0.105522 0.654956 -0.11777 
0.136613 0.609733 -0.11777 
0.136613 0.609733 -0.211986 
0.181837 0.578641 -0.11777 
0.23554 0.567335 -0.11777 
0.289243 0.578641 -0.11777 
0.334467 0.609733 -0.11777 
0.365558 0.654956 -0.11777 
0.376864 0.708659 -0.11777 
0.365558 0.762362 -0.11777 
0.334467 0.807586 -0.11777 
0.136613 0.807586 -0.11777 
0.105522 0.762362 -0.11777 
0.055458 0.590889 0 
0.055458 0.596269 -0.027034 
0.181837 0.596401 -0.026946 
0.181837 0.590889 0 
0.055458 0.611609 -0.049943 
0.181837 0.611841 -0.049711 
0.047108 0.611593 -0.049958 
0.047108 0.634511 -0.065292 
0.055458 0.634517 -0.065283 
0.047108 0.661551 -0.070662 
0.055458 0.661551 -0.070662 
0.055458 0.688585 -0.065283 
0.181837 0.688497 -0.06515 
0.181837 0.661551 -0.070662 
0.055458 0.711494 -0.049943 
0.181837 0.711262 -0.049711 
0.055458 0.726834 -0.027034 
0.181837 0.726702 -0.026946 
0.055458 0.732213 0 
0.181837 0.732213 0 
0.047108 0.732213 0 
0.047108 0.726843 0.02704 
0.055458 0.726834 0.027034 
0.181837 0.711262 0.049711 
0.181837 0.726702 0.026946 
0.181837 0.688497 0.06515 
0.055458 0.661551 0.070662 
0.047108 0.661551 0.070662 
0.047108 0.634511 0.065292 
0.055458 0.634517 0.065283 
0.047108 0.611593 0.049958 
0.055458 0.611609 0.049943 
0.055458 0.596269 0.027034 
0.181837 0.596401 0.026946 
0.181837 0.611841 0.049711 
0.047108 0.59626 0.02704 
0.047108 0.590889 0 
0.376864 0.096255 -0.11777 
0.094216 0.367597 -0.11777 
0.094216 0.372149 -0.11777 
0.100971 0.378903 -0.11777 
0.094216 0.336506 -0.11777 
0.094216 0.291282 -0.11777 
0.094216 0.138653 -0.11777 
0.094216 0.107561 -0.11777 
0.094216 0.096255 -0.11777 
0.376864 0.107561 -0.11777 
0.376864 0.138653 -0.11777 
0.376864 0.183876 -0.11777 
0.376864 0.336506 -0.11777 
0.376864 0.367597 -0.11777 
0.370163 0.378058 -0.11777 
0.37011 0.378903 -0.11777 
0.104345 0.389033 -0.11777 
0.104345 0.473119 -0.11777 
0.366735 0.473119 -0.11777 
0.366735 0.389033 -0.11777 
0.376864 0.012169 0.154749 
0.376864 0.086126 0.080791 
0.376864 0.086126 0.154749 
0.376864 0.096255 0.060533 
0.376864 0.46299 0.060533 
0.376864 0.46299 -0.11777 
0.094216 0.012169 0.154749 
0.094216 0.086126 0.080791 
0.094216 0.086126 0.154749 
0.094216 0.096255 0.060533 
0.094216 0.46299 0.060533 
0.094216 0.46299 -0.11777 
0.366735 0.473119 0.070662 
0.104345 0.473119 0.070662 
0.104345 0.096255 0.070662 
0.366735 0.096255 0.070662 
0.366735 0.096255 0.164878 
0.104346 0.096255 0.164878 
0.365084 0.002039 0.164878 
0.105247 0.002039 0.164878 
0.047108 0.726843 -0.02704 
0.181837 0.762362 -0.11777 
0.181837 0.791569 -0.11777 
0.181837 0.728682 -0.11777 
0.181837 0.654956 -0.11777 
0.181837 0.708659 -0.11777 
0.181837 0.612088 -0.11777 
0.337764 0.654956 -0.11777 
0.337765 0.609733 -0.11777 
0.337764 0.708659 -0.11777 
0.337764 0.762362 -0.11777 
0.337764 0.802875 0 
0.181837 0.802875 0 
0.181837 0.802875 -0.11777 
0.337764 0.760931 0.006883 
0.181837 0.791569 -0.002199 
0.181837 0.761361 -0.002597 
0.181837 0.634606 -0.06515 
0.181837 0.578641 -0.006905 
0.181837 0.715255 0.130018 
0.181837 0.72656 0.122245 
0.181837 0.688403 0.135671 
0.181837 0.596542 0.122245 
0.181837 0.578641 0.109997 
0.337764 0.791569 0.053703 
0.181837 0.791569 0.053703 
0.337764 0.760478 0.098927 
0.181837 0.760478 0.098927 
0.337764 0.715255 0.130018 
0.337764 0.661551 0.141324 
0.334467 0.609733 0.130489 
0.289243 0.578641 0.109997 
0.23554 0.567335 0.102224 
0.451977 0.185194 0.121533 
0.452061 0.183093 0.127404 
0.45915 0.00588 0.247976 
0.459303 0.00204 0.246311 
0.035331 0.002039 0.2444 
0.035331 0.185207 0.121488 
0.035331 0.430397 0.131201 
0.035331 0.473867 0.132058 
0.035331 0.444854 0.089505 
0.035331 0.444854 -0.089505 
0.035331 0.496673 -0.164878 
0.047108 0.444854 0.089505 
0.047108 0.474476 0.13295 
0.035331 0.426011 0 
0.047108 0.426011 0 
0.047108 0.444854 -0.089505 
0.047108 0.496673 -0.164878 
0.424621 0.85797 0.073946 
0.4203 0.857072 0.07821 
0.414548 0.856578 0.080555 
0.41643 0.809941 0.14839 
0.057237 0.809941 0.14839 
0.057237 0.856578 0.080555 
0.424832 0.852752 0.069926 
0.424756 0.854606 0.070143 
0.448761 0.012169 0.259094 
0.442034 0.180342 0.259094 
0.04546 0.180342 0.259094 
0.045461 0.012169 0.259094 
0.04546 0.426909 0.141324 
0.044137 0.436184 0.141324 
0.053006 0.47631 0.141324 
0.057237 0.480186 0.141324 
0.429851 0.480186 0.141324 
0.42891 0.502797 0.141324 
0.057237 0.502797 0.141324 
0.441637 0.190471 0.248965 
0.04546 0.190471 0.248965 
0.057237 0.580997 0.195027 
0.425613 0.580997 0.195027 
0.047108 0.711509 -0.049958 
0.289243 0.830904 -0.118005 
0.047108 0.59626 -0.02704 
0.047108 0.609733 -0.211986 
0.047108 0.688591 -0.065292 
0.047108 0.85797 0.073945 
0.047108 0.853258 0.076394 
0.047108 0.851229 0.074716 
0.047108 0.847072 0.076634 
0.047108 0.802658 0.141106 
0.047108 0.738166 0.185477 
0.047108 0.661551 0.201635 
0.047108 0.584939 0.185471 
0.047108 0.512721 0.13299 
0.047108 0.494392 0.131447 
0.047108 0.487514 0.132183 
0.047108 0.486538 0.134862 
0.047108 0.479743 0.135452 
0.047108 0.579647 -0.211986 
0.42416 0.869021 0.021451 
0.426694 0.80664 0.136967 
0.429479 0.739897 0.18471 
0.432503 0.660284 0.201622 
0.435756 0.580931 0.183671 
0.438969 0.504654 0.130773 
0.035331 0.005883 0.246754 
0.035331 0.183088 0.127319 
0.035331 0.180408 0.24891 
0.035331 0.400032 0.131195 
0.035331 0.409404 0.131195 
0.035331 0.375372 0.131195 
0.035331 0.342163 0.131195 
0.035331 0.302402 0.131195 
0.035331 0.263799 0.131195 
0.035331 0.230954 0.131195 
0.035331 0.205793 0.130755 
0.094216 0.002039 0.14562 
0.432681 0.410587 0.141324 
0.433058 0.401306 0.141324 
0.04546 0.400998 0.141324 
0.04546 0.410311 0.141324 
0.43405 0.376901 0.141324 
0.04546 0.376529 0.141324 
0.435388 0.343977 0.141324 
0.04546 0.343673 0.141324 
0.43699 0.304586 0.141324 
0.04546 0.304322 0.141324 
0.04546 0.266145 0.141324 
0.438562 0.265911 0.141324 
0.035331 0.411426 0.131226 
0.035331 0.407678 0.134539 
0.43925 0.496002 -0.211986 
0.441301 0.445361 -0.211986 
0.057193 0.85669 0.080023 
0.424161 0.856578 0.080555 
0.421298 0.856578 0.080555 
0.431983 0.427741 0.141324 
0.376864 0.002039 0.149442 
0.452168 0.180416 0.248933 
0.45117 0.20491 0.130733 
0.450107 0.23112 0.131195 
0.448794 0.263554 0.131195 
0.447199 0.302672 0.131195 
0.445583 0.342474 0.131195 
0.444229 0.375753 0.131195 
0.443231 0.400348 0.131195 
0.442852 0.409686 0.131195 
0.442096 0.428268 0.131195 
0.439968 0.480639 0.131194 
0.376864 0.005798 0.15657 
0.376864 0.005035 0.156175 
0.376864 0.00457 0.152387 
0.094216 0.086935 0.079608 
0.094216 0.004605 0.149942 
0.181837 0.735446 0.141181 
0.23554 0.567335 -0.010688 
0.289243 0.578641 -0.006905 
0.334467 0.609733 0.004715 
0.337764 0.658567 0.008173 
0.337764 0.712756 0.00749 
0.04546 0.471476 0.141324 
0.053571 0.002039 0.248965 
0.437052 0.00204 0.248965 
0.376864 0.372149 -0.11777 
0.376864 0.094702 0.060912 
0.376864 0.086971 0.07965 
0.094216 0.094702 0.060912 
0.057237 0.856578 0.080555 
0.098584 0.470733 -0.11777 
0.096603 0.468752 -0.11777 
0.096603 0.468752 0.066294 
0.098584 0.470733 0.068276 
0.372496 0.470733 0.068276 
0.374478 0.468752 0.066294 
0.374478 0.468752 -0.11777 
0.372496 0.470733 -0.11777 
0.374478 0.091888 0.16051 
0.372489 0.093876 0.162499 
0.371575 0.004251 0.162666 
0.374304 0.006595 0.160322 
0.455262 0.00204 0.251064 
0.448464 0.00204 0.251864 
0.371097 0.002039 0.162142 
0.374766 0.002039 0.157358 
0.374478 0.091888 0.07503 
0.372496 0.093869 0.073048 
0.374478 0.096255 0.066294 
0.372496 0.096255 0.068276 
0.096603 0.091888 0.16051 
0.098588 0.093873 0.162495 
0.099081 0.004329 0.162589 
0.096703 0.006512 0.160406 
0.096142 0.002039 0.155469 
0.09966 0.002039 0.161559 
0.044073 0.002039 0.251493 
0.038766 0.002039 0.250189 
0.096603 0.091888 0.07503 
0.098584 0.093869 0.073048 
0.096603 0.096255 0.066294 
0.098584 0.096255 0.068276 
0.044005 0.006407 0.256708 
0.045598 0.004426 0.254726 
0.447194 0.004426 0.254726 
0.449498 0.006407 0.256708 
0.449647 0.183721 0.254727 
0.447665 0.183719 0.256708 
0.454458 0.006695 0.256451 
0.457108 0.004149 0.253244 
0.039699 0.183717 0.256708 
0.037718 0.183717 0.254726 
0.037268 0.003976 0.252141 
0.040164 0.006872 0.25632 
0.447445 0.188133 0.25234 
0.449602 0.186061 0.25234 
0.449713 0.187569 0.130438 
0.447117 0.189171 0.136446 
0.448566 0.206725 0.137103 
0.446711 0.20725 0.138937 
0.445183 0.186104 0.256708 
0.445105 0.188085 0.254726 
0.042086 0.188085 0.254726 
0.042086 0.186103 0.256708 
0.431392 0.580981 0.192339 
0.433348 0.580968 0.190151 
0.43661 0.503595 0.136793 
0.434671 0.503237 0.138826 
0.428092 0.661253 0.209546 
0.430084 0.661005 0.207522 
0.435613 0.480292 0.138937 
0.437591 0.480381 0.136956 
0.42502 0.74159 0.192619 
0.427058 0.74115 0.190564 
0.422181 0.809178 0.145748 
0.424272 0.808506 0.143422 
0.420422 0.855649 0.077973 
0.422283 0.854956 0.076049 
0.037509 0.187576 0.130415 
0.040007 0.189156 0.136369 
0.039699 0.188085 0.25234 
0.037718 0.186104 0.25234 
0.037846 0.207599 0.137084 
0.039699 0.208126 0.138938 
0.039699 0.427724 0.138938 
0.037715 0.428408 0.136954 
0.03834 0.474845 0.137904 
0.039468 0.474419 0.138934 
0.039695 0.410572 0.138941 
0.037721 0.410789 0.136973 
0.050706 0.478407 0.138716 
0.049778 0.477885 0.137949 
0.051512 0.505131 0.139364 
0.049421 0.507207 0.137621 
0.0494 0.486603 0.136862 
0.051476 0.483618 0.138938 
0.051476 0.581925 0.192777 
0.049497 0.582694 0.190911 
0.049495 0.661551 0.207523 
0.051476 0.661551 0.209547 
0.049495 0.740407 0.190909 
0.051476 0.741178 0.192777 
0.049508 0.852507 0.078876 
0.051463 0.854335 0.079629 
0.051476 0.808225 0.146674 
0.049494 0.8068 0.145249 
0.437744 0.427873 0.138937 
0.439721 0.427976 0.136956 
0.039699 0.400768 0.138938 
0.037718 0.400579 0.136956 
0.037718 0.409918 0.136956 
0.039699 0.410095 0.138938 
0.039699 0.376253 0.138938 
0.037718 0.376027 0.136956 
0.039699 0.343314 0.138938 
0.037718 0.343019 0.136956 
0.039699 0.303867 0.138938 
0.037718 0.303492 0.136956 
0.039699 0.265594 0.138938 
0.037718 0.265135 0.136956 
0.039699 0.233024 0.138938 
0.037718 0.232494 0.136956 
0.440444 0.410201 0.136957 
0.438455 0.410377 0.138937 
0.440822 0.400896 0.136956 
0.438833 0.401083 0.138937 
0.439826 0.376634 0.138937 
0.441816 0.376409 0.136957 
0.441168 0.343625 0.138937 
0.443161 0.343331 0.136957 
0.442773 0.304137 0.138937 
0.444769 0.303763 0.136957 
0.446352 0.264893 0.136956 
0.44435 0.265354 0.138938 
0.445657 0.233204 0.138937 
0.447659 0.232672 0.136957 
0.094216 0.006269 0.155884 
0.424645 0.857374 0.073873 
0.051476 0.85707 0.07822 
0.035331 0.413078 0.134621 
0.094216 0.004564 0.154373 
0.376864 0.094746 0.066926 
0.376864 0.09101 0.074398 
0.094216 0.094746 0.066926 
0.094216 0.09101 0.074398 
3 0 1 2 
3 0 2 3 
3 0 3 4 
3 5 6 7 
3 5 7 8 
3 5 8 9 
3 10 11 12 
3 10 12 13 
3 10 13 14 
3 10 14 15 
3 16 17 18 
3 16 18 8 
3 16 8 7 
3 16 7 6 
3 19 20 21 
3 19 21 22 
3 19 22 23 
3 24 16 6 
3 24 6 5 
3 24 5 25 
3 26 15 10 
3 26 10 27 
3 28 29 30 
3 28 30 31 
3 29 32 33 
3 29 33 30 
3 32 34 35 
3 32 35 33 
3 34 36 37 
3 34 37 35 
3 38 39 40 
3 38 40 41 
3 42 43 44 
3 42 44 45 
3 43 46 47 
3 43 47 44 
3 48 49 50 
3 48 50 51 
3 52 53 27 
3 52 27 54 
3 55 52 54 
3 55 54 56 
3 57 55 56 
3 57 56 58 
3 58 59 60 
3 58 60 57 
3 61 60 59 
3 61 59 62 
3 62 63 64 
3 62 64 61 
3 65 64 63 
3 65 63 66 
3 66 28 67 
3 66 67 65 
3 68 22 21 
3 68 21 69 
3 70 20 19 
3 70 19 71 
3 72 73 74 
3 72 74 75 
3 73 76 77 
3 73 77 74 
3 78 77 76 
3 78 76 79 
3 79 9 80 
3 79 80 78 
3 81 82 20 
3 81 20 83 
3 83 84 85 
3 83 85 81 
3 86 85 84 
3 86 84 87 
3 88 86 87 
3 88 87 89 
3 39 90 91 
3 39 91 40 
3 25 92 93 
3 25 93 94 
3 95 96 97 
3 95 97 98 
3 36 42 99 
3 36 99 100 
3 42 43 101 
3 42 101 99 
3 43 46 102 
3 43 102 101 
3 46 27 103 
3 46 103 102 
3 27 54 104 
3 27 104 103 
3 54 56 105 
3 54 105 104 
3 56 58 106 
3 56 106 105 
3 58 59 107 
3 58 107 106 
3 59 62 108 
3 59 108 107 
3 62 63 109 
3 62 109 108 
3 63 66 110 
3 63 110 109 
3 66 28 111 
3 66 111 110 
3 28 29 112 
3 28 112 111 
3 29 32 113 
3 29 113 112 
3 32 34 114 
3 32 114 113 
3 34 36 100 
3 34 100 114 
3 115 116 75 
3 115 75 74 
3 116 117 118 
3 116 118 75 
3 117 119 70 
3 117 70 118 
3 119 120 20 
3 119 20 70 
3 120 121 83 
3 120 83 20 
3 121 122 84 
3 121 84 83 
3 122 123 87 
3 122 87 84 
3 123 124 89 
3 123 89 87 
3 124 125 93 
3 124 93 89 
3 125 126 94 
3 125 94 93 
3 127 128 77 
3 127 77 78 
3 128 115 74 
3 128 74 77 
3 129 130 131 
3 129 131 132 
3 130 133 134 
3 130 134 131 
3 133 135 136 
3 133 136 137 
3 137 136 138 
3 137 138 139 
3 139 140 141 
3 139 141 142 
3 140 143 144 
3 140 144 141 
3 143 145 146 
3 143 146 144 
3 145 147 148 
3 145 148 146 
3 147 149 150 
3 147 150 151 
3 151 48 152 
3 151 152 153 
3 48 51 154 
3 48 154 152 
3 51 155 4 
3 51 4 154 
3 155 156 157 
3 155 157 158 
3 158 157 159 
3 158 159 160 
3 160 161 162 
3 160 162 163 
3 161 164 165 
3 161 165 129 
3 103 13 12 
3 103 12 166 
3 167 168 169 
3 112 113 170 
3 112 170 167 
3 113 114 171 
3 113 171 170 
3 114 100 171 
3 100 99 172 
3 172 99 101 
3 172 101 173 
3 173 101 102 
3 173 102 174 
3 102 103 174 
3 103 104 175 
3 103 175 166 
3 104 105 176 
3 104 176 175 
3 105 106 177 
3 105 177 176 
3 106 107 177 
3 107 108 178 
3 178 108 109 
3 178 109 179 
3 179 109 110 
3 179 110 180 
3 110 111 181 
3 110 181 180 
3 182 183 184 
3 182 184 185 
3 186 187 188 
3 166 189 190 
3 166 190 191 
3 192 193 194 
3 174 195 196 
3 174 196 197 
3 198 184 183 
3 198 183 199 
3 198 199 200 
3 198 200 201 
3 200 201 202 
3 200 202 203 
3 203 202 204 
3 203 204 205 
3 158 0 4 
3 158 4 155 
3 51 50 156 
3 51 156 155 
3 145 206 149 
3 145 149 147 
3 151 153 148 
3 151 148 147 
3 127 128 207 
3 127 207 208 
3 128 209 207 
3 115 116 210 
3 115 210 211 
3 116 117 212 
3 116 212 210 
3 117 119 212 
3 122 213 123 
3 123 214 122 
3 123 124 215 
3 123 215 213 
3 124 125 216 
3 124 216 215 
3 125 126 216 
3 217 218 219 
3 217 219 126 
3 220 216 126 
3 220 126 217 
3 218 221 208 
3 218 208 219 
3 221 222 207 
3 221 207 208 
3 146 207 209 
3 146 209 144 
3 144 209 211 
3 144 211 141 
3 141 211 210 
3 141 210 142 
3 223 142 210 
3 223 210 212 
3 134 223 212 
3 131 134 212 
3 131 212 119 
3 132 131 119 
3 132 119 224 
3 153 152 225 
3 153 225 226 
3 152 154 227 
3 152 227 225 
3 154 4 3 
3 154 3 227 
3 1 0 163 
3 1 163 228 
3 228 163 162 
3 228 162 229 
3 229 162 132 
3 229 132 224 
3 217 230 231 
3 217 231 218 
3 230 232 233 
3 230 233 231 
3 232 234 225 
3 232 225 233 
3 234 235 3 
3 234 3 225 
3 235 236 1 
3 235 1 3 
3 1 236 237 
3 1 237 229 
3 229 237 238 
3 239 240 241 
3 239 241 242 
3 243 15 26 
3 243 26 244 
3 245 246 247 
3 248 249 22 
3 248 22 68 
3 249 23 22 
3 246 247 250 
3 246 250 251 
3 247 252 253 
3 247 253 250 
3 252 248 254 
3 252 254 253 
3 248 249 255 
3 248 255 254 
3 249 23 19 
3 249 19 255 
3 256 257 258 
3 258 259 260 
3 258 260 261 
3 262 263 24 
3 264 265 266 
3 264 266 267 
3 268 269 270 
3 268 270 271 
3 272 273 274 
3 272 274 271 
3 275 90 91 
3 275 91 276 
3 277 97 96 
3 277 96 278 
3 143 279 206 
3 143 206 145 
3 219 126 280 
3 219 280 80 
3 281 165 253 
3 281 253 254 
3 135 281 254 
3 135 254 255 
3 136 135 255 
3 136 255 19 
3 138 282 72 
3 283 73 76 
3 279 283 76 
3 279 76 79 
3 206 279 9 
3 206 9 8 
3 149 206 8 
3 149 8 18 
3 18 284 285 
3 18 285 286 
3 49 150 287 
3 49 287 288 
3 50 49 288 
3 50 288 289 
3 156 50 289 
3 156 289 290 
3 157 156 290 
3 157 290 291 
3 159 157 291 
3 159 291 292 
3 293 159 292 
3 165 164 250 
3 165 250 253 
3 294 295 296 
3 297 136 19 
3 138 136 297 
3 138 297 282 
3 283 138 72 
3 283 72 73 
3 9 279 79 
3 16 24 17 
3 298 17 24 
3 262 92 88 
3 262 88 299 
3 299 88 86 
3 299 86 300 
3 300 86 85 
3 300 85 301 
3 301 85 81 
3 301 81 302 
3 302 81 82 
3 302 82 303 
3 304 305 306 
3 307 30 31 
3 307 31 308 
3 309 33 30 
3 309 30 307 
3 310 35 33 
3 310 33 309 
3 311 37 35 
3 311 35 310 
3 312 45 37 
3 312 37 311 
3 313 44 45 
3 313 45 312 
3 314 47 44 
3 314 44 313 
3 244 26 47 
3 244 47 314 
3 11 53 27 
3 11 27 10 
3 103 174 14 
3 103 14 13 
3 243 15 14 
3 243 14 315 
3 31 68 69 
3 31 69 28 
3 274 277 278 
3 274 278 273 
3 316 317 318 
3 316 318 319 
3 317 320 321 
3 317 321 318 
3 320 322 323 
3 320 323 321 
3 322 324 325 
3 322 325 323 
3 326 325 324 
3 326 324 327 
3 89 93 92 
3 89 92 88 
3 284 18 17 
3 160 159 164 
3 160 164 161 
3 308 328 329 
3 21 20 82 
3 21 82 330 
3 69 21 330 
3 69 330 331 
3 28 69 331 
3 28 331 67 
3 298 332 284 
3 298 284 17 
3 333 334 258 
3 327 38 41 
3 327 41 326 
3 45 37 36 
3 45 36 42 
3 98 260 259 
3 98 259 95 
3 151 150 49 
3 151 49 48 
3 26 47 46 
3 26 46 27 
3 319 268 335 
3 319 335 316 
3 252 247 245 
3 252 245 328 
3 248 252 31 
3 248 31 68 
3 242 336 12 
3 242 12 11 
3 241 240 337 
3 239 53 52 
3 239 52 338 
3 338 52 55 
3 338 55 339 
3 339 55 57 
3 339 57 340 
3 340 57 60 
3 340 60 341 
3 341 60 61 
3 341 61 342 
3 342 61 64 
3 342 64 343 
3 343 64 65 
3 343 65 344 
3 344 65 67 
3 344 67 345 
3 345 67 331 
3 345 331 346 
3 346 331 330 
3 346 330 347 
3 347 330 82 
3 347 82 303 
3 5 25 94 
3 5 94 280 
3 218 231 221 
3 231 233 222 
3 231 222 221 
3 186 348 349 
3 186 349 350 
3 351 193 192 
3 351 192 352 
3 282 72 75 
3 282 75 118 
3 118 70 71 
3 118 71 282 
3 207 146 148 
3 207 148 222 
3 222 148 153 
3 222 153 233 
3 233 153 226 
3 233 226 353 
3 127 208 219 
3 127 219 80 
3 78 80 127 
3 280 94 126 
3 128 115 211 
3 128 211 209 
3 224 354 120 
3 224 120 119 
3 354 355 121 
3 354 121 120 
3 355 356 122 
3 355 122 121 
3 229 238 354 
3 229 354 224 
3 238 237 355 
3 238 355 354 
3 237 236 356 
3 237 356 355 
3 357 356 122 
3 357 122 213 
3 357 213 215 
3 357 215 358 
3 358 215 216 
3 358 216 220 
3 234 358 220 
3 234 220 232 
3 235 357 358 
3 235 358 234 
3 235 236 356 
3 235 356 357 
3 220 217 230 
3 220 230 232 
3 24 263 256 
3 24 256 298 
3 359 270 269 
3 129 132 162 
3 129 162 161 
3 160 163 0 
3 160 0 158 
3 360 205 204 
3 360 204 361 
3 129 165 281 
3 129 281 130 
3 130 281 135 
3 130 135 133 
3 137 223 134 
3 137 134 133 
3 139 142 223 
3 139 223 137 
3 139 138 283 
3 139 283 140 
3 140 283 279 
3 140 279 143 
3 111 112 167 
3 111 167 169 
3 179 180 362 
3 18 286 287 
3 159 293 250 
3 159 250 164 
3 12 363 364 
3 12 364 336 
3 12 166 189 
3 12 189 363 
3 352 315 351 
3 14 174 195 
3 14 195 365 
3 333 366 261 
3 367 368 369 
3 367 369 370 
3 371 372 373 
3 371 373 374 
3 375 376 377 
3 375 377 378 
3 379 380 381 
3 379 381 382 
3 383 384 376 
3 383 376 375 
3 385 386 371 
3 385 371 372 
3 387 388 389 
3 387 389 390 
3 391 392 393 
3 391 393 394 
3 395 396 388 
3 395 388 387 
3 370 369 397 
3 370 397 398 
3 399 400 401 
3 399 401 402 
3 403 404 405 
3 403 405 406 
3 407 408 409 
3 407 409 410 
3 411 412 413 
3 411 413 414 
3 415 416 414 
3 415 414 413 
3 417 418 419 
3 417 419 420 
3 421 422 423 
3 421 423 424 
3 425 426 422 
3 425 422 421 
3 427 428 423 
3 427 423 424 
3 426 425 429 
3 426 429 430 
3 431 432 430 
3 431 430 429 
3 432 431 433 
3 432 433 434 
3 435 436 437 
3 435 437 438 
3 436 435 439 
3 436 439 440 
3 441 442 443 
3 441 443 444 
3 445 446 442 
3 445 442 441 
3 444 443 447 
3 444 447 448 
3 449 450 451 
3 449 451 452 
3 453 454 455 
3 453 455 456 
3 457 458 456 
3 457 456 455 
3 459 460 461 
3 459 461 462 
3 462 461 458 
3 462 458 457 
3 428 427 463 
3 428 463 464 
3 454 453 449 
3 454 449 450 
3 465 466 467 
3 465 467 468 
3 466 465 469 
3 466 469 470 
3 471 472 470 
3 471 470 469 
3 472 471 473 
3 472 473 474 
3 474 473 475 
3 474 475 476 
3 476 475 477 
3 476 477 478 
3 478 477 440 
3 478 440 439 
3 463 464 479 
3 463 479 480 
3 480 479 481 
3 480 481 482 
3 481 482 483 
3 481 483 484 
3 484 483 485 
3 484 485 486 
3 486 485 487 
3 486 487 488 
3 487 488 489 
3 487 489 490 
3 489 490 491 
3 489 491 492 
3 491 492 415 
3 491 415 416 
3 493 390 392 
3 493 392 391 
3 401 380 402 
3 399 410 400 
3 411 417 404 
3 411 404 412 
3 494 434 257 
3 494 257 256 
3 459 495 460 
3 468 467 329 
3 242 11 53 
3 242 53 239 
3 244 305 304 
3 244 304 243 
3 256 258 332 
3 256 332 298 
3 258 261 332 
3 25 92 262 
3 25 262 24 
3 272 335 268 
3 272 268 271 
3 296 251 250 
3 296 250 294 
3 308 31 252 
3 308 252 328 
3 329 496 308 
3 332 495 284 
3 366 333 258 
3 261 366 258 
3 364 187 186 
3 364 186 350 
3 192 493 497 
3 192 497 352 
3 263 494 256 
3 150 149 18 
3 150 18 287 
3 293 294 250 
3 498 499 364 
3 498 364 363 
3 350 336 364 
3 500 501 351 
3 500 351 365 
3 14 365 351 
3 14 351 315 
3 334 333 261 
3 258 334 261 
3 493 391 497 
3 390 389 392 
3 379 406 405 
3 379 405 402 
3 379 402 380 
3 409 394 393 
3 409 393 400 
3 409 400 410 
3 403 412 404 
3 411 418 417 
3 434 433 257 
3 459 285 284 
3 459 284 495 
3 329 446 445 
3 329 445 468 
3 467 496 329 
3 269 441 444 
3 269 444 359 
3 441 268 319 
3 441 319 445 
3 272 427 463 
3 272 463 335 
3 480 316 335 
3 480 335 463 
3 424 273 272 
3 424 272 427 
3 448 270 359 
3 448 359 444 
3 452 271 274 
3 452 274 449 
3 431 259 258 
3 431 258 433 
3 460 261 260 
3 460 260 461 
3 434 262 299 
3 434 299 432 
3 305 435 438 
3 305 438 306 
3 408 306 304 
3 408 304 409 
3 314 439 435 
3 314 435 244 
3 394 243 315 
3 394 315 391 
3 429 95 259 
3 429 259 431 
3 461 260 98 
3 461 98 458 
3 240 413 412 
3 240 412 337 
3 406 241 337 
3 406 337 403 
3 338 415 413 
3 338 413 239 
3 242 379 382 
3 242 382 336 
3 477 41 40 
3 477 40 440 
3 475 326 41 
3 475 41 477 
3 440 40 91 
3 440 91 436 
3 38 491 416 
3 38 416 39 
3 416 39 90 
3 416 90 414 
3 327 490 491 
3 327 491 38 
3 91 436 437 
3 91 437 276 
3 414 90 275 
3 414 275 411 
3 458 98 97 
3 458 97 456 
3 277 453 456 
3 277 456 97 
3 425 96 95 
3 425 95 429 
3 96 425 421 
3 96 421 278 
3 198 371 374 
3 198 374 184 
3 370 199 183 
3 370 183 367 
3 187 383 375 
3 187 375 188 
3 188 375 378 
3 188 378 186 
3 190 372 373 
3 190 373 191 
3 372 190 189 
3 372 189 385 
3 387 194 193 
3 387 193 395 
3 390 192 194 
3 390 194 387 
3 196 369 368 
3 196 368 197 
3 369 196 195 
3 369 195 397 
3 398 200 199 
3 398 199 370 
3 201 386 371 
3 201 371 198 
3 384 201 202 
3 384 202 376 
3 203 388 396 
3 203 396 200 
3 388 203 205 
3 388 205 389 
3 202 376 377 
3 202 377 204 
3 360 393 392 
3 360 392 205 
3 380 361 204 
3 380 204 381 
3 442 245 246 
3 442 246 443 
3 251 447 443 
3 251 443 246 
3 245 442 446 
3 245 446 328 
3 410 267 266 
3 410 266 407 
3 402 264 267 
3 402 267 399 
3 420 266 265 
3 420 265 417 
3 404 265 264 
3 404 264 405 
3 453 277 274 
3 453 274 449 
3 424 273 278 
3 424 278 421 
3 276 419 418 
3 276 418 275 
3 287 459 462 
3 287 462 288 
3 457 289 288 
3 457 288 462 
3 455 290 289 
3 455 289 457 
3 290 455 454 
3 290 454 291 
3 291 454 450 
3 291 450 292 
3 292 450 451 
3 292 451 293 
3 432 299 300 
3 432 300 430 
3 301 426 430 
3 301 430 300 
3 302 422 426 
3 302 426 301 
3 303 423 422 
3 303 422 302 
3 303 423 428 
3 303 428 347 
3 308 467 466 
3 308 466 307 
3 307 466 470 
3 307 470 309 
3 472 310 309 
3 472 309 470 
3 474 311 310 
3 474 310 472 
3 476 312 311 
3 476 311 474 
3 312 476 478 
3 312 478 313 
3 313 478 439 
3 313 439 314 
3 468 319 318 
3 468 318 465 
3 465 318 321 
3 465 321 469 
3 482 317 316 
3 482 316 480 
3 482 317 320 
3 482 320 483 
3 323 471 469 
3 323 469 321 
3 320 483 485 
3 320 485 322 
3 471 323 325 
3 471 325 473 
3 485 322 324 
3 485 324 487 
3 326 475 473 
3 326 473 325 
3 324 487 490 
3 324 490 327 
3 339 492 415 
3 339 415 338 
3 492 339 340 
3 492 340 489 
3 341 488 489 
3 341 489 340 
3 488 341 342 
3 488 342 486 
3 486 342 343 
3 486 343 484 
3 484 343 344 
3 484 344 481 
3 479 345 344 
3 479 344 481 
3 464 346 345 
3 464 345 479 
3 464 346 347 
3 464 347 428 
3 400 360 361 
3 400 361 401 
3 269 268 441 
3 334 257 433 
3 433 258 334 
3 334 258 257 
3 261 366 460 
3 261 460 495 
3 261 495 332 
3 494 263 262 
3 494 262 434 
3 435 305 244 
3 412 403 337 
3 413 240 239 
3 242 241 406 
3 242 406 379 
3 390 493 192 
3 392 389 205 
3 399 267 410 
3 417 265 404 
3 264 402 405 
3 418 411 275 
3 287 286 285 
3 287 285 459 
3 496 467 308 
3 391 315 352 
3 391 352 497 
3 468 445 319 
3 446 329 328 
3 361 380 401 
3 400 393 360 
