ply
format ascii 1.0
comment VCGLIB generated
element vertex 505
property float x
property float y
property float z
element face 939
property list uchar int vertex_indices
end_header
-0.181837 0.688497 -0.06515 
-0.181837 0.708659 -0.11777 
-0.181837 0.665791 -0.11777 
-0.181837 0.654956 -0.11777 
-0.181837 0.661551 -0.070662 
-0.181837 0.634605 0.06515 
-0.181837 0.609733 0.130489 
-0.181837 0.6347 0.135671 
-0.181837 0.661551 0.141324 
-0.181837 0.661551 0.070662 
-0.231872 0.002039 -0.211986 
-0.459303 0.002039 -0.211986 
-0.376864 0.002039 -0.11777 
-0.094216 0.002039 -0.11777 
-0.035331 0.002039 -0.211986 
-0.418084 0.378903 -0.211986 
-0.443993 0.378903 -0.211986 
-0.444464 0.367597 -0.211986 
-0.289431 0.367868 -0.211986 
-0.23525 0.378903 -0.211986 
-0.233645 0.445231 -0.211986 
-0.441301 0.445361 -0.211986 
-0.047108 0.56498 -0.211986 
-0.23554 0.567335 -0.211986 
-0.232643 0.496174 -0.211986 
-0.035331 0.496338 -0.211986 
-0.035331 0.56498 -0.211986 
-0.181648 0.367868 -0.211986 
-0.136107 0.337013 -0.211986 
-0.035331 0.336506 -0.211986 
-0.035331 0.367597 -0.211986 
-0.035331 0.378903 -0.211986 
-0.035331 0.096696 -0.211986 
-0.234914 0.096371 -0.211986 
-0.035331 0.002039 0.2444 
-0.094216 0.002039 0.14562 
-0.053571 0.002039 0.248965 
-0.105247 0.002039 0.164878 
-0.365083 0.002039 0.164878 
-0.437051 0.002039 0.248965 
-0.105251 0.291471 -0.211986 
-0.094216 0.237579 -0.211986 
-0.035331 0.237579 -0.211986 
-0.035331 0.291282 -0.211986 
-0.105251 0.183688 -0.211986 
-0.035331 0.184102 -0.211986 
-0.136106 0.138146 -0.211986 
-0.035331 0.139261 -0.211986 
-0.454827 0.107561 -0.211986 
-0.455534 0.096255 -0.211986 
-0.289431 0.107291 -0.211986 
-0.334973 0.138146 -0.211986 
-0.45365 0.138653 -0.211986 
-0.452001 0.183876 -0.211986 
-0.365829 0.183688 -0.211986 
-0.376864 0.237579 -0.211986 
-0.449645 0.237579 -0.211986 
-0.447526 0.291282 -0.211986 
-0.365829 0.291471 -0.211986 
-0.334973 0.337013 -0.211986 
-0.445641 0.336506 -0.211986 
-0.035331 0.445107 -0.211986 
-0.181837 0.578641 -0.211986 
-0.047108 0.578641 -0.211986 
-0.047108 0.654956 -0.211986 
-0.047108 0.708659 -0.202093 
-0.094216 0.708659 -0.202093 
-0.105522 0.654956 -0.211986 
-0.105522 0.762362 -0.18113 
-0.047108 0.762362 -0.18113 
-0.136613 0.807586 -0.150039 
-0.047108 0.807586 -0.150039 
-0.181837 0.830904 -0.118005 
-0.047108 0.830904 -0.118005 
-0.435984 0.578641 -0.211986 
-0.436455 0.56498 -0.211986 
-0.289243 0.578641 -0.211986 
-0.334467 0.609733 -0.211986 
-0.434571 0.609733 -0.211986 
-0.432922 0.654956 -0.211986 
-0.365558 0.654956 -0.211986 
-0.376864 0.708659 -0.202093 
-0.430567 0.708659 -0.202093 
-0.428447 0.762362 -0.18113 
-0.365558 0.762362 -0.18113 
-0.426563 0.807586 -0.150039 
-0.334467 0.807586 -0.150039 
-0.289243 0.830904 -0.118005 
-0.425621 0.830904 -0.118005 
-0.105251 0.183688 -0.11777 
-0.094216 0.237579 -0.11777 
-0.136106 0.138146 -0.11777 
-0.181648 0.107291 -0.211986 
-0.181648 0.107291 -0.11777 
-0.23554 0.096255 -0.11777 
-0.289431 0.107291 -0.11777 
-0.334973 0.138146 -0.11777 
-0.365829 0.183688 -0.11777 
-0.376864 0.237579 -0.11777 
-0.365829 0.291471 -0.11777 
-0.334973 0.337013 -0.11777 
-0.289431 0.367868 -0.11777 
-0.23554 0.378903 -0.11777 
-0.181648 0.367868 -0.11777 
-0.136107 0.337013 -0.11777 
-0.105251 0.291471 -0.11777 
-0.094216 0.708659 -0.11777 
-0.105522 0.654956 -0.11777 
-0.136613 0.609733 -0.11777 
-0.136613 0.609733 -0.211986 
-0.181837 0.578641 -0.11777 
-0.23554 0.567335 -0.11777 
-0.289243 0.578641 -0.11777 
-0.334467 0.609733 -0.11777 
-0.365558 0.654956 -0.11777 
-0.376864 0.708659 -0.11777 
-0.365558 0.762362 -0.11777 
-0.334467 0.807586 -0.11777 
-0.136613 0.807586 -0.11777 
-0.105522 0.762362 -0.11777 
-0.054014 0.590889 0 
-0.047108 0.590889 0 
-0.047108 0.59626 -0.02704 
-0.054014 0.596267 -0.027035 
-0.047108 0.611593 -0.049958 
-0.054014 0.611606 -0.049945 
-0.054014 0.634516 -0.065284 
-0.181837 0.634605 -0.06515 
-0.181837 0.611841 -0.049711 
-0.047108 0.634511 -0.065292 
-0.047108 0.661551 -0.070662 
-0.054014 0.661551 -0.070662 
-0.047108 0.688591 -0.065292 
-0.054014 0.688586 -0.065284 
-0.047108 0.711509 -0.049958 
-0.054014 0.711497 -0.049945 
-0.054014 0.726836 -0.027035 
-0.181837 0.726702 -0.026946 
-0.181837 0.711262 -0.049711 
-0.054014 0.732213 0 
-0.181837 0.732213 0 
-0.054014 0.726836 0.027035 
-0.181837 0.726702 0.026946 
-0.047108 0.726843 0.02704 
-0.047108 0.711509 0.049958 
-0.054014 0.711497 0.049945 
-0.047108 0.688591 0.065292 
-0.054014 0.688586 0.065285 
-0.047108 0.661551 0.070662 
-0.054014 0.661551 0.070662 
-0.054014 0.634516 0.065285 
-0.054014 0.611606 0.049945 
-0.181837 0.611841 0.049711 
-0.047108 0.611593 0.049958 
-0.047108 0.59626 0.02704 
-0.054014 0.596267 0.027035 
-0.376864 0.096255 -0.11777 
-0.094216 0.367597 -0.11777 
-0.10097 0.378903 -0.11777 
-0.094216 0.336506 -0.11777 
-0.094216 0.291282 -0.11777 
-0.094216 0.138653 -0.11777 
-0.094216 0.107561 -0.11777 
-0.094216 0.096255 -0.11777 
-0.376864 0.107561 -0.11777 
-0.376864 0.138653 -0.11777 
-0.376864 0.183876 -0.11777 
-0.376864 0.336506 -0.11777 
-0.376864 0.367597 -0.11777 
-0.370163 0.378057 -0.11777 
-0.376864 0.372149 -0.11777 
-0.370109 0.378903 -0.11777 
-0.104345 0.389032 -0.11777 
-0.104345 0.473119 -0.11777 
-0.366735 0.473119 -0.11777 
-0.366735 0.389032 -0.11777 
-0.376864 0.012169 0.154749 
-0.376864 0.086126 0.080791 
-0.376864 0.086126 0.154749 
-0.376864 0.096255 0.060533 
-0.376864 0.46299 0.060533 
-0.376864 0.46299 -0.11777 
-0.094216 0.012169 0.154749 
-0.094216 0.086126 0.080791 
-0.094216 0.086126 0.154749 
-0.094216 0.096255 0.060533 
-0.094216 0.46299 0.060533 
-0.094216 0.46299 -0.11777 
-0.366735 0.473119 0.070662 
-0.104345 0.473119 0.070662 
-0.104345 0.096255 0.070662 
-0.366734 0.096255 0.070662 
-0.366734 0.096255 0.164878 
-0.104345 0.096255 0.164878 
-0.181837 0.596401 -0.026946 
-0.181837 0.590889 0 
-0.181837 0.762362 -0.11777 
-0.181837 0.791569 -0.11777 
-0.181837 0.728682 -0.11777 
-0.181837 0.612088 -0.11777 
-0.337764 0.654956 -0.11777 
-0.337764 0.609733 -0.11777 
-0.337764 0.708659 -0.11777 
-0.337764 0.762362 -0.11777 
-0.337764 0.802875 0 
-0.181837 0.802875 0 
-0.181837 0.802875 -0.11777 
-0.337764 0.760931 0.006883 
-0.181837 0.791569 -0.002199 
-0.181837 0.761361 -0.002597 
-0.181837 0.616799 -0.11777 
-0.181837 0.596542 -0.11777 
-0.181837 0.711262 0.049711 
-0.181837 0.715254 0.130018 
-0.181837 0.72656 0.122245 
-0.181837 0.688497 0.06515 
-0.181837 0.688403 0.135671 
-0.181837 0.596542 0.122245 
-0.181837 0.596401 0.026946 
-0.181837 0.578641 0.109997 
-0.337764 0.791569 0.053703 
-0.181837 0.791569 0.053703 
-0.337764 0.760478 0.098927 
-0.181837 0.760478 0.098927 
-0.337764 0.715254 0.130018 
-0.337764 0.661551 0.141324 
-0.334467 0.609733 0.130489 
-0.289243 0.578641 0.109997 
-0.23554 0.567335 0.102224 
-0.459303 0.002039 0.246311 
-0.45217 0.18035 0.122347 
-0.45217 0.18035 0.248932 
-0.035331 0.180342 0.122332 
-0.035331 0.180342 0.248909 
-0.035331 0.430397 0.131201 
-0.035331 0.473867 0.132058 
-0.035331 0.444854 0.089505 
-0.035331 0.444854 -0.089505 
-0.035331 0.496673 -0.164878 
-0.047108 0.444854 0.089505 
-0.047108 0.474476 0.13295 
-0.035331 0.426011 0 
-0.047108 0.426011 0 
-0.047108 0.444854 -0.089505 
-0.047108 0.496673 -0.164878 
-0.047108 0.856578 -0.080555 
-0.424678 0.856578 -0.080555 
-0.047108 0.873537 0 
-0.423972 0.873537 0 
-0.057237 0.809941 0.14839 
-0.057237 0.856578 0.080555 
-0.414547 0.856578 0.080555 
-0.416429 0.809941 0.14839 
-0.439865 0.233845 0.141324 
-0.04546 0.233664 0.141324 
-0.04546 0.266147 0.141324 
-0.438573 0.265635 0.141324 
-0.376864 0.002039 0.149442 
-0.047108 0.726843 -0.02704 
-0.047108 0.732213 0 
-0.422314 0.661551 0.211986 
-0.425612 0.580997 0.195027 
-0.057237 0.580997 0.195027 
-0.057237 0.661551 0.211986 
-0.047108 0.609733 -0.211986 
-0.047108 0.85797 0.073945 
-0.047108 0.853258 0.076394 
-0.047108 0.851229 0.074716 
-0.047108 0.847072 0.076634 
-0.047108 0.802657 0.141106 
-0.047108 0.738166 0.185477 
-0.047108 0.661551 0.201635 
-0.047108 0.634511 0.065292 
-0.047108 0.584939 0.185471 
-0.047108 0.512721 0.13299 
-0.047108 0.494392 0.131447 
-0.047108 0.479743 0.135452 
-0.047108 0.487514 0.132183 
-0.047108 0.579647 -0.211986 
-0.424832 0.852752 0.069926 
-0.424745 0.854893 0.070206 
-0.426693 0.80664 0.136967 
-0.429479 0.739897 0.18471 
-0.432503 0.660284 0.201622 
-0.435755 0.580931 0.183671 
-0.438969 0.504654 0.130773 
-0.035331 0.186555 0.132084 
-0.035331 0.185871 0.131258 
-0.035331 0.187829 0.131367 
-0.035331 0.400032 0.131195 
-0.035331 0.409404 0.131195 
-0.035331 0.375372 0.131195 
-0.035331 0.342163 0.131195 
-0.035331 0.302402 0.131195 
-0.035331 0.263799 0.131195 
-0.035331 0.230954 0.131195 
-0.035331 0.20592 0.131198 
-0.035331 0.107681 -0.211986 
-0.04546 0.410311 0.141324 
-0.04546 0.426909 0.141324 
-0.431983 0.427741 0.141324 
-0.43268 0.410587 0.141324 
-0.04546 0.304322 0.141324 
-0.436989 0.304586 0.141324 
-0.053586 0.857271 0.077263 
-0.051476 0.85707 0.07822 
-0.035331 0.411426 0.131226 
-0.43925 0.496002 -0.211986 
-0.04546 0.190471 0.141324 
-0.04546 0.190471 0.248965 
-0.441636 0.190471 0.248965 
-0.441632 0.190471 0.141324 
-0.44876 0.012169 0.259094 
-0.442033 0.180342 0.259094 
-0.04546 0.180342 0.259094 
-0.04546 0.012169 0.259094 
-0.052877 0.47573 0.141324 
-0.04546 0.442171 0.141324 
-0.04546 0.471476 0.141324 
-0.057237 0.502797 0.141324 
-0.057237 0.480185 0.141324 
-0.429851 0.480185 0.141324 
-0.42891 0.502797 0.141324 
-0.419254 0.742106 0.195027 
-0.057237 0.742106 0.195027 
-0.04546 0.400998 0.141324 
-0.433057 0.401306 0.141324 
-0.04546 0.376529 0.141324 
-0.43405 0.376901 0.141324 
-0.435388 0.343977 0.141324 
-0.04546 0.343673 0.141324 
-0.451922 0.186549 0.132085 
-0.451949 0.185874 0.131269 
-0.451872 0.187817 0.131369 
-0.451164 0.205042 0.131198 
-0.450107 0.23112 0.131195 
-0.448794 0.263553 0.131195 
-0.447199 0.302672 0.131195 
-0.445582 0.342474 0.131195 
-0.444228 0.375753 0.131195 
-0.443231 0.400348 0.131195 
-0.442851 0.409685 0.131195 
-0.442096 0.428268 0.131195 
-0.439967 0.480639 0.131194 
-0.376864 0.094702 0.060912 
-0.094216 0.006269 0.155884 
-0.094216 0.004564 0.154373 
-0.094216 0.004605 0.149942 
-0.181837 0.735446 0.141181 
-0.181837 0.578641 -0.006905 
-0.23554 0.567335 -0.010688 
-0.289243 0.578641 -0.006905 
-0.334467 0.609733 0.004715 
-0.337764 0.658567 0.008173 
-0.337764 0.712756 0.00749 
-0.440918 0.207941 0.141324 
-0.04546 0.208796 0.141324 
-0.094216 0.372149 -0.11777 
-0.424645 0.857374 0.073873 
-0.42462 0.85797 0.073946 
-0.420299 0.857072 0.07821 
-0.41817 0.857272 0.077261 
-0.376864 0.086971 0.07965 
-0.376864 0.00457 0.152387 
-0.376864 0.094746 0.066926 
-0.376864 0.09101 0.074398 
-0.094216 0.094702 0.060912 
-0.094216 0.086935 0.079608 
-0.098584 0.470733 -0.11777 
-0.096602 0.468751 -0.11777 
-0.096602 0.468751 0.066294 
-0.098584 0.470733 0.068276 
-0.372496 0.470733 0.068276 
-0.374477 0.468751 0.066294 
-0.374477 0.468751 -0.11777 
-0.372496 0.470733 -0.11777 
-0.374477 0.091888 0.16051 
-0.372489 0.093876 0.162499 
-0.371574 0.004251 0.162666 
-0.374303 0.006595 0.160323 
-0.455262 0.002039 0.251064 
-0.448464 0.002039 0.251864 
-0.371096 0.002039 0.162142 
-0.374765 0.002039 0.157358 
-0.374477 0.091888 0.07503 
-0.372496 0.093869 0.073048 
-0.372496 0.096255 0.068276 
-0.374477 0.096255 0.066294 
-0.096602 0.091888 0.16051 
-0.098587 0.093873 0.162495 
-0.099081 0.004329 0.162589 
-0.096702 0.006512 0.160406 
-0.044073 0.002039 0.251493 
-0.038765 0.002039 0.250189 
-0.096142 0.002039 0.155469 
-0.099659 0.002039 0.161559 
-0.096602 0.091888 0.07503 
-0.098584 0.093869 0.073048 
-0.096602 0.096255 0.066294 
-0.098584 0.096255 0.068276 
-0.447193 0.004426 0.254726 
-0.449497 0.006407 0.256708 
-0.044004 0.006407 0.256708 
-0.045598 0.004426 0.254726 
-0.449647 0.18372 0.254727 
-0.447664 0.183719 0.256708 
-0.454457 0.006695 0.256451 
-0.457108 0.004148 0.253244 
-0.037717 0.183717 0.254726 
-0.039699 0.183717 0.256708 
-0.040163 0.006872 0.25632 
-0.037268 0.003976 0.252141 
-0.447445 0.188133 0.25234 
-0.449602 0.186061 0.25234 
-0.449601 0.18606 0.133053 
-0.447442 0.188134 0.136941 
-0.448714 0.206683 0.136956 
-0.446711 0.20725 0.138937 
-0.447442 0.18984 0.138957 
-0.449405 0.189331 0.137048 
-0.445182 0.186103 0.256708 
-0.445105 0.188085 0.254726 
-0.042085 0.188085 0.254726 
-0.042085 0.186103 0.256708 
-0.431392 0.580981 0.192339 
-0.433348 0.580968 0.190151 
-0.43661 0.503595 0.136793 
-0.43467 0.503237 0.138826 
-0.428092 0.661253 0.209546 
-0.430083 0.661005 0.207522 
-0.435612 0.480292 0.138937 
-0.437591 0.480381 0.136956 
-0.425019 0.74159 0.192619 
-0.427057 0.74115 0.190564 
-0.422181 0.809178 0.145748 
-0.424272 0.808506 0.143422 
-0.420421 0.855649 0.077973 
-0.422282 0.854956 0.076049 
-0.037717 0.186103 0.133134 
-0.039699 0.188085 0.136849 
-0.039699 0.188085 0.25234 
-0.037717 0.186103 0.25234 
-0.037716 0.207562 0.136955 
-0.039699 0.208126 0.138938 
-0.039679 0.189843 0.138958 
-0.037735 0.189336 0.137047 
-0.039699 0.427724 0.138938 
-0.037715 0.428407 0.136954 
-0.038339 0.474845 0.137904 
-0.039468 0.474419 0.138934 
-0.039695 0.410572 0.138941 
-0.037721 0.410789 0.136973 
-0.050706 0.478407 0.138716 
-0.049778 0.477885 0.137949 
-0.04942 0.507207 0.137621 
-0.051511 0.505131 0.139364 
-0.051476 0.483618 0.138938 
-0.0494 0.486603 0.136862 
-0.049494 0.661551 0.207523 
-0.051476 0.661551 0.209547 
-0.051476 0.581925 0.192777 
-0.049497 0.582694 0.190911 
-0.049494 0.740407 0.190909 
-0.051476 0.741178 0.192777 
-0.049508 0.852507 0.078876 
-0.051462 0.854335 0.079629 
-0.051476 0.808225 0.146674 
-0.049494 0.8068 0.145249 
-0.437743 0.427872 0.138937 
-0.439721 0.427975 0.136956 
-0.039699 0.400768 0.138938 
-0.037717 0.400579 0.136956 
-0.037717 0.409918 0.136956 
-0.039699 0.410095 0.138938 
-0.039699 0.376253 0.138938 
-0.037717 0.376027 0.136956 
-0.039699 0.343314 0.138938 
-0.037717 0.343019 0.136956 
-0.039699 0.303867 0.138938 
-0.037717 0.303492 0.136956 
-0.039699 0.265597 0.138938 
-0.037717 0.265137 0.136956 
-0.039699 0.233024 0.138938 
-0.037717 0.232494 0.136956 
-0.440443 0.4102 0.136957 
-0.438454 0.410377 0.138937 
-0.440822 0.400896 0.136956 
-0.438832 0.401083 0.138937 
-0.441816 0.376409 0.136957 
-0.439826 0.376634 0.138937 
-0.443161 0.343331 0.136957 
-0.441168 0.343625 0.138937 
-0.442773 0.304137 0.138937 
-0.444769 0.303763 0.136957 
-0.446355 0.264794 0.136956 
-0.444357 0.265174 0.138938 
-0.447658 0.232672 0.136957 
-0.445656 0.233204 0.138937 
-0.035331 0.407678 0.134539 
-0.047108 0.486538 0.134862 
-0.035331 0.413078 0.134621 
-0.376864 0.005798 0.15657 
-0.376864 0.005035 0.156175 
-0.094216 0.094746 0.066926 
-0.094216 0.09101 0.074398 
3 0 1 2 
3 0 2 3 
3 0 3 4 
3 5 6 7 
3 5 7 8 
3 5 8 9 
3 10 11 12 
3 10 12 13 
3 10 13 14 
3 15 16 17 
3 15 17 18 
3 15 18 19 
3 20 21 16 
3 20 16 15 
3 20 15 19 
3 22 23 24 
3 22 24 25 
3 22 25 26 
3 27 28 29 
3 27 29 30 
3 27 30 31 
3 27 31 19 
3 32 14 10 
3 32 10 33 
3 34 14 13 
3 34 13 35 
3 36 37 38 
3 36 38 39 
3 40 41 42 
3 40 42 43 
3 41 44 45 
3 41 45 42 
3 44 46 47 
3 44 47 45 
3 48 49 33 
3 48 33 50 
3 50 51 52 
3 50 52 48 
3 53 52 51 
3 53 51 54 
3 54 55 56 
3 54 56 53 
3 57 56 55 
3 57 55 58 
3 58 59 60 
3 58 60 57 
3 17 60 59 
3 17 59 18 
3 61 25 24 
3 61 24 20 
3 62 23 22 
3 62 22 63 
3 64 65 66 
3 64 66 67 
3 68 66 65 
3 68 65 69 
3 70 68 69 
3 70 69 71 
3 72 70 71 
3 72 71 73 
3 74 75 23 
3 74 23 76 
3 76 77 78 
3 76 78 74 
3 79 78 77 
3 79 77 80 
3 80 81 82 
3 80 82 79 
3 83 82 81 
3 83 81 84 
3 85 83 84 
3 85 84 86 
3 86 87 88 
3 86 88 85 
3 41 44 89 
3 41 89 90 
3 44 46 91 
3 44 91 89 
3 46 92 93 
3 46 93 91 
3 92 33 94 
3 92 94 93 
3 33 50 95 
3 33 95 94 
3 50 51 96 
3 50 96 95 
3 51 54 97 
3 51 97 96 
3 54 55 98 
3 54 98 97 
3 55 58 99 
3 55 99 98 
3 58 59 100 
3 58 100 99 
3 59 18 101 
3 59 101 100 
3 18 19 102 
3 18 102 101 
3 19 27 103 
3 19 103 102 
3 27 28 104 
3 27 104 103 
3 28 40 105 
3 28 105 104 
3 40 41 90 
3 40 90 105 
3 106 107 67 
3 106 67 66 
3 107 108 109 
3 107 109 67 
3 108 110 62 
3 108 62 109 
3 110 111 23 
3 110 23 62 
3 111 112 76 
3 111 76 23 
3 112 113 77 
3 112 77 76 
3 113 114 80 
3 113 80 77 
3 114 115 81 
3 114 81 80 
3 115 116 84 
3 115 84 81 
3 116 117 86 
3 116 86 84 
3 118 119 68 
3 118 68 70 
3 119 106 66 
3 119 66 68 
3 120 121 122 
3 120 122 123 
3 123 122 124 
3 123 124 125 
3 125 126 127 
3 125 127 128 
3 126 129 130 
3 126 130 131 
3 131 130 132 
3 131 132 133 
3 133 132 134 
3 133 134 135 
3 135 136 137 
3 135 137 138 
3 136 139 140 
3 136 140 137 
3 139 141 142 
3 139 142 140 
3 141 143 144 
3 141 144 145 
3 145 144 146 
3 145 146 147 
3 147 146 148 
3 147 148 149 
3 149 150 5 
3 149 5 9 
3 150 151 152 
3 150 152 5 
3 151 153 154 
3 151 154 155 
3 155 154 121 
3 155 121 120 
3 94 12 156 
3 102 103 157 
3 102 157 158 
3 103 104 159 
3 103 159 157 
3 104 105 160 
3 104 160 159 
3 105 90 160 
3 90 89 161 
3 161 89 91 
3 161 91 162 
3 162 91 93 
3 162 93 163 
3 93 94 163 
3 94 95 164 
3 94 164 156 
3 95 96 165 
3 95 165 164 
3 96 97 166 
3 96 166 165 
3 97 98 166 
3 98 99 167 
3 167 99 100 
3 167 100 168 
3 168 169 170 
3 101 102 171 
3 101 171 169 
3 172 173 174 
3 172 174 175 
3 176 177 178 
3 156 179 180 
3 156 180 181 
3 182 183 184 
3 163 185 186 
3 163 186 187 
3 188 174 173 
3 188 173 189 
3 188 189 190 
3 188 190 191 
3 190 191 192 
3 190 192 193 
3 193 192 38 
3 193 38 37 
3 123 194 195 
3 123 195 120 
3 125 128 194 
3 125 194 123 
3 125 124 129 
3 125 129 126 
3 118 119 196 
3 118 196 197 
3 119 198 196 
3 106 107 3 
3 106 3 1 
3 107 108 199 
3 107 199 3 
3 108 110 199 
3 113 200 114 
3 114 201 113 
3 114 115 202 
3 114 202 200 
3 115 116 203 
3 115 203 202 
3 116 117 203 
3 204 205 206 
3 204 206 117 
3 207 203 117 
3 207 117 204 
3 205 208 197 
3 205 197 206 
3 208 209 196 
3 208 196 197 
3 137 196 198 
3 137 198 138 
3 138 198 1 
3 138 1 0 
3 131 4 127 
3 131 127 126 
3 127 4 3 
3 127 3 210 
3 128 127 210 
3 128 210 199 
3 194 128 199 
3 194 199 211 
3 195 194 211 
3 195 211 110 
3 142 212 213 
3 142 213 214 
3 212 215 216 
3 212 216 213 
3 215 9 8 
3 215 8 216 
3 133 0 4 
3 133 4 131 
3 6 5 152 
3 6 152 217 
3 217 152 218 
3 217 218 219 
3 218 195 219 
3 204 220 221 
3 204 221 205 
3 220 222 223 
3 220 223 221 
3 222 224 213 
3 222 213 223 
3 224 225 8 
3 224 8 213 
3 225 226 6 
3 225 6 8 
3 6 226 227 
3 6 227 219 
3 219 227 228 
3 229 11 230 
3 229 230 231 
3 34 14 232 
3 34 232 233 
3 234 235 236 
3 237 238 25 
3 237 25 61 
3 238 26 25 
3 235 236 239 
3 235 239 240 
3 236 241 242 
3 236 242 239 
3 241 237 243 
3 241 243 242 
3 237 238 244 
3 237 244 243 
3 238 26 22 
3 238 22 244 
3 245 73 88 
3 245 88 246 
3 247 245 246 
3 247 246 248 
3 135 138 0 
3 135 0 133 
3 249 250 251 
3 249 251 252 
3 253 254 255 
3 253 255 256 
3 11 229 257 
3 11 257 12 
3 135 134 258 
3 135 258 136 
3 136 258 259 
3 136 259 139 
3 139 259 143 
3 139 143 141 
3 260 261 262 
3 260 262 263 
3 145 212 142 
3 145 142 141 
3 206 117 87 
3 206 87 72 
3 122 121 242 
3 122 242 243 
3 124 122 243 
3 124 243 244 
3 129 124 244 
3 129 244 22 
3 130 264 64 
3 132 65 69 
3 134 132 69 
3 134 69 71 
3 258 134 73 
3 258 73 245 
3 259 258 245 
3 259 245 247 
3 247 265 266 
3 247 266 267 
3 144 143 268 
3 144 268 269 
3 146 144 269 
3 146 269 270 
3 148 146 270 
3 148 270 271 
3 272 148 271 
3 272 271 273 
3 153 272 273 
3 153 273 274 
3 275 153 274 
3 121 154 239 
3 121 239 242 
3 276 240 239 
3 276 239 277 
3 278 129 22 
3 130 129 278 
3 130 278 264 
3 132 130 64 
3 132 64 65 
3 73 134 71 
3 246 88 85 
3 246 85 248 
3 248 279 280 
3 279 83 82 
3 279 82 281 
3 281 82 79 
3 281 79 282 
3 282 79 78 
3 282 78 283 
3 283 78 74 
3 283 74 284 
3 284 74 75 
3 284 75 285 
3 286 287 232 
3 286 232 288 
3 289 30 31 
3 289 31 290 
3 291 29 30 
3 291 30 289 
3 292 43 29 
3 292 29 291 
3 293 42 43 
3 293 43 292 
3 294 45 42 
3 294 42 293 
3 295 47 45 
3 295 45 294 
3 296 297 47 
3 296 47 295 
3 288 32 297 
3 288 297 296 
3 11 49 33 
3 11 33 10 
3 94 163 13 
3 147 215 212 
3 147 212 145 
3 31 61 20 
3 31 20 19 
3 298 299 300 
3 298 300 301 
3 149 9 215 
3 149 215 147 
3 149 148 272 
3 149 272 150 
3 150 272 153 
3 150 153 151 
3 155 218 152 
3 155 152 151 
3 302 303 256 
3 302 256 255 
3 120 195 218 
3 120 218 155 
3 304 305 265 
3 304 265 247 
3 290 31 241 
3 290 241 306 
3 24 23 75 
3 24 75 307 
3 20 24 307 
3 20 307 21 
3 308 309 310 
3 308 310 311 
3 312 313 314 
3 312 314 315 
3 316 317 318 
3 319 320 321 
3 319 321 322 
3 43 29 28 
3 43 28 40 
3 319 262 261 
3 319 261 322 
3 252 323 324 
3 252 324 249 
3 325 298 301 
3 325 301 326 
3 297 47 46 
3 297 46 92 
3 32 297 92 
3 32 92 33 
3 327 325 326 
3 327 326 328 
3 241 236 234 
3 241 234 306 
3 237 241 31 
3 237 31 61 
3 328 329 330 
3 328 330 327 
3 331 332 230 
3 331 230 333 
3 333 49 48 
3 333 48 334 
3 334 48 52 
3 334 52 335 
3 335 52 53 
3 335 53 336 
3 336 53 56 
3 336 56 337 
3 337 56 57 
3 337 57 338 
3 338 57 60 
3 338 60 339 
3 339 60 17 
3 339 17 340 
3 340 17 16 
3 340 16 341 
3 341 16 21 
3 341 21 342 
3 342 21 307 
3 342 307 343 
3 343 307 75 
3 343 75 285 
3 302 330 329 
3 302 329 303 
3 205 221 208 
3 221 223 209 
3 221 209 208 
3 12 156 179 
3 12 179 344 
3 182 345 346 
3 182 346 347 
3 264 64 67 
3 264 67 109 
3 63 264 109 
3 63 109 62 
3 321 300 299 
3 321 299 320 
3 196 137 140 
3 196 140 209 
3 209 140 142 
3 209 142 223 
3 223 142 214 
3 223 214 348 
3 118 197 206 
3 118 206 72 
3 70 72 118 
3 87 86 117 
3 119 106 1 
3 119 1 198 
3 349 350 111 
3 349 111 110 
3 350 351 112 
3 350 112 111 
3 351 352 113 
3 351 113 112 
3 219 228 350 
3 219 350 349 
3 228 227 351 
3 228 351 350 
3 227 226 352 
3 227 352 351 
3 195 110 349 
3 219 195 349 
3 353 352 113 
3 353 113 200 
3 353 200 202 
3 353 202 354 
3 354 202 203 
3 354 203 207 
3 224 354 207 
3 224 207 222 
3 225 353 354 
3 225 354 224 
3 225 226 352 
3 225 352 353 
3 207 204 220 
3 207 220 222 
3 253 355 356 
3 253 356 254 
3 355 311 308 
3 355 308 356 
3 323 260 263 
3 323 263 324 
3 157 357 158 
3 168 100 101 
3 168 101 169 
3 247 267 268 
3 275 277 239 
3 248 280 358 
3 248 358 359 
3 251 250 247 
3 251 247 248 
3 248 359 360 
3 248 360 361 
3 362 177 176 
3 362 176 363 
3 364 365 362 
3 364 362 344 
3 13 163 185 
3 13 185 366 
3 347 35 367 
3 368 369 370 
3 368 370 371 
3 372 373 374 
3 372 374 375 
3 376 377 378 
3 376 378 379 
3 380 381 382 
3 380 382 383 
3 384 385 377 
3 384 377 376 
3 386 387 373 
3 386 373 372 
3 388 389 390 
3 388 390 391 
3 392 393 394 
3 392 394 395 
3 396 397 389 
3 396 389 388 
3 398 399 371 
3 398 371 370 
3 400 401 402 
3 400 402 403 
3 404 405 406 
3 404 406 407 
3 408 409 410 
3 408 410 411 
3 412 413 414 
3 412 414 415 
3 416 417 418 
3 416 418 419 
3 420 421 422 
3 420 422 423 
3 424 425 426 
3 424 426 427 
3 428 429 425 
3 428 425 424 
3 430 431 426 
3 430 426 427 
3 432 433 429 
3 432 429 428 
3 433 432 434 
3 433 434 435 
3 435 434 436 
3 435 436 437 
3 438 439 440 
3 438 440 441 
3 442 443 444 
3 442 444 445 
3 446 447 448 
3 446 448 449 
3 447 446 450 
3 447 450 451 
3 452 453 449 
3 452 449 448 
3 454 455 456 
3 454 456 457 
3 458 459 460 
3 458 460 461 
3 462 463 459 
3 462 459 458 
3 464 465 466 
3 464 466 467 
3 463 462 467 
3 463 467 466 
3 431 430 468 
3 431 468 469 
3 455 454 461 
3 455 461 460 
3 470 471 472 
3 470 472 473 
3 474 475 471 
3 474 471 470 
3 475 474 476 
3 475 476 477 
3 477 476 478 
3 477 478 479 
3 479 478 480 
3 479 480 481 
3 481 480 482 
3 481 482 483 
3 443 442 483 
3 443 483 482 
3 468 469 484 
3 468 484 485 
3 485 484 486 
3 485 486 487 
3 487 486 488 
3 487 488 489 
3 489 488 490 
3 489 490 491 
3 490 491 492 
3 490 492 493 
3 492 493 494 
3 492 494 495 
3 495 494 496 
3 495 496 497 
3 496 497 417 
3 496 417 416 
3 386 364 387 
3 345 394 346 
3 380 406 401 
3 380 401 381 
3 418 415 419 
3 405 404 413 
3 437 436 360 
3 445 444 439 
3 453 452 457 
3 464 266 265 
3 464 265 305 
3 498 451 450 
3 498 450 473 
3 277 499 276 
3 248 85 83 
3 248 83 279 
3 14 32 288 
3 14 288 232 
3 498 500 290 
3 290 306 498 
3 11 49 333 
3 11 333 230 
3 367 183 182 
3 367 182 347 
3 299 317 316 
3 299 316 320 
3 143 259 247 
3 143 247 268 
3 153 275 239 
3 153 239 154 
3 250 304 247 
3 361 251 248 
3 176 501 502 
3 176 502 363 
3 12 344 362 
3 12 362 257 
3 363 257 362 
3 503 504 367 
3 503 367 366 
3 13 366 367 
3 13 367 35 
3 386 385 365 
3 386 365 364 
3 385 384 365 
3 345 391 395 
3 345 395 394 
3 391 390 395 
3 380 407 406 
3 400 381 401 
3 415 414 331 
3 415 331 419 
3 414 332 331 
3 420 412 421 
3 405 413 412 
3 405 412 420 
3 358 437 360 
3 358 360 359 
3 286 445 439 
3 286 439 438 
3 438 287 286 
3 452 276 499 
3 452 499 457 
3 457 456 453 
3 305 465 464 
3 472 500 498 
3 473 472 498 
3 317 446 449 
3 317 449 318 
3 318 449 453 
3 318 453 316 
3 446 299 298 
3 446 298 450 
3 321 430 468 
3 321 468 300 
3 300 468 485 
3 300 485 301 
3 321 430 427 
3 321 427 322 
3 319 455 456 
3 319 456 320 
3 480 255 254 
3 480 254 482 
3 255 480 478 
3 255 478 302 
3 356 443 482 
3 356 482 254 
3 256 495 497 
3 256 497 253 
3 497 253 355 
3 497 355 417 
3 495 256 303 
3 495 303 492 
3 329 491 492 
3 329 492 303 
3 302 478 476 
3 302 476 330 
3 35 394 393 
3 35 393 34 
3 411 34 233 
3 411 233 408 
3 381 39 38 
3 381 38 382 
3 403 36 39 
3 403 39 400 
3 192 377 378 
3 192 378 38 
3 36 392 395 
3 36 395 37 
3 389 193 37 
3 389 37 390 
3 375 174 188 
3 375 188 372 
3 371 189 173 
3 371 173 368 
3 376 178 177 
3 376 177 384 
3 178 376 379 
3 178 379 176 
3 373 180 181 
3 373 181 374 
3 387 179 180 
3 387 180 373 
3 388 184 183 
3 388 183 396 
3 391 182 184 
3 391 184 388 
3 186 370 369 
3 186 369 187 
3 370 186 185 
3 370 185 398 
3 399 190 189 
3 399 189 371 
3 191 386 372 
3 191 372 188 
3 385 191 192 
3 385 192 377 
3 397 190 193 
3 397 193 389 
3 413 231 230 
3 413 230 414 
3 231 404 407 
3 231 407 229 
3 229 380 383 
3 229 383 257 
3 441 233 232 
3 441 232 438 
3 447 234 235 
3 447 235 448 
3 448 235 240 
3 448 240 452 
3 234 447 451 
3 234 451 306 
3 434 252 251 
3 434 251 436 
3 432 323 252 
3 432 252 434 
3 465 250 249 
3 465 249 466 
3 324 463 466 
3 324 466 249 
3 459 263 262 
3 459 262 460 
3 463 324 263 
3 463 263 459 
3 460 262 319 
3 460 319 455 
3 260 428 424 
3 260 424 261 
3 427 322 261 
3 427 261 424 
3 428 260 323 
3 428 323 432 
3 268 464 467 
3 268 467 269 
3 269 467 462 
3 269 462 270 
3 458 271 270 
3 458 270 462 
3 271 458 461 
3 271 461 273 
3 454 274 273 
3 454 273 461 
3 457 275 274 
3 457 274 454 
3 437 279 281 
3 437 281 435 
3 435 281 282 
3 435 282 433 
3 283 429 433 
3 283 433 282 
3 284 425 429 
3 284 429 283 
3 425 284 285 
3 425 285 426 
3 431 343 285 
3 431 285 426 
3 296 442 445 
3 296 445 288 
3 471 289 290 
3 471 290 472 
3 475 291 289 
3 475 289 471 
3 291 475 477 
3 291 477 292 
3 479 293 292 
3 479 292 477 
3 481 294 293 
3 481 293 479 
3 483 295 294 
3 483 294 481 
3 295 483 442 
3 295 442 296 
3 487 326 301 
3 487 301 485 
3 325 470 473 
3 325 473 298 
3 415 311 310 
3 415 310 412 
3 417 355 311 
3 417 311 418 
3 309 422 421 
3 309 421 310 
3 439 308 309 
3 439 309 440 
3 443 356 308 
3 443 308 444 
3 409 314 315 
3 409 315 410 
3 315 402 401 
3 315 401 312 
3 423 314 313 
3 423 313 420 
3 405 313 312 
3 405 312 406 
3 326 487 489 
3 326 489 328 
3 327 474 470 
3 327 470 325 
3 328 489 491 
3 328 491 329 
3 474 327 330 
3 474 330 476 
3 334 416 419 
3 334 419 333 
3 335 496 416 
3 335 416 334 
3 494 336 335 
3 494 335 496 
3 337 493 494 
3 337 494 336 
3 493 337 338 
3 493 338 490 
3 339 488 490 
3 339 490 338 
3 486 340 339 
3 486 339 488 
3 341 484 486 
3 341 486 340 
3 469 342 341 
3 469 341 484 
3 469 342 343 
3 469 343 431 
3 446 317 299 
3 347 346 394 
3 347 394 35 
3 381 400 39 
3 395 390 37 
3 365 384 177 
3 365 177 362 
3 364 344 179 
3 364 179 387 
3 391 345 182 
3 385 386 191 
3 231 413 404 
3 230 332 414 
3 380 229 407 
3 438 232 287 
3 452 240 276 
3 361 360 436 
3 361 436 251 
3 465 305 304 
3 465 304 250 
3 267 266 464 
3 267 464 268 
3 457 499 277 
3 457 277 275 
3 358 280 279 
3 358 279 437 
3 286 288 445 
3 472 290 500 
3 473 450 298 
3 306 451 498 
3 311 415 418 
3 310 421 412 
3 439 444 308 
3 405 420 313 
3 401 406 312 
3 419 331 333 
