ply
format ascii 1.0
comment VCGLIB generated
element vertex 930
property float x
property float y
property float z
element face 930
property list uchar int vertex_indices
end_header
0.511244 0.21572 0.45352 
0.508999 0.214467 0.45352 
0.508999 0.214467 0.521585 
0.511244 0.21572 0.521585 
0.504428 0.212474 0.45352 
0.504428 0.212474 0.521585 
0.483538 0.205667 0.45352 
0.483538 0.205667 0.521585 
0.396713 0.178544 0.45352 
0.396713 0.178544 0.521585 
0.381602 0.171973 0.45352 
0.381602 0.171973 0.521585 
0.368771 0.164941 0.45352 
0.368771 0.164941 0.521585 
0.306179 0.12221 0.45352 
0.306179 0.12221 0.521585 
0.28493 0.104335 0.45352 
0.28493 0.104335 0.521585 
0.276426 0.096013 0.45352 
0.276426 0.096013 0.521585 
0.267391 0.085866 0.45352 
0.267391 0.085866 0.521585 
0.259515 0.075104 0.45352 
0.259515 0.075104 0.521585 
0.252589 0.063497 0.45352 
0.252589 0.063497 0.521585 
0.245767 0.049321 0.45352 
0.245767 0.049321 0.521585 
0.240367 0.034948 0.45352 
0.240367 0.034948 0.521585 
0.23646 0.020892 0.45352 
0.23646 0.020892 0.521585 
0.234351 0.009485 0.45352 
0.234351 0.009485 0.521585 
0.233434 -0.000989 0.45352 
0.233434 -0.000989 0.521585 
0.2334 -0.004218 0.45352 
0.2334 -0.004218 0.521585 
0.233612 -0.008773 0.45352 
0.233612 -0.008773 0.521585 
0.236028 -0.028055 0.45352 
0.236028 -0.028055 0.521585 
0.239008 -0.041494 0.45352 
0.239008 -0.041494 0.521585 
0.242134 -0.051388 0.45352 
0.242134 -0.051388 0.521585 
0.245784 -0.060666 0.45352 
0.245784 -0.060666 0.521585 
0.251661 -0.073135 0.45352 
0.251661 -0.073135 0.521585 
0.258168 -0.083835 0.45352 
0.258168 -0.083835 0.521585 
0.268146 -0.09759 0.45352 
0.268146 -0.09759 0.521585 
0.275924 -0.106855 0.45352 
0.275924 -0.106855 0.521585 
0.299939 -0.130598 0.45352 
0.299939 -0.130598 0.521585 
0.328643 -0.155355 0.45352 
0.328643 -0.155355 0.521585 
0.337958 -0.162169 0.45352 
0.337958 -0.162169 0.521585 
0.364073 -0.177839 0.45352 
0.364073 -0.177839 0.521585 
0.401754 -0.196788 0.45352 
0.401754 -0.196788 0.521585 
0.406585 -0.198718 0.45352 
0.406585 -0.198718 0.521585 
0.407258 -0.198872 0.45352 
0.407258 -0.198872 0.521585 
0.407397 -0.198848 0.45352 
0.407397 -0.198848 0.521585 
0.4074 -0.198755 0.45352 
0.4074 -0.198755 0.521585 
0.399917 -0.185847 0.45352 
0.399917 -0.185848 0.521585 
0.393352 -0.17107 0.45352 
0.393352 -0.17107 0.521585 
0.392282 -0.168092 0.45352 
0.392282 -0.168092 0.521585 
0.389372 -0.156913 0.45352 
0.389372 -0.156913 0.521585 
0.386465 -0.143393 0.45352 
0.386465 -0.143393 0.521585 
0.385883 -0.139616 0.45352 
0.385883 -0.139616 0.521585 
0.385472 -0.132854 0.45352 
0.385472 -0.132854 0.521585 
0.385689 -0.124946 0.45352 
0.385689 -0.124946 0.521585 
0.386708 -0.116531 0.45352 
0.386708 -0.116531 0.521585 
0.388022 -0.110563 0.45352 
0.388022 -0.110563 0.521585 
0.389475 -0.105991 0.45352 
0.389475 -0.105991 0.521585 
0.391318 -0.101729 0.45352 
0.391318 -0.101729 0.521585 
0.392977 -0.098807 0.45352 
0.392977 -0.098807 0.521585 
0.394888 -0.096176 0.45352 
0.394888 -0.096176 0.521585 
0.396309 -0.094609 0.45352 
0.396309 -0.094609 0.521585 
0.397065 -0.093886 0.45352 
0.397065 -0.093886 0.521585 
0.39867 -0.092574 0.45352 
0.39867 -0.092574 0.521585 
0.400423 -0.09141 0.45352 
0.400423 -0.09141 0.521585 
0.40335 -0.08987 0.45352 
0.40335 -0.08987 0.521585 
0.406597 -0.088571 0.45352 
0.406597 -0.088571 0.521585 
0.411355 -0.0872 0.45352 
0.411355 -0.0872 0.521585 
0.417857 -0.086042 0.45352 
0.417857 -0.086042 0.521585 
0.426222 -0.085419 0.45352 
0.426222 -0.085419 0.521585 
0.43635 -0.085673 0.45352 
0.43635 -0.085673 0.521585 
0.446384 -0.086891 0.45352 
0.446384 -0.086891 0.521585 
0.45581 -0.088975 0.45352 
0.45581 -0.088975 0.521585 
0.459536 -0.09011 0.45352 
0.459536 -0.09011 0.521585 
0.463014 -0.091378 0.45352 
0.463014 -0.091378 0.521585 
0.471073 -0.095069 0.45352 
0.471073 -0.095069 0.521585 
0.484149 -0.102569 0.45352 
0.484149 -0.102569 0.521585 
0.501438 -0.11449 0.45352 
0.501438 -0.11449 0.521585 
0.512726 -0.123568 0.45352 
0.512726 -0.123568 0.521585 
0.515853 -0.126679 0.45352 
0.515853 -0.126679 0.521585 
0.522405 -0.133997 0.45352 
0.522405 -0.133997 0.521585 
0.523076 -0.134531 0.45352 
0.523076 -0.134531 0.521585 
0.523509 -0.134808 0.45352 
0.523509 -0.134808 0.521585 
0.523932 -0.135017 0.45352 
0.523932 -0.135017 0.521585 
0.524346 -0.135153 0.45352 
0.524346 -0.135153 0.521585 
0.524551 -0.135192 0.45352 
0.524551 -0.135192 0.521585 
0.524754 -0.135211 0.45352 
0.524754 -0.135211 0.521585 
0.524955 -0.13521 0.45352 
0.524955 -0.13521 0.521585 
0.525156 -0.135187 0.45352 
0.525156 -0.135187 0.521585 
0.525355 -0.135144 0.45352 
0.525355 -0.135144 0.521585 
0.525553 -0.135078 0.45352 
0.525553 -0.135078 0.521585 
0.525751 -0.134989 0.45352 
0.525751 -0.134989 0.521585 
0.525949 -0.134878 0.45352 
0.525949 -0.134878 0.521585 
0.526343 -0.134583 0.45352 
0.526343 -0.134583 0.521585 
0.531273 -0.129883 0.45352 
0.531273 -0.129883 0.521585 
0.533586 -0.127359 0.45352 
0.533586 -0.127359 0.521585 
0.536001 -0.124447 0.45352 
0.536001 -0.124447 0.521585 
0.539761 -0.118685 0.45352 
0.539761 -0.118685 0.521585 
0.543666 -0.112646 0.45352 
0.543666 -0.112646 0.521585 
0.548117 -0.107313 0.45352 
0.548117 -0.107313 0.521585 
0.552493 -0.102942 0.45352 
0.552493 -0.102942 0.521585 
0.556055 -0.09995 0.45352 
0.556055 -0.09995 0.521585 
0.560494 -0.096879 0.45352 
0.560494 -0.096879 0.521585 
0.565237 -0.094259 0.45352 
0.565237 -0.094259 0.521585 
0.571528 -0.091498 0.45352 
0.571528 -0.091498 0.521585 
0.577859 -0.089289 0.45352 
0.577859 -0.089289 0.521585 
0.584597 -0.087312 0.45352 
0.584597 -0.087312 0.521585 
0.586941 -0.086787 0.45352 
0.586941 -0.086787 0.521585 
0.589231 -0.086517 0.45352 
0.589231 -0.086517 0.521585 
0.591486 -0.086481 0.45352 
0.591486 -0.086481 0.521585 
0.593722 -0.086657 0.45352 
0.593722 -0.086657 0.521585 
0.596407 -0.087119 0.45352 
0.596407 -0.087119 0.521585 
0.601894 -0.088724 0.45352 
0.601894 -0.088724 0.521585 
0.607741 -0.090997 0.45352 
0.607741 -0.090997 0.521585 
0.623317 -0.097596 0.45352 
0.623317 -0.097596 0.521585 
0.628908 -0.100891 0.45352 
0.628908 -0.100891 0.521585 
0.632915 -0.103804 0.45352 
0.632915 -0.103804 0.521585 
0.636842 -0.107261 0.45352 
0.636842 -0.107261 0.521585 
0.640607 -0.11133 0.45352 
0.640607 -0.11133 0.521585 
0.64205 -0.113144 0.45352 
0.64205 -0.113144 0.521585 
0.644129 -0.116079 0.45352 
0.644129 -0.116079 0.521585 
0.675974 -0.169809 0.45352 
0.675974 -0.169809 0.521585 
0.68971 -0.199345 0.45352 
0.68971 -0.199345 0.521585 
0.698475 -0.221404 0.45352 
0.698475 -0.221404 0.521585 
0.698857 -0.222175 0.45352 
0.698857 -0.222175 0.521585 
0.699047 -0.222446 0.45352 
0.699047 -0.222446 0.521585 
0.699237 -0.222644 0.45352 
0.699237 -0.222644 0.521585 
0.699426 -0.222771 0.45352 
0.699426 -0.222771 0.521585 
0.699614 -0.222829 0.45352 
0.699614 -0.222829 0.521585 
0.699802 -0.222821 0.45352 
0.699802 -0.222821 0.521585 
0.69999 -0.22275 0.45352 
0.69999 -0.22275 0.521585 
0.700177 -0.222618 0.45352 
0.700177 -0.222618 0.521585 
0.700364 -0.222427 0.45352 
0.700364 -0.222427 0.521585 
0.70055 -0.222181 0.45352 
0.70055 -0.222181 0.521585 
0.700921 -0.22153 0.45352 
0.700921 -0.22153 0.521585 
0.701476 -0.220194 0.45352 
0.701476 -0.220194 0.521585 
0.702578 -0.216479 0.45352 
0.702578 -0.216479 0.521585 
0.705132 -0.205049 0.45352 
0.705132 -0.205049 0.521585 
0.707704 -0.195251 0.45352 
0.707704 -0.195251 0.521585 
0.717184 -0.172818 0.45352 
0.717184 -0.172818 0.521585 
0.717772 -0.171559 0.45352 
0.717772 -0.17156 0.521585 
0.721589 -0.165116 0.45352 
0.721589 -0.165116 0.521585 
0.749888 -0.125128 0.45352 
0.749888 -0.125128 0.521585 
0.769036 -0.101905 0.45352 
0.769036 -0.101905 0.521585 
0.773714 -0.097205 0.45352 
0.773714 -0.097205 0.521585 
0.777441 -0.094232 0.45352 
0.777441 -0.094232 0.521585 
0.782988 -0.09111 0.45352 
0.782988 -0.09111 0.521585 
0.788448 -0.088723 0.45352 
0.788448 -0.088723 0.521585 
0.792995 -0.087235 0.45352 
0.792995 -0.087235 0.521585 
0.797364 -0.086236 0.45352 
0.797364 -0.086236 0.521585 
0.801503 -0.085703 0.45352 
0.801503 -0.085703 0.521585 
0.804738 -0.085598 0.45352 
0.804738 -0.085598 0.521585 
0.807747 -0.085788 0.45352 
0.807747 -0.085788 0.521585 
0.80997 -0.086142 0.45352 
0.80997 -0.086142 0.521585 
0.812012 -0.086668 0.45352 
0.812012 -0.086668 0.521585 
0.821263 -0.089876 0.45352 
0.821263 -0.089876 0.521585 
0.82538 -0.091814 0.45352 
0.82538 -0.091814 0.521585 
0.829204 -0.094075 0.45352 
0.829204 -0.094075 0.521585 
0.833813 -0.097395 0.45352 
0.833813 -0.097395 0.521585 
0.848186 -0.109729 0.45352 
0.848186 -0.109729 0.521585 
0.861986 -0.122594 0.45352 
0.861986 -0.122594 0.521585 
0.863199 -0.123901 0.45352 
0.863199 -0.123901 0.521585 
0.864204 -0.125255 0.45352 
0.864204 -0.125255 0.521585 
0.865028 -0.126629 0.45352 
0.865028 -0.126629 0.521585 
0.865888 -0.128453 0.45352 
0.865888 -0.128453 0.521585 
0.866662 -0.130636 0.45352 
0.866662 -0.130636 0.521585 
0.868022 -0.13523 0.45352 
0.868022 -0.13523 0.521585 
0.868224 -0.1356 0.45352 
0.868224 -0.1356 0.521585 
0.868334 -0.135751 0.45352 
0.868334 -0.135751 0.521585 
0.868451 -0.135878 0.45352 
0.868451 -0.135878 0.521585 
0.868576 -0.135979 0.45352 
0.868576 -0.135979 0.521585 
0.86871 -0.136054 0.45352 
0.86871 -0.136054 0.521585 
0.868854 -0.136102 0.45352 
0.868854 -0.136102 0.521585 
0.869009 -0.136122 0.45352 
0.869009 -0.136122 0.521585 
0.869176 -0.136114 0.45352 
0.869176 -0.136114 0.521585 
0.869355 -0.136075 0.45352 
0.869355 -0.136075 0.521585 
0.869548 -0.136006 0.45352 
0.869548 -0.136006 0.521585 
0.869756 -0.135905 0.45352 
0.869756 -0.135905 0.521585 
0.870219 -0.135604 0.45352 
0.870219 -0.135604 0.521585 
0.870752 -0.135166 0.45352 
0.870752 -0.135166 0.521585 
0.871362 -0.134583 0.45352 
0.871362 -0.134583 0.521585 
0.881131 -0.124441 0.45352 
0.881131 -0.124441 0.521585 
0.894044 -0.112577 0.45352 
0.894044 -0.112577 0.521585 
0.904042 -0.105271 0.45352 
0.904042 -0.105271 0.521585 
0.917885 -0.09668 0.45352 
0.917885 -0.09668 0.521585 
0.93413 -0.087991 0.45352 
0.93413 -0.087991 0.521585 
0.937116 -0.086734 0.45352 
0.937116 -0.086734 0.521585 
0.940507 -0.085699 0.45352 
0.940507 -0.085699 0.521585 
0.945554 -0.084659 0.45352 
0.945554 -0.084659 0.521585 
0.952507 -0.083904 0.45352 
0.952507 -0.083904 0.521585 
0.961429 -0.083789 0.45352 
0.961429 -0.083789 0.521585 
0.970528 -0.084528 0.45352 
0.970528 -0.084528 0.521585 
0.979325 -0.086111 0.45352 
0.979325 -0.086111 0.521585 
0.986078 -0.088068 0.45352 
0.986078 -0.088068 0.521585 
0.990902 -0.090046 0.45352 
0.990902 -0.090046 0.521585 
0.994089 -0.091769 0.45352 
0.994089 -0.091769 0.521585 
0.995976 -0.093031 0.45352 
0.995976 -0.093031 0.521585 
0.998403 -0.095092 0.45352 
0.998403 -0.095092 0.521585 
1.00047 -0.09739 0.45352 
1.00047 -0.09739 0.521585 
1.00233 -0.099936 0.45352 
1.00233 -0.099936 0.521585 
1.00451 -0.103662 0.45352 
1.00451 -0.103662 0.521585 
1.00634 -0.107695 0.45352 
1.00634 -0.107695 0.521585 
1.00818 -0.113052 0.45352 
1.00818 -0.113052 0.521585 
1.00974 -0.119744 0.45352 
1.00974 -0.119744 0.521585 
1.01065 -0.126478 0.45352 
1.01065 -0.126478 0.521585 
1.01095 -0.132995 0.45352 
1.01095 -0.132995 0.521585 
1.01068 -0.139034 0.45352 
1.01068 -0.139034 0.521585 
1.01035 -0.141794 0.45352 
1.01035 -0.141794 0.521585 
1.00971 -0.14513 0.45352 
1.00971 -0.14513 0.521585 
1.00487 -0.163789 0.45352 
1.00487 -0.163789 0.521585 
0.999643 -0.17984 0.45352 
0.999643 -0.17984 0.521585 
0.997393 -0.185015 0.45352 
0.997393 -0.185015 0.521585 
0.994179 -0.190944 0.45352 
0.994179 -0.190944 0.521585 
0.991578 -0.194885 0.45352 
0.991578 -0.194885 0.521585 
0.990041 -0.196795 0.45352 
0.990041 -0.196795 0.521585 
0.989163 -0.197665 0.45352 
0.989163 -0.197665 0.521585 
0.988779 -0.197962 0.45352 
0.988779 -0.197962 0.521585 
0.988438 -0.198161 0.45352 
0.988438 -0.198161 0.521585 
0.988284 -0.198221 0.45352 
0.988284 -0.198221 0.521585 
0.988142 -0.198255 0.45352 
0.988142 -0.198255 0.521585 
0.988012 -0.198261 0.45352 
0.988012 -0.198261 0.521585 
0.987895 -0.19824 0.45352 
0.987895 -0.19824 0.521585 
0.987792 -0.198189 0.45352 
0.987792 -0.198189 0.521585 
0.987702 -0.19811 0.45352 
0.987702 -0.19811 0.521585 
0.987626 -0.198 0.45352 
0.987626 -0.198 0.521585 
0.987579 -0.197874 0.45352 
0.987579 -0.197874 0.521585 
0.987572 -0.197747 0.45352 
0.987572 -0.197747 0.521585 
0.987604 -0.197618 0.45352 
0.987604 -0.197618 0.521585 
0.987674 -0.197488 0.45352 
0.987674 -0.197488 0.521585 
0.987781 -0.197356 0.45352 
0.987781 -0.197356 0.521585 
0.987923 -0.197223 0.45352 
0.987923 -0.197223 0.521585 
0.988307 -0.196952 0.45352 
0.988307 -0.196952 0.521585 
0.988815 -0.196676 0.45352 
0.988815 -0.196676 0.521585 
0.990159 -0.196109 0.45352 
0.990159 -0.196109 0.521585 
0.999434 -0.19334 0.45352 
0.999434 -0.19334 0.521585 
1.00804 -0.190319 0.45352 
1.00804 -0.190319 0.521585 
1.02305 -0.18167 0.45352 
1.02305 -0.18167 0.521585 
1.03072 -0.178273 0.45352 
1.03072 -0.178273 0.521585 
1.04138 -0.173962 0.45352 
1.04138 -0.173962 0.521585 
1.04511 -0.172052 0.45352 
1.04511 -0.172052 0.521585 
1.05449 -0.166073 0.45352 
1.05449 -0.166073 0.521585 
1.06891 -0.155449 0.45352 
1.06891 -0.155449 0.521585 
1.08242 -0.144493 0.45352 
1.08242 -0.144493 0.521585 
1.10087 -0.128566 0.45352 
1.10087 -0.128566 0.521585 
1.11869 -0.111477 0.45352 
1.11869 -0.111477 0.521585 
1.12542 -0.103738 0.45352 
1.12542 -0.103738 0.521585 
1.13292 -0.093333 0.45352 
1.13292 -0.093333 0.521585 
1.141 -0.079932 0.45352 
1.141 -0.079932 0.521585 
1.14847 -0.065503 0.45352 
1.14847 -0.065503 0.521585 
1.15174 -0.057926 0.45352 
1.15174 -0.057926 0.521585 
1.15501 -0.047809 0.45352 
1.15501 -0.047809 0.521585 
1.159 -0.028242 0.45352 
1.159 -0.028242 0.521585 
1.16127 -0.009259 0.45352 
1.16127 -0.009259 0.521585 
1.16168 -0.002057 0.45352 
1.16168 -0.002057 0.521585 
1.16145 0.004694 0.45352 
1.16145 0.004694 0.521585 
1.16049 0.012149 0.45352 
1.16049 0.012149 0.521585 
1.15733 0.025515 0.45352 
1.15733 0.025515 0.521585 
1.15277 0.040853 0.45352 
1.15277 0.040853 0.521585 
1.14977 0.049451 0.45352 
1.14977 0.049451 0.521585 
1.14521 0.05954 0.45352 
1.14521 0.05954 0.521585 
1.13868 0.071106 0.45352 
1.13868 0.071106 0.521585 
1.12976 0.084051 0.45352 
1.12976 0.084051 0.521585 
1.12142 0.094351 0.45352 
1.12142 0.094351 0.521585 
1.11203 0.10449 0.45352 
1.11203 0.10449 0.521585 
1.1025 0.113234 0.45352 
1.1025 0.113234 0.521585 
1.06575 0.139211 0.45352 
1.06575 0.139211 0.521585 
1.02104 0.166251 0.45352 
1.02104 0.166251 0.521585 
1.01179 0.171214 0.45352 
1.01179 0.171214 0.521585 
0.988044 0.181216 0.45352 
0.988044 0.181216 0.521585 
0.922896 0.202761 0.45352 
0.922896 0.202761 0.521585 
0.88543 0.21572 0.45352 
0.88543 0.21572 0.521585 
0.884822 0.216218 0.45352 
0.884822 0.216218 0.521585 
0.884618 0.21634 0.45352 
0.884618 0.21634 0.521585 
0.884479 0.21638 0.45352 
0.884479 0.21638 0.521585 
0.8844 0.216343 0.45352 
0.8844 0.216343 0.521585 
0.88438 0.21623 0.45352 
0.88438 0.21623 0.521585 
0.884417 0.216047 0.45352 
0.884417 0.216047 0.521585 
0.884507 0.215794 0.45352 
0.884507 0.215794 0.521585 
0.88484 0.215096 0.45352 
0.88484 0.215096 0.521585 
0.887831 0.210173 0.45352 
0.887831 0.210173 0.521585 
0.90344 0.1858 0.45352 
0.90344 0.1858 0.521585 
0.903922 0.184805 0.45352 
0.903922 0.184805 0.521585 
0.904214 0.184041 0.45352 
0.904214 0.184041 0.521585 
0.9087 0.170654 0.45352 
0.9087 0.170654 0.521585 
0.912557 0.158639 0.45352 
0.912557 0.158639 0.521585 
0.916226 0.143668 0.45352 
0.916226 0.143668 0.521585 
0.916574 0.140185 0.45352 
0.916574 0.140185 0.521585 
0.916566 0.135755 0.45352 
0.916566 0.135755 0.521585 
0.916015 0.130342 0.45352 
0.916015 0.130342 0.521585 
0.914739 0.123986 0.45352 
0.914739 0.123986 0.521585 
0.912578 0.116847 0.45352 
0.912578 0.116847 0.521585 
0.910439 0.111468 0.45352 
0.910439 0.111468 0.521585 
0.90758 0.105684 0.45352 
0.90758 0.105684 0.521585 
0.902293 0.097033 0.45352 
0.902293 0.097033 0.521585 
0.897639 0.090853 0.45352 
0.897639 0.090853 0.521585 
0.892866 0.085659 0.45352 
0.892866 0.085659 0.521585 
0.888061 0.081345 0.45352 
0.888061 0.081345 0.521585 
0.88475 0.078799 0.45352 
0.88475 0.078799 0.521585 
0.881179 0.076369 0.45352 
0.881179 0.076369 0.521585 
0.875192 0.072947 0.45352 
0.875192 0.072947 0.521585 
0.869126 0.070204 0.45352 
0.869126 0.070204 0.521585 
0.86226 0.067814 0.45352 
0.86226 0.067814 0.521585 
0.853132 0.065555 0.45352 
0.853132 0.065555 0.521585 
0.843428 0.063972 0.45352 
0.843428 0.063972 0.521585 
0.83829 0.06353 0.45352 
0.83829 0.06353 0.521585 
0.832425 0.063565 0.45352 
0.832425 0.063565 0.521585 
0.825834 0.064222 0.45352 
0.825834 0.064222 0.521585 
0.816316 0.066157 0.45352 
0.816316 0.066157 0.521585 
0.806785 0.069025 0.45352 
0.806785 0.069025 0.521585 
0.800093 0.071654 0.45352 
0.800093 0.071654 0.521585 
0.794039 0.074697 0.45352 
0.794039 0.074697 0.521585 
0.787939 0.078497 0.45352 
0.787939 0.078497 0.521585 
0.781843 0.083145 0.45352 
0.781843 0.083145 0.521585 
0.775802 0.08873 0.45352 
0.775802 0.08873 0.521585 
0.772819 0.091903 0.45352 
0.772819 0.091903 0.521585 
0.769137 0.096246 0.45352 
0.769137 0.096246 0.521585 
0.766354 0.100157 0.45352 
0.766354 0.100157 0.521585 
0.763251 0.105696 0.45352 
0.763251 0.105696 0.521585 
0.760043 0.113084 0.45352 
0.760043 0.113084 0.521585 
0.75656 0.123731 0.45352 
0.75656 0.123731 0.521585 
0.752567 0.141377 0.45352 
0.752567 0.141377 0.521585 
0.750085 0.157996 0.45352 
0.750085 0.157995 0.521585 
0.747548 0.183013 0.45352 
0.747548 0.183013 0.521585 
0.746639 0.200271 0.45352 
0.746639 0.200271 0.521585 
0.747169 0.215409 0.45352 
0.747169 0.215409 0.521585 
0.747624 0.234013 0.45352 
0.747624 0.234013 0.521585 
0.747535 0.234826 0.45352 
0.747535 0.234826 0.521585 
0.747451 0.235186 0.45352 
0.747451 0.235186 0.521585 
0.747402 0.235306 0.45352 
0.747402 0.235306 0.521585 
0.747347 0.235384 0.45352 
0.747347 0.235384 0.521585 
0.747286 0.235417 0.45352 
0.747286 0.235417 0.521585 
0.74722 0.235405 0.45352 
0.74722 0.235405 0.521585 
0.747147 0.235345 0.45352 
0.747147 0.235345 0.521585 
0.747068 0.235235 0.45352 
0.747068 0.235235 0.521585 
0.746983 0.235075 0.45352 
0.746983 0.235075 0.521585 
0.746793 0.234594 0.45352 
0.746793 0.234594 0.521585 
0.746114 0.232949 0.45352 
0.746114 0.232949 0.521585 
0.740328 0.222909 0.45352 
0.740328 0.222909 0.521585 
0.733298 0.211334 0.45352 
0.733298 0.211334 0.521585 
0.721414 0.189084 0.45352 
0.721414 0.189084 0.521585 
0.720038 0.186787 0.45352 
0.720038 0.186787 0.521585 
0.719382 0.185913 0.45352 
0.719382 0.185913 0.521585 
0.719053 0.185562 0.45352 
0.719053 0.185562 0.521585 
0.718858 0.185391 0.45352 
0.718858 0.185391 0.521585 
0.718681 0.185265 0.45352 
0.718681 0.185265 0.521585 
0.71852 0.18518 0.45352 
0.71852 0.18518 0.521585 
0.718445 0.185152 0.45352 
0.718445 0.185152 0.521585 
0.718374 0.185132 0.45352 
0.718374 0.185132 0.521585 
0.718307 0.185121 0.45352 
0.718307 0.185121 0.521585 
0.718243 0.185116 0.45352 
0.718243 0.185116 0.521585 
0.718182 0.185119 0.45352 
0.718182 0.185119 0.521585 
0.718123 0.185129 0.45352 
0.718123 0.185129 0.521585 
0.718068 0.185144 0.45352 
0.718068 0.185144 0.521585 
0.718015 0.185165 0.45352 
0.718015 0.185165 0.521585 
0.717965 0.185191 0.45352 
0.717965 0.185191 0.521585 
0.717871 0.185254 0.45352 
0.717871 0.185254 0.521585 
0.717785 0.185331 0.45352 
0.717785 0.185331 0.521585 
0.717668 0.185461 0.45352 
0.717668 0.185461 0.521585 
0.717393 0.185791 0.45352 
0.717393 0.185791 0.521585 
0.717325 0.185846 0.45352 
0.717325 0.185846 0.521585 
0.717291 0.185867 0.45352 
0.717291 0.185867 0.521585 
0.717256 0.185882 0.45352 
0.717256 0.185882 0.521585 
0.717198 0.185907 0.45352 
0.717198 0.185907 0.521585 
0.717179 0.185919 0.45352 
0.717179 0.185919 0.521585 
0.717166 0.185932 0.45352 
0.717166 0.185932 0.521585 
0.717158 0.185944 0.45352 
0.717158 0.185944 0.521585 
0.717157 0.185957 0.45352 
0.717157 0.185957 0.521585 
0.71716 0.18597 0.45352 
0.71716 0.18597 0.521585 
0.717168 0.185983 0.45352 
0.717168 0.185983 0.521585 
0.717181 0.185996 0.45352 
0.717181 0.185996 0.521585 
0.717198 0.186009 0.45352 
0.717198 0.186009 0.521585 
0.717244 0.186035 0.45352 
0.717244 0.186035 0.521585 
0.717339 0.186075 0.45352 
0.717339 0.186075 0.521585 
0.718213 0.186351 0.45352 
0.718213 0.186351 0.521585 
0.718258 0.186376 0.45352 
0.718258 0.186376 0.521585 
0.718275 0.186389 0.45352 
0.718275 0.186389 0.521585 
0.718287 0.186401 0.45352 
0.718287 0.186401 0.521585 
0.718294 0.186414 0.45352 
0.718294 0.186414 0.521585 
0.718297 0.186426 0.45352 
0.718297 0.186426 0.521585 
0.718294 0.186438 0.45352 
0.718294 0.186438 0.521585 
0.718286 0.18645 0.45352 
0.718286 0.18645 0.521585 
0.718272 0.186462 0.45352 
0.718272 0.186462 0.521585 
0.718252 0.186474 0.45352 
0.718252 0.186474 0.521585 
0.718225 0.186486 0.45352 
0.718225 0.186486 0.521585 
0.718192 0.186497 0.45352 
0.718192 0.186497 0.521585 
0.718104 0.18652 0.45352 
0.718104 0.18652 0.521585 
0.716622 0.186767 0.45352 
0.716622 0.186767 0.521585 
0.714181 0.186974 0.45352 
0.714181 0.186974 0.521585 
0.710428 0.187051 0.45352 
0.710428 0.187051 0.521585 
0.695236 0.186087 0.45352 
0.695236 0.186087 0.521585 
0.678484 0.18497 0.45352 
0.678484 0.18497 0.521585 
0.678275 0.184975 0.45352 
0.678275 0.184975 0.521585 
0.678069 0.185 0.45352 
0.678069 0.185 0.521585 
0.677865 0.185044 0.45352 
0.677865 0.185044 0.521585 
0.677461 0.185189 0.45352 
0.677461 0.185189 0.521585 
0.677063 0.185406 0.45352 
0.677063 0.185406 0.521585 
0.676672 0.185688 0.45352 
0.676672 0.185688 0.521585 
0.676286 0.186033 0.45352 
0.676286 0.186033 0.521585 
0.675718 0.186657 0.45352 
0.675718 0.186657 0.521585 
0.674977 0.187663 0.45352 
0.674977 0.187663 0.521585 
0.672139 0.192989 0.45352 
0.672139 0.192989 0.521585 
0.669351 0.198652 0.45352 
0.669351 0.198652 0.521585 
0.660548 0.214847 0.45352 
0.660548 0.214847 0.521585 
0.650739 0.233801 0.45352 
0.650739 0.233801 0.521585 
0.650556 0.233972 0.45352 
0.650556 0.233972 0.521585 
0.650381 0.233946 0.45352 
0.650381 0.233946 0.521585 
0.650212 0.233731 0.45352 
0.650212 0.233731 0.521585 
0.65005 0.233333 0.45352 
0.65005 0.233333 0.521585 
0.649894 0.23276 0.45352 
0.649894 0.23276 0.521585 
0.647458 0.190589 0.45352 
0.647458 0.190589 0.521585 
0.644697 0.143761 0.45352 
0.644697 0.14376 0.521585 
0.640287 0.125797 0.45352 
0.640287 0.125797 0.521585 
0.637221 0.116969 0.45352 
0.637221 0.116969 0.521585 
0.634838 0.111707 0.45352 
0.634838 0.111707 0.521585 
0.63353 0.109305 0.45352 
0.63353 0.109305 0.521585 
0.63214 0.107073 0.45352 
0.63214 0.107073 0.521585 
0.618776 0.087607 0.45352 
0.618776 0.087607 0.521585 
0.616608 0.085109 0.45352 
0.616608 0.085109 0.521585 
0.614086 0.082669 0.45352 
0.614086 0.082669 0.521585 
0.608001 0.077905 0.45352 
0.608001 0.077905 0.521585 
0.602292 0.0742 0.45352 
0.602292 0.0742 0.521585 
0.599429 0.072604 0.45352 
0.599429 0.072604 0.521585 
0.59619 0.070998 0.45352 
0.59619 0.070998 0.521585 
0.592954 0.069696 0.45352 
0.592954 0.069696 0.521585 
0.582311 0.066689 0.45352 
0.582311 0.066689 0.521585 
0.571441 0.064328 0.45352 
0.571441 0.064328 0.521585 
0.565582 0.063332 0.45352 
0.565582 0.063332 0.521585 
0.563009 0.063161 0.45352 
0.563009 0.063161 0.521585 
0.560478 0.063234 0.45352 
0.560478 0.063234 0.521585 
0.557348 0.063606 0.45352 
0.557348 0.063606 0.521585 
0.553077 0.064372 0.45352 
0.553077 0.064372 0.521585 
0.530365 0.069667 0.45352 
0.530365 0.069667 0.521585 
0.521037 0.072808 0.45352 
0.521037 0.072808 0.521585 
0.51607 0.075001 0.45352 
0.51607 0.075001 0.521585 
0.513878 0.076183 0.45352 
0.513878 0.076183 0.521585 
0.511928 0.077422 0.45352 
0.511928 0.077422 0.521585 
0.507176 0.081096 0.45352 
0.507176 0.081096 0.521585 
0.501616 0.086278 0.45352 
0.501616 0.086278 0.521585 
0.495782 0.092778 0.45352 
0.495782 0.092778 0.521585 
0.491871 0.09791 0.45352 
0.491871 0.09791 0.521585 
0.489053 0.102313 0.45352 
0.489053 0.102313 0.521585 
0.48553 0.109229 0.45352 
0.48553 0.109229 0.521585 
0.483447 0.114494 0.45352 
0.483447 0.114494 0.521585 
0.482441 0.11783 0.45352 
0.482441 0.11783 0.521585 
0.481714 0.121133 0.45352 
0.481714 0.121133 0.521585 
0.480513 0.129885 0.45352 
0.480513 0.129885 0.521585 
0.48002 0.138563 0.45352 
0.48002 0.138563 0.521585 
0.480131 0.142652 0.45352 
0.480131 0.142652 0.521585 
0.481087 0.150833 0.45352 
0.481087 0.150833 0.521585 
0.482402 0.157792 0.45352 
0.482402 0.157792 0.521585 
0.484203 0.165009 0.45352 
0.484203 0.165009 0.521585 
0.485686 0.169281 0.45352 
0.485686 0.169281 0.521585 
0.492476 0.184125 0.45352 
0.492476 0.184125 0.521585 
0.500675 0.199721 0.45352 
0.500675 0.199721 0.521585 
0.508608 0.213417 0.45352 
0.508608 0.213417 0.521585 
0.510409 0.216003 0.45352 
0.510409 0.216003 0.521585 
0.512268 0.218175 0.45352 
0.512268 0.218175 0.521585 
0.514089 0.21993 0.45352 
0.514089 0.21993 0.521585 
0.515778 0.22127 0.45352 
0.515778 0.22127 0.521585 
0.517238 0.222192 0.45352 
0.517238 0.222192 0.521585 
0.518126 0.222609 0.45352 
0.518126 0.222609 0.521585 
0.518596 0.222757 0.45352 
0.518596 0.222757 0.521585 
0.51879 0.222791 0.45352 
0.51879 0.222791 0.521585 
0.518955 0.222799 0.45352 
0.518955 0.222799 0.521585 
0.51909 0.222781 0.45352 
0.51909 0.222781 0.521585 
0.519192 0.222737 0.45352 
0.519192 0.222737 0.521585 
0.51926 0.222666 0.45352 
0.51926 0.222666 0.521585 
0.519293 0.222569 0.45352 
0.519293 0.222569 0.521585 
0.51929 0.222446 0.45352 
0.51929 0.222446 0.521585 
0.519248 0.222297 0.45352 
0.519248 0.222297 0.521585 
0.519167 0.222121 0.45352 
0.519167 0.222121 0.521585 
0.519044 0.221919 0.45352 
0.519044 0.221919 0.521585 
0.518669 0.221436 0.45352 
0.518669 0.221436 0.521585 
0.517761 0.220513 0.45352 
0.517761 0.220513 0.521585 
0.515223 0.218448 0.45352 
0.515223 0.218448 0.521585 
3 0 1 2 
3 0 2 3 
3 1 4 5 
3 1 5 2 
3 4 6 7 
3 4 7 5 
3 6 8 9 
3 6 9 7 
3 8 10 11 
3 8 11 9 
3 10 12 13 
3 10 13 11 
3 12 14 15 
3 12 15 13 
3 14 16 17 
3 14 17 15 
3 16 18 19 
3 16 19 17 
3 18 20 21 
3 18 21 19 
3 20 22 23 
3 20 23 21 
3 22 24 25 
3 22 25 23 
3 24 26 27 
3 24 27 25 
3 26 28 29 
3 26 29 27 
3 28 30 31 
3 28 31 29 
3 30 32 33 
3 30 33 31 
3 32 34 35 
3 32 35 33 
3 34 36 37 
3 34 37 35 
3 36 38 39 
3 36 39 37 
3 38 40 41 
3 38 41 39 
3 40 42 43 
3 40 43 41 
3 42 44 45 
3 42 45 43 
3 44 46 47 
3 44 47 45 
3 46 48 49 
3 46 49 47 
3 48 50 51 
3 48 51 49 
3 50 52 53 
3 50 53 51 
3 52 54 55 
3 52 55 53 
3 54 56 57 
3 54 57 55 
3 56 58 59 
3 56 59 57 
3 58 60 61 
3 58 61 59 
3 60 62 63 
3 60 63 61 
3 62 64 65 
3 62 65 63 
3 64 66 67 
3 64 67 65 
3 66 68 69 
3 66 69 67 
3 68 70 71 
3 68 71 69 
3 70 72 73 
3 70 73 71 
3 72 74 75 
3 72 75 73 
3 74 76 77 
3 74 77 75 
3 76 78 79 
3 76 79 77 
3 78 80 81 
3 78 81 79 
3 80 82 83 
3 80 83 81 
3 82 84 85 
3 82 85 83 
3 84 86 87 
3 84 87 85 
3 86 88 89 
3 86 89 87 
3 88 90 91 
3 88 91 89 
3 90 92 93 
3 90 93 91 
3 92 94 95 
3 92 95 93 
3 94 96 97 
3 94 97 95 
3 96 98 99 
3 96 99 97 
3 98 100 101 
3 98 101 99 
3 100 102 103 
3 100 103 101 
3 102 104 105 
3 102 105 103 
3 104 106 107 
3 104 107 105 
3 106 108 109 
3 106 109 107 
3 108 110 111 
3 108 111 109 
3 110 112 113 
3 110 113 111 
3 112 114 115 
3 112 115 113 
3 114 116 117 
3 114 117 115 
3 116 118 119 
3 116 119 117 
3 118 120 121 
3 118 121 119 
3 120 122 123 
3 120 123 121 
3 122 124 125 
3 122 125 123 
3 124 126 127 
3 124 127 125 
3 126 128 129 
3 126 129 127 
3 128 130 131 
3 128 131 129 
3 130 132 133 
3 130 133 131 
3 132 134 135 
3 132 135 133 
3 134 136 137 
3 134 137 135 
3 136 138 139 
3 136 139 137 
3 138 140 141 
3 138 141 139 
3 140 142 143 
3 140 143 141 
3 142 144 145 
3 142 145 143 
3 144 146 147 
3 144 147 145 
3 146 148 149 
3 146 149 147 
3 148 150 151 
3 148 151 149 
3 150 152 153 
3 150 153 151 
3 152 154 155 
3 152 155 153 
3 154 156 157 
3 154 157 155 
3 156 158 159 
3 156 159 157 
3 158 160 161 
3 158 161 159 
3 160 162 163 
3 160 163 161 
3 162 164 165 
3 162 165 163 
3 164 166 167 
3 164 167 165 
3 166 168 169 
3 166 169 167 
3 168 170 171 
3 168 171 169 
3 170 172 173 
3 170 173 171 
3 172 174 175 
3 172 175 173 
3 174 176 177 
3 174 177 175 
3 176 178 179 
3 176 179 177 
3 178 180 181 
3 178 181 179 
3 180 182 183 
3 180 183 181 
3 182 184 185 
3 182 185 183 
3 184 186 187 
3 184 187 185 
3 186 188 189 
3 186 189 187 
3 188 190 191 
3 188 191 189 
3 190 192 193 
3 190 193 191 
3 192 194 195 
3 192 195 193 
3 194 196 197 
3 194 197 195 
3 196 198 199 
3 196 199 197 
3 198 200 201 
3 198 201 199 
3 200 202 203 
3 200 203 201 
3 202 204 205 
3 202 205 203 
3 204 206 207 
3 204 207 205 
3 206 208 209 
3 206 209 207 
3 208 210 211 
3 208 211 209 
3 210 212 213 
3 210 213 211 
3 212 214 215 
3 212 215 213 
3 214 216 217 
3 214 217 215 
3 216 218 219 
3 216 219 217 
3 218 220 221 
3 218 221 219 
3 220 222 223 
3 220 223 221 
3 222 224 225 
3 222 225 223 
3 224 226 227 
3 224 227 225 
3 226 228 229 
3 226 229 227 
3 228 230 231 
3 228 231 229 
3 230 232 233 
3 230 233 231 
3 232 234 235 
3 232 235 233 
3 234 236 237 
3 234 237 235 
3 236 238 239 
3 236 239 237 
3 238 240 241 
3 238 241 239 
3 240 242 243 
3 240 243 241 
3 242 244 245 
3 242 245 243 
3 244 246 247 
3 244 247 245 
3 246 248 249 
3 246 249 247 
3 248 250 251 
3 248 251 249 
3 250 252 253 
3 250 253 251 
3 252 254 255 
3 252 255 253 
3 254 256 257 
3 254 257 255 
3 256 258 259 
3 256 259 257 
3 258 260 261 
3 258 261 259 
3 260 262 263 
3 260 263 261 
3 262 264 265 
3 262 265 263 
3 264 266 267 
3 264 267 265 
3 266 268 269 
3 266 269 267 
3 268 270 271 
3 268 271 269 
3 270 272 273 
3 270 273 271 
3 272 274 275 
3 272 275 273 
3 274 276 277 
3 274 277 275 
3 276 278 279 
3 276 279 277 
3 278 280 281 
3 278 281 279 
3 280 282 283 
3 280 283 281 
3 282 284 285 
3 282 285 283 
3 284 286 287 
3 284 287 285 
3 286 288 289 
3 286 289 287 
3 288 290 291 
3 288 291 289 
3 290 292 293 
3 290 293 291 
3 292 294 295 
3 292 295 293 
3 294 296 297 
3 294 297 295 
3 296 298 299 
3 296 299 297 
3 298 300 301 
3 298 301 299 
3 300 302 303 
3 300 303 301 
3 302 304 305 
3 302 305 303 
3 304 306 307 
3 304 307 305 
3 306 308 309 
3 306 309 307 
3 308 310 311 
3 308 311 309 
3 310 312 313 
3 310 313 311 
3 312 314 315 
3 312 315 313 
3 314 316 317 
3 314 317 315 
3 316 318 319 
3 316 319 317 
3 318 320 321 
3 318 321 319 
3 320 322 323 
3 320 323 321 
3 322 324 325 
3 322 325 323 
3 324 326 327 
3 324 327 325 
3 326 328 329 
3 326 329 327 
3 328 330 331 
3 328 331 329 
3 330 332 333 
3 330 333 331 
3 332 334 335 
3 332 335 333 
3 334 336 337 
3 334 337 335 
3 336 338 339 
3 336 339 337 
3 338 340 341 
3 338 341 339 
3 340 342 343 
3 340 343 341 
3 342 344 345 
3 342 345 343 
3 344 346 347 
3 344 347 345 
3 346 348 349 
3 346 349 347 
3 348 350 351 
3 348 351 349 
3 350 352 353 
3 350 353 351 
3 352 354 355 
3 352 355 353 
3 354 356 357 
3 354 357 355 
3 356 358 359 
3 356 359 357 
3 358 360 361 
3 358 361 359 
3 360 362 363 
3 360 363 361 
3 362 364 365 
3 362 365 363 
3 364 366 367 
3 364 367 365 
3 366 368 369 
3 366 369 367 
3 368 370 371 
3 368 371 369 
3 370 372 373 
3 370 373 371 
3 372 374 375 
3 372 375 373 
3 374 376 377 
3 374 377 375 
3 376 378 379 
3 376 379 377 
3 378 380 381 
3 378 381 379 
3 380 382 383 
3 380 383 381 
3 382 384 385 
3 382 385 383 
3 384 386 387 
3 384 387 385 
3 386 388 389 
3 386 389 387 
3 388 390 391 
3 388 391 389 
3 390 392 393 
3 390 393 391 
3 392 394 395 
3 392 395 393 
3 394 396 397 
3 394 397 395 
3 396 398 399 
3 396 399 397 
3 398 400 401 
3 398 401 399 
3 400 402 403 
3 400 403 401 
3 402 404 405 
3 402 405 403 
3 404 406 407 
3 404 407 405 
3 406 408 409 
3 406 409 407 
3 408 410 411 
3 408 411 409 
3 410 412 413 
3 410 413 411 
3 412 414 415 
3 412 415 413 
3 414 416 417 
3 414 417 415 
3 416 418 419 
3 416 419 417 
3 418 420 421 
3 418 421 419 
3 420 422 423 
3 420 423 421 
3 422 424 425 
3 422 425 423 
3 424 426 427 
3 424 427 425 
3 426 428 429 
3 426 429 427 
3 428 430 431 
3 428 431 429 
3 430 432 433 
3 430 433 431 
3 432 434 435 
3 432 435 433 
3 434 436 437 
3 434 437 435 
3 436 438 439 
3 436 439 437 
3 438 440 441 
3 438 441 439 
3 440 442 443 
3 440 443 441 
3 442 444 445 
3 442 445 443 
3 444 446 447 
3 444 447 445 
3 446 448 449 
3 446 449 447 
3 448 450 451 
3 448 451 449 
3 450 452 453 
3 450 453 451 
3 452 454 455 
3 452 455 453 
3 454 456 457 
3 454 457 455 
3 456 458 459 
3 456 459 457 
3 458 460 461 
3 458 461 459 
3 460 462 463 
3 460 463 461 
3 462 464 465 
3 462 465 463 
3 464 466 467 
3 464 467 465 
3 466 468 469 
3 466 469 467 
3 468 470 471 
3 468 471 469 
3 470 472 473 
3 470 473 471 
3 472 474 475 
3 472 475 473 
3 474 476 477 
3 474 477 475 
3 476 478 479 
3 476 479 477 
3 478 480 481 
3 478 481 479 
3 480 482 483 
3 480 483 481 
3 482 484 485 
3 482 485 483 
3 484 486 487 
3 484 487 485 
3 486 488 489 
3 486 489 487 
3 488 490 491 
3 488 491 489 
3 490 492 493 
3 490 493 491 
3 492 494 495 
3 492 495 493 
3 494 496 497 
3 494 497 495 
3 496 498 499 
3 496 499 497 
3 498 500 501 
3 498 501 499 
3 500 502 503 
3 500 503 501 
3 502 504 505 
3 502 505 503 
3 504 506 507 
3 504 507 505 
3 506 508 509 
3 506 509 507 
3 508 510 511 
3 508 511 509 
3 510 512 513 
3 510 513 511 
3 512 514 515 
3 512 515 513 
3 514 516 517 
3 514 517 515 
3 516 518 519 
3 516 519 517 
3 518 520 521 
3 518 521 519 
3 520 522 523 
3 520 523 521 
3 522 524 525 
3 522 525 523 
3 524 526 527 
3 524 527 525 
3 526 528 529 
3 526 529 527 
3 528 530 531 
3 528 531 529 
3 530 532 533 
3 530 533 531 
3 532 534 535 
3 532 535 533 
3 534 536 537 
3 534 537 535 
3 536 538 539 
3 536 539 537 
3 538 540 541 
3 538 541 539 
3 540 542 543 
3 540 543 541 
3 542 544 545 
3 542 545 543 
3 544 546 547 
3 544 547 545 
3 546 548 549 
3 546 549 547 
3 548 550 551 
3 548 551 549 
3 550 552 553 
3 550 553 551 
3 552 554 555 
3 552 555 553 
3 554 556 557 
3 554 557 555 
3 556 558 559 
3 556 559 557 
3 558 560 561 
3 558 561 559 
3 560 562 563 
3 560 563 561 
3 562 564 565 
3 562 565 563 
3 564 566 567 
3 564 567 565 
3 566 568 569 
3 566 569 567 
3 568 570 571 
3 568 571 569 
3 570 572 573 
3 570 573 571 
3 572 574 575 
3 572 575 573 
3 574 576 577 
3 574 577 575 
3 576 578 579 
3 576 579 577 
3 578 580 581 
3 578 581 579 
3 580 582 583 
3 580 583 581 
3 582 584 585 
3 582 585 583 
3 584 586 587 
3 584 587 585 
3 586 588 589 
3 586 589 587 
3 588 590 591 
3 588 591 589 
3 590 592 593 
3 590 593 591 
3 592 594 595 
3 592 595 593 
3 594 596 597 
3 594 597 595 
3 596 598 599 
3 596 599 597 
3 598 600 601 
3 598 601 599 
3 600 602 603 
3 600 603 601 
3 602 604 605 
3 602 605 603 
3 604 606 607 
3 604 607 605 
3 606 608 609 
3 606 609 607 
3 608 610 611 
3 608 611 609 
3 610 612 613 
3 610 613 611 
3 612 614 615 
3 612 615 613 
3 614 616 617 
3 614 617 615 
3 616 618 619 
3 616 619 617 
3 618 620 621 
3 618 621 619 
3 620 622 623 
3 620 623 621 
3 622 624 625 
3 622 625 623 
3 624 626 627 
3 624 627 625 
3 626 628 629 
3 626 629 627 
3 628 630 631 
3 628 631 629 
3 630 632 633 
3 630 633 631 
3 632 634 635 
3 632 635 633 
3 634 636 637 
3 634 637 635 
3 636 638 639 
3 636 639 637 
3 638 640 641 
3 638 641 639 
3 640 642 643 
3 640 643 641 
3 642 644 645 
3 642 645 643 
3 644 646 647 
3 644 647 645 
3 646 648 649 
3 646 649 647 
3 648 650 651 
3 648 651 649 
3 650 652 653 
3 650 653 651 
3 652 654 655 
3 652 655 653 
3 654 656 657 
3 654 657 655 
3 656 658 659 
3 656 659 657 
3 658 660 661 
3 658 661 659 
3 660 662 663 
3 660 663 661 
3 662 664 665 
3 662 665 663 
3 664 666 667 
3 664 667 665 
3 666 668 669 
3 666 669 667 
3 668 670 671 
3 668 671 669 
3 670 672 673 
3 670 673 671 
3 672 674 675 
3 672 675 673 
3 674 676 677 
3 674 677 675 
3 676 678 679 
3 676 679 677 
3 678 680 681 
3 678 681 679 
3 680 682 683 
3 680 683 681 
3 682 684 685 
3 682 685 683 
3 684 686 687 
3 684 687 685 
3 686 688 689 
3 686 689 687 
3 688 690 691 
3 688 691 689 
3 690 692 693 
3 690 693 691 
3 692 694 695 
3 692 695 693 
3 694 696 697 
3 694 697 695 
3 696 698 699 
3 696 699 697 
3 698 700 701 
3 698 701 699 
3 700 702 703 
3 700 703 701 
3 702 704 705 
3 702 705 703 
3 704 706 707 
3 704 707 705 
3 706 708 709 
3 706 709 707 
3 708 710 711 
3 708 711 709 
3 710 712 713 
3 710 713 711 
3 712 714 715 
3 712 715 713 
3 714 716 717 
3 714 717 715 
3 716 718 719 
3 716 719 717 
3 718 720 721 
3 718 721 719 
3 720 722 723 
3 720 723 721 
3 722 724 725 
3 722 725 723 
3 724 726 727 
3 724 727 725 
3 726 728 729 
3 726 729 727 
3 728 730 731 
3 728 731 729 
3 730 732 733 
3 730 733 731 
3 732 734 735 
3 732 735 733 
3 734 736 737 
3 734 737 735 
3 736 738 739 
3 736 739 737 
3 738 740 741 
3 738 741 739 
3 740 742 743 
3 740 743 741 
3 742 744 745 
3 742 745 743 
3 744 746 747 
3 744 747 745 
3 746 748 749 
3 746 749 747 
3 748 750 751 
3 748 751 749 
3 750 752 753 
3 750 753 751 
3 752 754 755 
3 752 755 753 
3 754 756 757 
3 754 757 755 
3 756 758 759 
3 756 759 757 
3 758 760 761 
3 758 761 759 
3 760 762 763 
3 760 763 761 
3 762 764 765 
3 762 765 763 
3 764 766 767 
3 764 767 765 
3 766 768 769 
3 766 769 767 
3 768 770 771 
3 768 771 769 
3 770 772 773 
3 770 773 771 
3 772 774 775 
3 772 775 773 
3 774 776 777 
3 774 777 775 
3 776 778 779 
3 776 779 777 
3 778 780 781 
3 778 781 779 
3 780 782 783 
3 780 783 781 
3 782 784 785 
3 782 785 783 
3 784 786 787 
3 784 787 785 
3 786 788 789 
3 786 789 787 
3 788 790 791 
3 788 791 789 
3 790 792 793 
3 790 793 791 
3 792 794 795 
3 792 795 793 
3 794 796 797 
3 794 797 795 
3 796 798 799 
3 796 799 797 
3 798 800 801 
3 798 801 799 
3 800 802 803 
3 800 803 801 
3 802 804 805 
3 802 805 803 
3 804 806 807 
3 804 807 805 
3 806 808 809 
3 806 809 807 
3 808 810 811 
3 808 811 809 
3 810 812 813 
3 810 813 811 
3 812 814 815 
3 812 815 813 
3 814 816 817 
3 814 817 815 
3 816 818 819 
3 816 819 817 
3 818 820 821 
3 818 821 819 
3 820 822 823 
3 820 823 821 
3 822 824 825 
3 822 825 823 
3 824 826 827 
3 824 827 825 
3 826 828 829 
3 826 829 827 
3 828 830 831 
3 828 831 829 
3 830 832 833 
3 830 833 831 
3 832 834 835 
3 832 835 833 
3 834 836 837 
3 834 837 835 
3 836 838 839 
3 836 839 837 
3 838 840 841 
3 838 841 839 
3 840 842 843 
3 840 843 841 
3 842 844 845 
3 842 845 843 
3 844 846 847 
3 844 847 845 
3 846 848 849 
3 846 849 847 
3 848 850 851 
3 848 851 849 
3 850 852 853 
3 850 853 851 
3 852 854 855 
3 852 855 853 
3 854 856 857 
3 854 857 855 
3 856 858 859 
3 856 859 857 
3 858 860 861 
3 858 861 859 
3 860 862 863 
3 860 863 861 
3 862 864 865 
3 862 865 863 
3 864 866 867 
3 864 867 865 
3 866 868 869 
3 866 869 867 
3 868 870 871 
3 868 871 869 
3 870 872 873 
3 870 873 871 
3 872 874 875 
3 872 875 873 
3 874 876 877 
3 874 877 875 
3 876 878 879 
3 876 879 877 
3 878 880 881 
3 878 881 879 
3 880 882 883 
3 880 883 881 
3 882 884 885 
3 882 885 883 
3 884 886 887 
3 884 887 885 
3 886 888 889 
3 886 889 887 
3 888 890 891 
3 888 891 889 
3 890 892 893 
3 890 893 891 
3 892 894 895 
3 892 895 893 
3 894 896 897 
3 894 897 895 
3 896 898 899 
3 896 899 897 
3 898 900 901 
3 898 901 899 
3 900 902 903 
3 900 903 901 
3 902 904 905 
3 902 905 903 
3 904 906 907 
3 904 907 905 
3 906 908 909 
3 906 909 907 
3 908 910 911 
3 908 911 909 
3 910 912 913 
3 910 913 911 
3 912 914 915 
3 912 915 913 
3 914 916 917 
3 914 917 915 
3 916 918 919 
3 916 919 917 
3 918 920 921 
3 918 921 919 
3 920 922 923 
3 920 923 921 
3 922 924 925 
3 922 925 923 
3 924 926 927 
3 924 927 925 
3 926 928 929 
3 926 929 927 
3 928 0 3 
3 928 3 929 
