ply
format ascii 1.0
comment VCGLIB generated
element vertex 698
property float x
property float y
property float z
element face 1328
property list uchar int vertex_indices
end_header
0.572926 -0.278677 0.055953 
0.582147 -0.273271 0.05981 
0.596073 -0.353852 0.139837 
0.586639 -0.359383 0.13589 
0.589935 -0.266793 0.064959 
0.604041 -0.347225 0.145105 
0.564765 -0.166858 -0.047776 
0.572554 -0.16038 -0.042627 
0.555545 -0.172264 -0.051634 
0.595961 -0.259475 0.071224 
0.610207 -0.339737 0.151515 
0.600029 -0.251609 0.078346 
0.614369 -0.33169 0.158802 
0.578579 -0.153061 -0.036362 
0.582648 -0.145196 -0.02924 
0.601943 -0.243493 0.086065 
0.616327 -0.323385 0.166699 
0.601671 -0.235438 0.094076 
0.616049 -0.315144 0.174895 
0.584561 -0.13708 -0.021521 
0.58429 -0.129025 -0.01351 
0.599182 -0.227759 0.102074 
0.613502 -0.307287 0.183078 
0.594612 -0.220741 0.109754 
0.608827 -0.300107 0.190936 
0.581801 -0.121345 -0.005513 
0.577231 -0.114327 0.002167 
0.588098 -0.214668 0.116813 
0.602162 -0.293893 0.198158 
0.579926 -0.209754 0.122993 
0.593806 -0.288895 0.204452 
0.570717 -0.108255 0.009226 
0.562545 -0.103341 0.015406 
0.57038 -0.206213 0.128038 
0.584054 -0.285359 0.209525 
0.559849 -0.204152 0.131778 
0.573305 -0.283396 0.213203 
0.552998 -0.0998 0.020452 
0.542467 -0.097739 0.024191 
0.548723 -0.203681 0.134041 
0.561957 -0.283116 0.215313 
0.537437 -0.204787 0.13477 
0.55043 -0.284363 0.215942 
0.531342 -0.097268 0.026454 
0.520056 -0.098374 0.027184 
0.526426 -0.207458 0.133908 
0.539144 -0.28698 0.215177 
0.516103 -0.211562 0.131516 
0.528547 -0.290977 0.212935 
0.509044 -0.101045 0.026321 
0.498721 -0.105149 0.023929 
0.506882 -0.216968 0.127658 
0.519088 -0.296364 0.209136 
0.499094 -0.223446 0.122509 
0.511104 -0.302904 0.203957 
0.489501 -0.110555 0.020072 
0.481712 -0.117033 0.014923 
0.493068 -0.230765 0.116244 
0.504933 -0.310363 0.197576 
0.489 -0.23863 0.109122 
0.500771 -0.318409 0.190289 
0.475686 -0.124352 0.008657 
0.471619 -0.132217 0.001536 
0.487086 -0.246746 0.101403 
0.498813 -0.326714 0.182392 
0.487357 -0.254802 0.093392 
0.499091 -0.334955 0.174196 
0.469704 -0.140333 -0.006183 
0.469976 -0.148388 -0.014194 
0.489847 -0.26248 0.085395 
0.501638 -0.342812 0.166013 
0.494417 -0.269499 0.077714 
0.506313 -0.349993 0.158155 
0.472465 -0.156067 -0.022192 
0.477035 -0.163086 -0.029872 
0.50093 -0.275572 0.070656 
0.512978 -0.356206 0.150933 
0.509103 -0.280485 0.064476 
0.521339 -0.361233 0.14461 
0.483549 -0.169158 -0.036931 
0.491721 -0.174072 -0.043111 
0.518649 -0.284027 0.05943 
0.531106 -0.364856 0.139448 
0.52918 -0.286087 0.055691 
0.541881 -0.366965 0.135622 
0.501268 -0.177613 -0.048156 
0.511799 -0.179674 -0.051896 
0.540306 -0.286558 0.053428 
0.553264 -0.367447 0.133306 
0.551592 -0.285452 0.052698 
0.564811 -0.366315 0.13256 
0.522924 -0.180145 -0.054159 
0.53421 -0.179039 -0.054888 
0.562603 -0.282781 0.053561 
0.576077 -0.363583 0.133443 
0.545222 -0.176368 -0.054026 
0.593015 -0.388676 0.160529 
0.603089 -0.382769 0.164743 
0.607475 -0.395584 0.173369 
0.596761 -0.401865 0.168887 
0.611598 -0.375692 0.170368 
0.616524 -0.388057 0.179352 
0.618181 -0.367696 0.177213 
0.623526 -0.379553 0.186631 
0.622626 -0.359104 0.184994 
0.628253 -0.370415 0.194907 
0.624717 -0.350235 0.193428 
0.630477 -0.360983 0.203876 
0.62442 -0.341435 0.20218 
0.630159 -0.351612 0.213196 
0.621701 -0.333046 0.210918 
0.627261 -0.342654 0.222525 
0.616708 -0.325378 0.219309 
0.621987 -0.334709 0.231235 
0.609591 -0.318743 0.22702 
0.614546 -0.328375 0.238702 
0.600683 -0.313491 0.233654 
0.605238 -0.323739 0.244791 
0.590315 -0.309971 0.238811 
0.594367 -0.320884 0.249372 
0.578911 -0.3083 0.242306 
0.582379 -0.319908 0.252274 
0.566898 -0.308594 0.243957 
0.569723 -0.320909 0.253329 
0.554648 -0.310263 0.244284 
0.556751 -0.323 0.253355 
0.542537 -0.31272 0.243811 
0.543815 -0.325297 0.253174 
0.531117 -0.316396 0.24202 
0.531549 -0.328518 0.25197 
0.520941 -0.321723 0.238395 
0.520586 -0.333381 0.24893 
0.512371 -0.32845 0.233126 
0.511316 -0.339648 0.244229 
0.505767 -0.33633 0.226399 
0.504125 -0.347079 0.238041 
0.501322 -0.344923 0.218618 
0.499272 -0.355495 0.230501 
0.499231 -0.35379 0.210185 
0.497011 -0.364717 0.221745 
0.499528 -0.362591 0.201433 
0.497333 -0.374111 0.212401 
0.502248 -0.370981 0.192695 
0.500227 -0.383046 0.203096 
0.50724 -0.378648 0.184304 
0.505537 -0.391201 0.194173 
0.514357 -0.385283 0.176592 
0.513106 -0.398257 0.185971 
0.523286 -0.390651 0.16984 
0.522602 -0.403966 0.17879 
0.533715 -0.39452 0.164328 
0.533694 -0.408081 0.172927 
0.545221 -0.396772 0.160243 
0.54593 -0.410476 0.168582 
0.557376 -0.397286 0.15777 
0.558858 -0.411023 0.165952 
0.569706 -0.396078 0.156973 
0.571972 -0.409738 0.165105 
0.581737 -0.39316 0.157915 
0.584766 -0.406634 0.166107 
0.602583 -0.434263 0.199983 
0.61351 -0.427856 0.204554 
0.620371 -0.469858 0.247019 
0.609444 -0.476265 0.242448 
0.62274 -0.42018 0.210656 
0.629601 -0.462182 0.253121 
0.629881 -0.411507 0.218081 
0.636742 -0.453509 0.260546 
0.634702 -0.402186 0.226521 
0.641563 -0.444188 0.268986 
0.636971 -0.392567 0.235669 
0.643831 -0.434569 0.278134 
0.63664 -0.382975 0.24521 
0.643492 -0.424929 0.287723 
0.633666 -0.373733 0.254831 
0.640493 -0.415546 0.297488 
0.628397 -0.366253 0.26308 
0.635371 -0.408905 0.304884 
0.621185 -0.361948 0.268504 
0.628667 -0.407491 0.307366 
0.612151 -0.359834 0.272054 
0.620243 -0.408853 0.30738 
0.601415 -0.35893 0.274683 
0.609962 -0.410542 0.307371 
0.589422 -0.359261 0.276294 
0.598252 -0.412486 0.307339 
0.576615 -0.360854 0.276786 
0.585539 -0.414615 0.307287 
0.563401 -0.363086 0.276714 
0.572325 -0.416845 0.307216 
0.550191 -0.36533 0.276628 
0.559115 -0.419091 0.307129 
0.537579 -0.368042 0.275983 
0.546409 -0.421267 0.307029 
0.526166 -0.371676 0.274233 
0.534713 -0.423288 0.30692 
0.516358 -0.37606 0.271481 
0.52445 -0.42508 0.306806 
0.508566 -0.381024 0.26783 
0.516048 -0.426567 0.306692 
0.503238 -0.387454 0.262331 
0.510213 -0.430106 0.304135 
0.500823 -0.396235 0.254037 
0.50765 -0.438048 0.296693 
0.501169 -0.405922 0.244399 
0.508022 -0.447876 0.286912 
0.504128 -0.415069 0.234874 
0.510988 -0.457071 0.277339 
0.509543 -0.423387 0.225772 
0.516404 -0.465389 0.268237 
0.517263 -0.430583 0.217407 
0.524123 -0.472585 0.259872 
0.526948 -0.436406 0.210083 
0.533808 -0.478408 0.252548 
0.538261 -0.440603 0.204104 
0.545121 -0.482605 0.246569 
0.550741 -0.443045 0.199672 
0.557601 -0.485047 0.242138 
0.563926 -0.443603 0.19699 
0.570786 -0.485605 0.239455 
0.5773 -0.442292 0.196126 
0.584161 -0.484294 0.238591 
0.59035 -0.439127 0.197148 
0.59721 -0.481129 0.239613 
0.655451 -0.591991 0.375531 
0.658428 -0.611493 0.348869 
0.649844 -0.616177 0.366385 
0.647011 -0.597609 0.391772 
0.661912 -0.613521 0.353015 
0.655008 -0.616163 0.36811 
0.671382 -0.603982 0.336273 
0.675756 -0.606417 0.33852 
0.668325 -0.583949 0.36366 
0.664211 -0.426707 0.52293 
0.657948 -0.440875 0.532716 
0.66257 -0.440522 0.537215 
0.669193 -0.425476 0.526919 
0.64849 -0.453962 0.541374 
0.652564 -0.454432 0.546308 
0.661088 -0.461451 0.504584 
0.651551 -0.474022 0.513949 
0.667418 -0.447725 0.494196 
0.666193 -0.397272 0.501488 
0.666971 -0.411982 0.512384 
0.672111 -0.409854 0.515797 
0.671283 -0.394262 0.504288 
0.670226 -0.433306 0.48323 
0.669474 -0.418776 0.472089 
0.654136 -0.370154 0.48029 
0.661836 -0.383151 0.490657 
0.66667 -0.379306 0.492829 
0.658518 -0.365545 0.481854 
0.665126 -0.404715 0.461176 
0.657426 -0.391717 0.45081 
0.646619 -0.380376 0.441308 
0.655635 -0.439464 0.360526 
0.666443 -0.450805 0.370027 
0.66465 -0.498542 0.279757 
0.675458 -0.509882 0.289258 
0.642191 -0.43018 0.352234 
0.651206 -0.489258 0.271466 
0.633174 -0.371093 0.433017 
0.597129 -0.338546 0.450808 
0.614272 -0.342703 0.455762 
0.616314 -0.336483 0.455886 
0.598164 -0.332082 0.450641 
0.629884 -0.349529 0.462498 
0.632842 -0.34371 0.463017 
0.617563 -0.364266 0.426281 
0.60042 -0.36011 0.421328 
0.600412 -0.477002 0.256832 
0.603698 -0.498536 0.227392 
0.621737 -0.499809 0.230336 
0.618451 -0.478275 0.259776 
0.604311 -0.49617 0.221347 
0.623409 -0.497518 0.224464 
0.585467 -0.50014 0.22653 
0.58501 -0.497868 0.220435 
0.582181 -0.478606 0.25597 
0.526595 -0.350471 0.451658 
0.543139 -0.343351 0.448297 
0.541005 -0.337169 0.447982 
0.523489 -0.344707 0.451541 
0.560859 -0.338877 0.447002 
0.559765 -0.332432 0.446611 
0.54643 -0.364915 0.418816 
0.56415 -0.36044 0.417521 
0.529886 -0.372035 0.422177 
0.499554 -0.371563 0.464068 
0.511892 -0.360011 0.456995 
0.507923 -0.354808 0.457191 
0.49486 -0.367037 0.464679 
0.515182 -0.381575 0.427515 
0.502844 -0.393127 0.434587 
0.483852 -0.398942 0.482342 
0.490106 -0.384717 0.472635 
0.484858 -0.380964 0.473749 
0.478237 -0.396024 0.484026 
0.493396 -0.406281 0.443154 
0.487142 -0.420506 0.452861 
0.481879 -0.428433 0.503708 
0.481097 -0.413708 0.492834 
0.47532 -0.411656 0.495134 
0.476148 -0.427252 0.506638 
0.484388 -0.435271 0.463353 
0.48516 -0.449937 0.474309 
0.493927 -0.455496 0.524982 
0.486233 -0.442538 0.514561 
0.480761 -0.442204 0.518102 
0.488912 -0.455955 0.529091 
0.489487 -0.463862 0.485407 
0.497134 -0.476513 0.496247 
0.51816 -0.475996 0.542944 
0.504726 -0.466779 0.534561 
0.500352 -0.467947 0.539169 
0.514583 -0.477759 0.54797 
0.507865 -0.487356 0.50643 
0.521221 -0.496056 0.515519 
0.544882 -0.491278 0.557508 
0.533761 -0.482754 0.549774 
0.531108 -0.48497 0.555125 
0.53992 -0.492161 0.560439 
0.536741 -0.502283 0.523075 
0.547719 -0.509872 0.532086 
0.665583 -0.461054 0.553983 
0.650348 -0.475318 0.562716 
0.661375 -0.485162 0.570015 
0.678791 -0.468914 0.559965 
0.637667 -0.485823 0.567825 
0.648419 -0.491056 0.572094 
0.639499 -0.466645 0.553819 
0.633668 -0.476311 0.55931 
0.684973 -0.427245 0.531418 
0.67725 -0.444811 0.543405 
0.692129 -0.450398 0.547818 
0.700958 -0.430359 0.534077 
0.687408 -0.390819 0.505047 
0.688374 -0.409012 0.518462 
0.704848 -0.409548 0.519243 
0.703746 -0.388772 0.503899 
0.672519 -0.357323 0.478884 
0.682027 -0.373373 0.491685 
0.697597 -0.368841 0.488626 
0.686733 -0.350501 0.474 
0.642571 -0.331855 0.456913 
0.659173 -0.343319 0.467152 
0.671484 -0.3345 0.460593 
0.652514 -0.321401 0.448895 
0.647076 -0.353539 0.471795 
0.602125 -0.318293 0.442479 
0.623293 -0.323425 0.448596 
0.630487 -0.311769 0.439391 
0.606299 -0.305905 0.432402 
0.557337 -0.318702 0.437779 
0.57985 -0.316721 0.438843 
0.580846 -0.304108 0.428247 
0.555123 -0.306371 0.427031 
0.579066 -0.330734 0.447524 
0.515027 -0.333018 0.443528 
0.535456 -0.324226 0.439378 
0.530121 -0.312684 0.428858 
0.506778 -0.32273 0.433601 
0.481635 -0.359064 0.458852 
0.496871 -0.344799 0.450119 
0.486032 -0.336191 0.441131 
0.468624 -0.35249 0.45111 
0.462246 -0.392872 0.481417 
0.469968 -0.375307 0.469431 
0.455292 -0.37105 0.463198 
0.446469 -0.391122 0.476894 
0.45981 -0.429298 0.507789 
0.458844 -0.411105 0.494374 
0.442582 -0.411955 0.491698 
0.443685 -0.432739 0.507032 
0.4747 -0.462794 0.533951 
0.465192 -0.446744 0.52115 
0.449833 -0.452662 0.522315 
0.460694 -0.47098 0.536971 
0.504648 -0.488262 0.555922 
0.488045 -0.476798 0.545684 
0.475938 -0.486948 0.550423 
0.494901 -0.500004 0.56218 
0.53947 -0.502424 0.569008 
0.523925 -0.496692 0.564239 
0.51692 -0.509584 0.571755 
0.531139 -0.510885 0.573507 
0.704064 -0.608298 0.374981 
0.684072 -0.613097 0.402024 
0.681116 -0.614529 0.393149 
0.700248 -0.609527 0.367725 
0.665146 -0.615352 0.413961 
0.667495 -0.616066 0.401186 
0.681561 -0.596643 0.424521 
0.662753 -0.599667 0.435406 
0.701309 -0.590245 0.399663 
0.716537 -0.579712 0.375042 
0.708423 -0.526536 0.447742 
0.693751 -0.540716 0.467377 
0.700307 -0.473351 0.520455 
0.686192 -0.491179 0.535102 
0.718214 -0.509566 0.428094 
0.709673 -0.453593 0.504618 
0.726754 -0.565529 0.351584 
0.731467 -0.548179 0.330215 
0.722652 -0.490413 0.409191 
0.713835 -0.432637 0.488181 
0.721714 -0.47015 0.391326 
0.712747 -0.41139 0.47166 
0.730679 -0.5289 0.311005 
0.724394 -0.508927 0.294021 
0.715379 -0.449849 0.37479 
0.706363 -0.390761 0.455572 
0.704063 -0.430746 0.359555 
0.695047 -0.371659 0.440337 
0.713078 -0.489824 0.278786 
0.679163 -0.354992 0.426373 
0.675873 -0.333428 0.455854 
0.691756 -0.350095 0.469818 
0.656113 -0.319784 0.443669 
0.659404 -0.341348 0.414188 
0.654492 -0.44948 0.242737 
0.645477 -0.390403 0.323506 
0.66842 -0.400435 0.333405 
0.677435 -0.459513 0.252637 
0.63646 -0.331315 0.404289 
0.620282 -0.384294 0.316226 
0.611266 -0.325206 0.397008 
0.629297 -0.443372 0.235457 
0.584754 -0.323336 0.392681 
0.581464 -0.301772 0.422162 
0.607975 -0.303643 0.426489 
0.55467 -0.304129 0.420895 
0.55796 -0.325693 0.391415 
0.528921 -0.482431 0.207266 
0.553235 -0.471968 0.202326 
0.555366 -0.47812 0.202681 
0.532023 -0.488166 0.207424 
0.579278 -0.465392 0.200423 
0.580368 -0.471807 0.200854 
0.54995 -0.450433 0.231766 
0.575992 -0.443858 0.229863 
0.525635 -0.460897 0.236706 
0.489179 -0.51343 0.225504 
0.507312 -0.496452 0.21511 
0.511277 -0.501627 0.214954 
0.493868 -0.517926 0.224933 
0.504026 -0.474919 0.24455 
0.485893 -0.491896 0.254944 
0.472008 -0.511228 0.267534 
0.462993 -0.45215 0.348303 
0.476878 -0.432818 0.335713 
0.453976 -0.393063 0.429086 
0.467862 -0.373731 0.416495 
0.453802 -0.473057 0.362569 
0.444785 -0.41397 0.443352 
0.462817 -0.532135 0.281801 
0.440737 -0.43567 0.458772 
0.437446 -0.414106 0.488253 
0.441495 -0.392406 0.472833 
0.438594 -0.435743 0.50424 
0.441866 -0.457187 0.474923 
0.479605 -0.628238 0.32671 
0.469053 -0.614143 0.304629 
0.474552 -0.614656 0.300843 
0.484695 -0.628264 0.321937 
0.463065 -0.596111 0.284992 
0.468799 -0.597314 0.282031 
0.46584 -0.593088 0.333415 
0.459797 -0.574696 0.314268 
0.476493 -0.607839 0.354598 
0.49135 -0.617783 0.377754 
0.483236 -0.564607 0.450455 
0.467953 -0.551877 0.431109 
0.47512 -0.511422 0.523168 
0.459412 -0.495904 0.507632 
0.502209 -0.573099 0.469684 
0.49465 -0.523562 0.53741 
0.509767 -0.622628 0.40197 
0.552497 -0.634397 0.415318 
0.533607 -0.638536 0.403837 
0.536661 -0.638951 0.394889 
0.550214 -0.635893 0.402599 
0.512522 -0.640681 0.377288 
0.516358 -0.640616 0.36994 
0.531096 -0.622081 0.426333 
0.550103 -0.618712 0.436763 
0.688096 -0.608582 0.352288 
0.671602 -0.614601 0.372294 
0.657748 -0.617421 0.387909 
0.709436 -0.587561 0.312239 
0.700853 -0.599485 0.331939 
0.686486 -0.597255 0.322936 
0.693711 -0.586151 0.30725 
0.715024 -0.600435 0.342692 
0.724959 -0.587644 0.319043 
0.712759 -0.556951 0.277918 
0.713407 -0.573061 0.29418 
0.69704 -0.573222 0.292447 
0.696449 -0.55918 0.278817 
0.729568 -0.571542 0.297771 
0.728859 -0.553347 0.278898 
0.697976 -0.524149 0.250806 
0.707483 -0.540199 0.263607 
0.691914 -0.544741 0.266652 
0.683762 -0.53098 0.255677 
0.722842 -0.534276 0.262449 
0.711978 -0.515937 0.247823 
0.668028 -0.498681 0.228835 
0.68463 -0.510145 0.239073 
0.672321 -0.518974 0.245618 
0.658086 -0.509145 0.23684 
0.696729 -0.499935 0.234416 
0.677759 -0.486836 0.222718 
0.627582 -0.485119 0.214401 
0.64875 -0.490252 0.220518 
0.641558 -0.501918 0.229709 
0.655732 -0.477204 0.213214 
0.631544 -0.47134 0.206225 
0.582794 -0.485528 0.2097 
0.605307 -0.483547 0.210765 
0.606091 -0.469544 0.20207 
0.540484 -0.499844 0.21545 
0.560913 -0.491053 0.211299 
0.566249 -0.502605 0.221805 
0.548734 -0.510142 0.225364 
0.507092 -0.52589 0.230774 
0.522328 -0.511625 0.22204 
0.533168 -0.520243 0.231014 
0.520105 -0.532473 0.238502 
0.487703 -0.559699 0.253339 
0.495425 -0.542133 0.241352 
0.510102 -0.546399 0.247572 
0.503481 -0.56146 0.257849 
0.480537 -0.536486 0.237021 
0.471713 -0.556557 0.250717 
0.485161 -0.59543 0.280659 
0.484301 -0.577931 0.266295 
0.500565 -0.577092 0.268957 
0.501314 -0.592171 0.281168 
0.467826 -0.57739 0.265521 
0.499164 -0.623111 0.314772 
0.490225 -0.610793 0.296869 
0.505691 -0.605572 0.294752 
0.51343 -0.61663 0.309422 
0.52716 -0.635791 0.354226 
0.511648 -0.631473 0.334218 
0.524268 -0.62468 0.32489 
0.537775 -0.629744 0.340182 
0.498833 -0.636986 0.345296 
0.559552 -0.634023 0.389091 
0.545179 -0.635975 0.373817 
0.553521 -0.631846 0.354321 
0.561261 -0.632012 0.36924 
0.633662 -0.490785 0.567531 
0.647221 -0.497886 0.574557 
0.636236 -0.507651 0.544472 
0.649618 -0.513593 0.553083 
0.628624 -0.47712 0.556499 
0.631462 -0.495714 0.531078 
0.547449 -0.522662 0.545541 
0.544875 -0.505796 0.568601 
0.534572 -0.516931 0.575914 
0.536969 -0.532638 0.55444 
0.639121 -0.484974 0.521841 
0.636141 -0.465445 0.548541 
0.669692 -0.517833 0.427501 
0.659939 -0.52899 0.438798 
0.678294 -0.574206 0.35043 
0.676206 -0.505316 0.415459 
0.684993 -0.562898 0.336735 
0.688057 -0.55016 0.323472 
0.691306 -0.571455 0.294358 
0.688196 -0.583886 0.30804 
0.690732 -0.558087 0.281627 
0.687455 -0.536613 0.310986 
0.683158 -0.52288 0.299625 
0.686444 -0.544414 0.270184 
0.678744 -0.531416 0.259818 
0.643328 -0.358813 0.470789 
0.635594 -0.482432 0.26473 
0.63888 -0.503965 0.23529 
0.654492 -0.510792 0.242025 
0.582381 -0.358837 0.418383 
0.57909 -0.337273 0.447864 
0.555446 -0.424002 0.338034 
0.573166 -0.419528 0.336739 
0.564461 -0.48308 0.257265 
0.538902 -0.431122 0.341395 
0.547917 -0.4902 0.260626 
0.533214 -0.49974 0.265963 
0.5365 -0.521274 0.236523 
0.551203 -0.511734 0.231186 
0.524162 -0.532826 0.243595 
0.520876 -0.511292 0.273036 
0.502413 -0.465368 0.362371 
0.511861 -0.452214 0.353804 
0.511428 -0.524446 0.281602 
0.496159 -0.479594 0.372078 
0.505174 -0.538672 0.291309 
0.493404 -0.494359 0.382571 
0.502419 -0.553437 0.301802 
0.494151 -0.50886 0.393751 
0.503142 -0.567774 0.313206 
0.507318 -0.580716 0.325649 
0.510568 -0.602011 0.296535 
0.506418 -0.589248 0.283848 
0.517912 -0.612675 0.310092 
0.514709 -0.591687 0.338786 
0.516469 -0.543738 0.429346 
0.505922 -0.534105 0.41751 
0.525071 -0.600111 0.352276 
0.529609 -0.551024 0.440368 
0.537996 -0.605983 0.36523 
0.544907 -0.555796 0.449914 
0.553072 -0.6093 0.376765 
0.555494 -0.560824 0.462428 
0.563268 -0.611767 0.392781 
0.667783 -0.506347 0.547969 
0.665268 -0.48987 0.570496 
0.683433 -0.4731 0.559818 
0.697345 -0.453941 0.546991 
0.706556 -0.433167 0.532544 
0.710618 -0.411552 0.517007 
0.709475 -0.389947 0.500977 
0.703072 -0.369198 0.485053 
0.697195 -0.473157 0.264822 
0.700481 -0.494691 0.235382 
0.680721 -0.481047 0.223196 
0.716364 -0.511358 0.249346 
0.633169 -0.309751 0.433769 
0.602786 -0.441501 0.23113 
0.606072 -0.463035 0.201689 
0.632583 -0.464906 0.206017 
0.531918 -0.332268 0.393317 
0.528627 -0.310705 0.422798 
0.504313 -0.321169 0.427738 
0.507604 -0.342732 0.398257 
0.485995 -0.356753 0.406101 
0.482704 -0.33519 0.435582 
0.464571 -0.352167 0.445976 
0.450686 -0.371499 0.458567 
0.458768 -0.553835 0.297221 
0.462054 -0.575369 0.267781 
0.466103 -0.553669 0.25236 
0.448209 -0.477545 0.49138 
0.444992 -0.45646 0.520207 
0.456295 -0.475477 0.535559 
0.472158 -0.492012 0.549704 
0.491891 -0.505484 0.562125 
0.517318 -0.531786 0.549781 
0.514803 -0.515308 0.572309 
0.643289 -0.553869 0.481286 
0.656186 -0.556633 0.49424 
0.65034 -0.600078 0.41811 
0.639237 -0.546666 0.461419 
0.554501 -0.568879 0.482355 
0.561553 -0.615089 0.419179 
0.543537 -0.575679 0.495597 
0.647287 -0.538487 0.44868 
0.667936 -0.520076 0.250317 
0.591397 -0.417924 0.337601 
0.609436 -0.419198 0.340545 
0.674673 -0.551499 0.48624 
0.719495 -0.599095 0.348542 
0.729867 -0.585927 0.323696 
0.73468 -0.569235 0.301429 
0.733946 -0.550314 0.281728 
0.72768 -0.53046 0.264581 
0.657778 -0.471014 0.213297 
0.540935 -0.391356 0.312535 
0.566977 -0.38478 0.310632 
0.51662 -0.401819 0.317475 
0.495011 -0.415841 0.325319 
0.475294 -0.532762 0.238094 
0.457025 -0.535321 0.412391 
0.450832 -0.515946 0.394589 
0.494308 -0.637166 0.351255 
0.524208 -0.576937 0.488052 
0.68143 -0.594754 0.322337 
0.679142 -0.491737 0.403344 
0.678465 -0.477699 0.391531 
0.674143 -0.463802 0.380393 
0.626579 -0.423354 0.345499 
0.567747 -0.504614 0.227825 
0.524199 -0.440663 0.346732 
0.514714 -0.54598 0.252162 
0.50846 -0.560205 0.261869 
0.505705 -0.574971 0.272362 
0.498404 -0.522294 0.405521 
0.528207 -0.620659 0.324183 
0.541053 -0.626016 0.337843 
0.556047 -0.628802 0.350102 
0.566101 -0.630335 0.367394 
0.68818 -0.414079 0.345591 
0.593771 -0.382423 0.311899 
0.449753 -0.494757 0.37799 
0.65291 -0.616921 0.395082 
0.564123 -0.631932 0.396152 
3 0 1 2 
3 0 2 3 
3 2 1 4 
3 2 4 5 
3 4 1 6 
3 4 6 7 
3 6 1 0 
3 6 0 8 
3 4 9 10 
3 4 10 5 
3 10 9 11 
3 10 11 12 
3 11 9 13 
3 11 13 14 
3 13 9 4 
3 13 4 7 
3 11 15 16 
3 11 16 12 
3 16 15 17 
3 16 17 18 
3 17 15 19 
3 17 19 20 
3 19 15 11 
3 19 11 14 
3 17 21 22 
3 17 22 18 
3 22 21 23 
3 22 23 24 
3 23 21 25 
3 23 25 26 
3 25 21 17 
3 25 17 20 
3 23 27 28 
3 23 28 24 
3 28 27 29 
3 28 29 30 
3 29 27 31 
3 29 31 32 
3 31 27 23 
3 31 23 26 
3 29 33 34 
3 29 34 30 
3 34 33 35 
3 34 35 36 
3 35 33 37 
3 35 37 38 
3 37 33 29 
3 37 29 32 
3 35 39 40 
3 35 40 36 
3 40 39 41 
3 40 41 42 
3 41 39 43 
3 41 43 44 
3 43 39 35 
3 43 35 38 
3 41 45 46 
3 41 46 42 
3 46 45 47 
3 46 47 48 
3 47 45 49 
3 47 49 50 
3 49 45 41 
3 49 41 44 
3 47 51 52 
3 47 52 48 
3 52 51 53 
3 52 53 54 
3 53 51 55 
3 53 55 56 
3 55 51 47 
3 55 47 50 
3 53 57 58 
3 53 58 54 
3 58 57 59 
3 58 59 60 
3 59 57 61 
3 59 61 62 
3 61 57 53 
3 61 53 56 
3 59 63 64 
3 59 64 60 
3 64 63 65 
3 64 65 66 
3 65 63 67 
3 65 67 68 
3 67 63 59 
3 67 59 62 
3 65 69 70 
3 65 70 66 
3 70 69 71 
3 70 71 72 
3 71 69 73 
3 71 73 74 
3 73 69 65 
3 73 65 68 
3 71 75 76 
3 71 76 72 
3 76 75 77 
3 76 77 78 
3 77 75 79 
3 77 79 80 
3 79 75 71 
3 79 71 74 
3 77 81 82 
3 77 82 78 
3 82 81 83 
3 82 83 84 
3 83 81 85 
3 83 85 86 
3 85 81 77 
3 85 77 80 
3 83 87 88 
3 83 88 84 
3 88 87 89 
3 88 89 90 
3 89 87 91 
3 89 91 92 
3 91 87 83 
3 91 83 86 
3 89 93 94 
3 89 94 90 
3 94 93 0 
3 94 0 3 
3 0 93 95 
3 0 95 8 
3 95 93 89 
3 95 89 92 
3 96 97 98 
3 96 98 99 
3 98 97 100 
3 98 100 101 
3 100 97 2 
3 100 2 5 
3 2 97 96 
3 2 96 3 
3 100 102 103 
3 100 103 101 
3 103 102 104 
3 103 104 105 
3 104 102 10 
3 104 10 12 
3 10 102 100 
3 10 100 5 
3 104 106 107 
3 104 107 105 
3 107 106 108 
3 107 108 109 
3 108 106 16 
3 108 16 18 
3 16 106 104 
3 16 104 12 
3 108 110 111 
3 108 111 109 
3 111 110 112 
3 111 112 113 
3 112 110 22 
3 112 22 24 
3 22 110 108 
3 22 108 18 
3 112 114 115 
3 112 115 113 
3 115 114 116 
3 115 116 117 
3 116 114 28 
3 116 28 30 
3 28 114 112 
3 28 112 24 
3 116 118 119 
3 116 119 117 
3 119 118 120 
3 119 120 121 
3 120 118 34 
3 120 34 36 
3 34 118 116 
3 34 116 30 
3 120 122 123 
3 120 123 121 
3 123 122 124 
3 123 124 125 
3 124 122 40 
3 124 40 42 
3 40 122 120 
3 40 120 36 
3 124 126 127 
3 124 127 125 
3 127 126 128 
3 127 128 129 
3 128 126 46 
3 128 46 48 
3 46 126 124 
3 46 124 42 
3 128 130 131 
3 128 131 129 
3 131 130 132 
3 131 132 133 
3 132 130 52 
3 132 52 54 
3 52 130 128 
3 52 128 48 
3 132 134 135 
3 132 135 133 
3 135 134 136 
3 135 136 137 
3 136 134 58 
3 136 58 60 
3 58 134 132 
3 58 132 54 
3 136 138 139 
3 136 139 137 
3 139 138 140 
3 139 140 141 
3 140 138 64 
3 140 64 66 
3 64 138 136 
3 64 136 60 
3 140 142 143 
3 140 143 141 
3 143 142 144 
3 143 144 145 
3 144 142 70 
3 144 70 72 
3 70 142 140 
3 70 140 66 
3 144 146 147 
3 144 147 145 
3 147 146 148 
3 147 148 149 
3 148 146 76 
3 148 76 78 
3 76 146 144 
3 76 144 72 
3 148 150 151 
3 148 151 149 
3 151 150 152 
3 151 152 153 
3 152 150 82 
3 152 82 84 
3 82 150 148 
3 82 148 78 
3 152 154 155 
3 152 155 153 
3 155 154 156 
3 155 156 157 
3 156 154 88 
3 156 88 90 
3 88 154 152 
3 88 152 84 
3 156 158 159 
3 156 159 157 
3 159 158 96 
3 159 96 99 
3 96 158 94 
3 96 94 3 
3 94 158 156 
3 94 156 90 
3 160 161 162 
3 160 162 163 
3 162 161 164 
3 162 164 165 
3 164 161 98 
3 164 98 101 
3 98 161 160 
3 98 160 99 
3 164 166 167 
3 164 167 165 
3 167 166 168 
3 167 168 169 
3 168 166 103 
3 168 103 105 
3 103 166 164 
3 103 164 101 
3 168 170 171 
3 168 171 169 
3 171 170 172 
3 171 172 173 
3 172 170 107 
3 172 107 109 
3 107 170 168 
3 107 168 105 
3 172 174 175 
3 172 175 173 
3 175 174 176 
3 175 176 177 
3 176 174 111 
3 176 111 113 
3 111 174 172 
3 111 172 109 
3 176 178 179 
3 176 179 177 
3 179 178 180 
3 179 180 181 
3 180 178 115 
3 180 115 117 
3 115 178 176 
3 115 176 113 
3 180 182 183 
3 180 183 181 
3 183 182 184 
3 183 184 185 
3 184 182 119 
3 184 119 121 
3 119 182 180 
3 119 180 117 
3 184 186 187 
3 184 187 185 
3 187 186 188 
3 187 188 189 
3 188 186 123 
3 188 123 125 
3 123 186 184 
3 123 184 121 
3 188 190 191 
3 188 191 189 
3 191 190 192 
3 191 192 193 
3 192 190 127 
3 192 127 129 
3 127 190 188 
3 127 188 125 
3 192 194 195 
3 192 195 193 
3 195 194 196 
3 195 196 197 
3 196 194 131 
3 196 131 133 
3 131 194 192 
3 131 192 129 
3 196 198 199 
3 196 199 197 
3 199 198 200 
3 199 200 201 
3 200 198 135 
3 200 135 137 
3 135 198 196 
3 135 196 133 
3 200 202 203 
3 200 203 201 
3 203 202 204 
3 203 204 205 
3 204 202 139 
3 204 139 141 
3 139 202 200 
3 139 200 137 
3 204 206 207 
3 204 207 205 
3 207 206 208 
3 207 208 209 
3 208 206 143 
3 208 143 145 
3 143 206 204 
3 143 204 141 
3 208 210 211 
3 208 211 209 
3 211 210 212 
3 211 212 213 
3 212 210 147 
3 212 147 149 
3 147 210 208 
3 147 208 145 
3 212 214 215 
3 212 215 213 
3 215 214 216 
3 215 216 217 
3 216 214 151 
3 216 151 153 
3 151 214 212 
3 151 212 149 
3 216 218 219 
3 216 219 217 
3 219 218 220 
3 219 220 221 
3 220 218 155 
3 220 155 157 
3 155 218 216 
3 155 216 153 
3 220 222 223 
3 220 223 221 
3 223 222 160 
3 223 160 163 
3 160 222 159 
3 160 159 99 
3 159 222 220 
3 159 220 157 
3 224 225 226 
3 224 226 227 
3 226 225 228 
3 226 228 229 
3 228 225 230 
3 228 230 231 
3 230 225 224 
3 230 224 232 
3 233 234 235 
3 233 235 236 
3 235 234 237 
3 235 237 238 
3 237 234 239 
3 237 239 240 
3 239 234 233 
3 239 233 241 
3 242 243 244 
3 242 244 245 
3 244 243 233 
3 244 233 236 
3 233 243 246 
3 233 246 241 
3 246 243 242 
3 246 242 247 
3 248 249 250 
3 248 250 251 
3 250 249 242 
3 250 242 245 
3 242 249 252 
3 242 252 247 
3 252 249 248 
3 252 248 253 
3 254 255 256 
3 254 256 253 
3 256 255 257 
3 256 257 258 
3 257 255 259 
3 257 259 260 
3 259 255 254 
3 259 254 261 
3 262 263 264 
3 262 264 265 
3 264 263 266 
3 264 266 267 
3 266 263 268 
3 266 268 261 
3 268 263 262 
3 268 262 269 
3 270 271 272 
3 270 272 273 
3 272 271 274 
3 272 274 275 
3 274 271 276 
3 274 276 277 
3 276 271 270 
3 276 270 278 
3 279 280 281 
3 279 281 282 
3 281 280 283 
3 281 283 284 
3 283 280 285 
3 283 285 286 
3 285 280 279 
3 285 279 287 
3 288 289 290 
3 288 290 291 
3 290 289 279 
3 290 279 282 
3 279 289 292 
3 279 292 287 
3 292 289 288 
3 292 288 293 
3 294 295 296 
3 294 296 297 
3 296 295 288 
3 296 288 291 
3 288 295 298 
3 288 298 293 
3 298 295 294 
3 298 294 299 
3 300 301 302 
3 300 302 303 
3 302 301 294 
3 302 294 297 
3 294 301 304 
3 294 304 299 
3 304 301 300 
3 304 300 305 
3 306 307 308 
3 306 308 309 
3 308 307 300 
3 308 300 303 
3 300 307 310 
3 300 310 305 
3 310 307 306 
3 310 306 311 
3 312 313 314 
3 312 314 315 
3 314 313 306 
3 314 306 309 
3 306 313 316 
3 306 316 311 
3 316 313 312 
3 316 312 317 
3 318 319 320 
3 318 320 321 
3 320 319 312 
3 320 312 315 
3 312 319 322 
3 312 322 317 
3 322 319 318 
3 322 318 323 
3 324 325 326 
3 324 326 327 
3 326 325 328 
3 326 328 329 
3 328 325 330 
3 328 330 331 
3 330 325 324 
3 330 324 238 
3 332 333 334 
3 332 334 335 
3 334 333 324 
3 334 324 327 
3 324 333 235 
3 324 235 238 
3 235 333 332 
3 235 332 236 
3 336 337 338 
3 336 338 339 
3 338 337 332 
3 338 332 335 
3 332 337 244 
3 332 244 236 
3 244 337 336 
3 244 336 245 
3 340 341 342 
3 340 342 343 
3 342 341 336 
3 342 336 339 
3 336 341 250 
3 336 250 245 
3 250 341 340 
3 250 340 251 
3 344 345 346 
3 344 346 347 
3 346 345 340 
3 346 340 343 
3 340 345 348 
3 340 348 251 
3 348 345 344 
3 348 344 267 
3 349 350 351 
3 349 351 352 
3 351 350 344 
3 351 344 347 
3 344 350 264 
3 344 264 267 
3 264 350 349 
3 264 349 265 
3 353 354 355 
3 353 355 356 
3 355 354 349 
3 355 349 352 
3 349 354 357 
3 349 357 265 
3 357 354 353 
3 357 353 284 
3 358 359 360 
3 358 360 361 
3 360 359 353 
3 360 353 356 
3 353 359 281 
3 353 281 284 
3 281 359 358 
3 281 358 282 
3 362 363 364 
3 362 364 365 
3 364 363 358 
3 364 358 361 
3 358 363 290 
3 358 290 282 
3 290 363 362 
3 290 362 291 
3 366 367 368 
3 366 368 369 
3 368 367 362 
3 368 362 365 
3 362 367 296 
3 362 296 291 
3 296 367 366 
3 296 366 297 
3 370 371 372 
3 370 372 373 
3 372 371 366 
3 372 366 369 
3 366 371 302 
3 366 302 297 
3 302 371 370 
3 302 370 303 
3 374 375 376 
3 374 376 377 
3 376 375 370 
3 376 370 373 
3 370 375 308 
3 370 308 303 
3 308 375 374 
3 308 374 309 
3 378 379 380 
3 378 380 381 
3 380 379 374 
3 380 374 377 
3 374 379 314 
3 374 314 309 
3 314 379 378 
3 314 378 315 
3 382 383 384 
3 382 384 385 
3 384 383 378 
3 384 378 381 
3 378 383 320 
3 378 320 315 
3 320 383 382 
3 320 382 321 
3 386 387 388 
3 386 388 389 
3 388 387 390 
3 388 390 391 
3 390 387 392 
3 390 392 393 
3 392 387 386 
3 392 386 394 
3 395 396 397 
3 395 397 394 
3 397 396 398 
3 397 398 399 
3 398 396 400 
3 398 400 401 
3 400 396 395 
3 400 395 402 
3 403 404 400 
3 403 400 402 
3 400 404 405 
3 400 405 401 
3 405 404 406 
3 405 406 407 
3 406 404 403 
3 406 403 408 
3 409 410 406 
3 409 406 408 
3 406 410 411 
3 406 411 407 
3 411 410 412 
3 411 412 413 
3 412 410 409 
3 412 409 414 
3 415 416 417 
3 415 417 413 
3 417 416 346 
3 417 346 343 
3 346 416 418 
3 346 418 347 
3 418 416 415 
3 418 415 419 
3 420 421 422 
3 420 422 423 
3 422 421 424 
3 422 424 419 
3 424 421 425 
3 424 425 426 
3 425 421 420 
3 425 420 427 
3 428 429 430 
3 428 430 426 
3 430 429 355 
3 430 355 352 
3 355 429 431 
3 355 431 356 
3 431 429 428 
3 431 428 432 
3 433 434 435 
3 433 435 436 
3 435 434 437 
3 435 437 438 
3 437 434 439 
3 437 439 440 
3 439 434 433 
3 439 433 441 
3 442 443 444 
3 442 444 445 
3 444 443 433 
3 444 433 436 
3 433 443 446 
3 433 446 441 
3 446 443 442 
3 446 442 447 
3 448 449 450 
3 448 450 447 
3 450 449 451 
3 450 451 452 
3 451 449 453 
3 451 453 454 
3 453 449 448 
3 453 448 455 
3 456 457 458 
3 456 458 454 
3 458 457 372 
3 458 372 369 
3 372 457 459 
3 372 459 373 
3 459 457 456 
3 459 456 460 
3 461 462 463 
3 461 463 464 
3 463 462 465 
3 463 465 466 
3 465 462 467 
3 465 467 468 
3 467 462 461 
3 467 461 469 
3 470 471 472 
3 470 472 469 
3 472 471 473 
3 472 473 474 
3 473 471 475 
3 473 475 476 
3 475 471 470 
3 475 470 477 
3 478 479 480 
3 478 480 481 
3 480 479 482 
3 480 482 483 
3 482 479 484 
3 482 484 477 
3 484 479 478 
3 484 478 485 
3 486 487 228 
3 486 228 231 
3 228 487 488 
3 228 488 229 
3 488 487 388 
3 488 388 391 
3 388 487 486 
3 388 486 389 
3 489 490 491 
3 489 491 492 
3 491 490 486 
3 491 486 231 
3 486 490 493 
3 486 493 389 
3 493 490 489 
3 493 489 494 
3 495 496 497 
3 495 497 498 
3 497 496 489 
3 497 489 492 
3 489 496 499 
3 489 499 494 
3 499 496 495 
3 499 495 500 
3 501 502 503 
3 501 503 504 
3 503 502 495 
3 503 495 498 
3 495 502 505 
3 495 505 500 
3 505 502 501 
3 505 501 506 
3 507 508 509 
3 507 509 510 
3 509 508 501 
3 509 501 504 
3 501 508 511 
3 501 511 506 
3 511 508 507 
3 511 507 512 
3 513 514 515 
3 513 515 275 
3 515 514 507 
3 515 507 510 
3 507 514 516 
3 507 516 512 
3 516 514 513 
3 516 513 517 
3 518 519 274 
3 518 274 277 
3 274 519 513 
3 274 513 275 
3 513 519 520 
3 513 520 517 
3 520 519 518 
3 520 518 438 
3 521 522 523 
3 521 523 524 
3 523 522 518 
3 523 518 277 
3 518 522 435 
3 518 435 438 
3 435 522 521 
3 435 521 436 
3 525 526 527 
3 525 527 528 
3 527 526 521 
3 527 521 524 
3 521 526 444 
3 521 444 436 
3 444 526 525 
3 444 525 445 
3 529 530 531 
3 529 531 532 
3 531 530 525 
3 531 525 528 
3 525 530 533 
3 525 533 445 
3 533 530 529 
3 533 529 534 
3 535 536 537 
3 535 537 538 
3 537 536 529 
3 537 529 532 
3 529 536 539 
3 529 539 534 
3 539 536 535 
3 539 535 466 
3 540 541 542 
3 540 542 543 
3 542 541 535 
3 542 535 538 
3 535 541 463 
3 535 463 466 
3 463 541 540 
3 463 540 464 
3 544 545 546 
3 544 546 547 
3 546 545 540 
3 546 540 543 
3 540 545 548 
3 540 548 464 
3 548 545 544 
3 548 544 483 
3 549 550 551 
3 549 551 552 
3 551 550 544 
3 551 544 547 
3 544 550 480 
3 544 480 483 
3 480 550 549 
3 480 549 481 
3 328 553 554 
3 328 554 329 
3 554 553 555 
3 554 555 556 
3 555 553 557 
3 555 557 558 
3 557 553 328 
3 557 328 331 
3 559 560 561 
3 559 561 562 
3 561 560 382 
3 561 382 385 
3 382 560 318 
3 382 318 321 
3 318 560 559 
3 318 559 323 
3 563 564 237 
3 563 237 240 
3 237 564 330 
3 237 330 238 
3 330 564 557 
3 330 557 331 
3 557 564 563 
3 557 563 558 
3 239 565 566 
3 239 566 240 
3 566 565 567 
3 566 567 232 
3 567 565 568 
3 567 568 569 
3 568 565 239 
3 568 239 241 
3 570 571 572 
3 570 572 569 
3 572 571 497 
3 572 497 492 
3 497 571 573 
3 497 573 498 
3 573 571 570 
3 573 570 574 
3 575 576 573 
3 575 573 574 
3 573 576 503 
3 573 503 498 
3 503 576 577 
3 503 577 504 
3 577 576 575 
3 577 575 258 
3 254 578 266 
3 254 266 261 
3 266 578 348 
3 266 348 267 
3 348 578 248 
3 348 248 251 
3 248 578 254 
3 248 254 253 
3 579 580 581 
3 579 581 260 
3 581 580 515 
3 581 515 510 
3 515 580 272 
3 515 272 275 
3 272 580 579 
3 272 579 273 
3 582 583 283 
3 582 283 286 
3 283 583 357 
3 283 357 284 
3 357 583 262 
3 357 262 265 
3 262 583 582 
3 262 582 269 
3 285 584 585 
3 285 585 286 
3 585 584 586 
3 585 586 278 
3 586 584 587 
3 586 587 588 
3 587 584 285 
3 587 285 287 
3 589 590 591 
3 589 591 588 
3 591 590 527 
3 591 527 524 
3 527 590 592 
3 527 592 528 
3 592 590 589 
3 592 589 593 
3 298 594 595 
3 298 595 293 
3 595 594 596 
3 595 596 593 
3 596 594 597 
3 596 597 598 
3 597 594 298 
3 597 298 299 
3 304 599 597 
3 304 597 299 
3 597 599 600 
3 597 600 598 
3 600 599 601 
3 600 601 602 
3 601 599 304 
3 601 304 305 
3 603 604 605 
3 603 605 602 
3 605 604 542 
3 605 542 538 
3 542 604 606 
3 542 606 543 
3 606 604 603 
3 606 603 607 
3 316 608 609 
3 316 609 311 
3 609 608 610 
3 609 610 607 
3 610 608 611 
3 610 611 612 
3 611 608 316 
3 611 316 317 
3 322 613 611 
3 322 611 317 
3 611 613 614 
3 611 614 612 
3 614 613 615 
3 614 615 616 
3 615 613 322 
3 615 322 323 
3 617 618 554 
3 617 554 556 
3 554 618 326 
3 554 326 329 
3 326 618 619 
3 326 619 327 
3 619 618 617 
3 619 617 399 
3 398 620 619 
3 398 619 399 
3 619 620 334 
3 619 334 327 
3 334 620 621 
3 334 621 335 
3 621 620 398 
3 621 398 401 
3 405 622 621 
3 405 621 401 
3 621 622 338 
3 621 338 335 
3 338 622 623 
3 338 623 339 
3 623 622 405 
3 623 405 407 
3 411 624 623 
3 411 623 407 
3 623 624 342 
3 623 342 339 
3 342 624 417 
3 342 417 343 
3 417 624 411 
3 417 411 413 
3 625 626 627 
3 625 627 423 
3 627 626 511 
3 627 511 512 
3 511 626 628 
3 511 628 506 
3 628 626 625 
3 628 625 414 
3 424 629 418 
3 424 418 419 
3 418 629 351 
3 418 351 347 
3 351 629 430 
3 351 430 352 
3 430 629 424 
3 430 424 426 
3 630 631 437 
3 630 437 440 
3 437 631 520 
3 437 520 438 
3 520 631 632 
3 520 632 517 
3 632 631 630 
3 632 630 427 
3 633 634 431 
3 633 431 432 
3 431 634 360 
3 431 360 356 
3 360 634 635 
3 360 635 361 
3 635 634 633 
3 635 633 636 
3 637 638 635 
3 637 635 636 
3 635 638 364 
3 635 364 361 
3 364 638 639 
3 364 639 365 
3 639 638 637 
3 639 637 452 
3 451 640 639 
3 451 639 452 
3 639 640 368 
3 639 368 365 
3 368 640 458 
3 368 458 369 
3 458 640 451 
3 458 451 454 
3 641 642 465 
3 641 465 468 
3 465 642 539 
3 465 539 466 
3 539 642 643 
3 539 643 534 
3 643 642 641 
3 643 641 455 
3 644 645 459 
3 644 459 460 
3 459 645 376 
3 459 376 373 
3 376 645 646 
3 376 646 377 
3 646 645 644 
3 646 644 474 
3 473 647 646 
3 473 646 474 
3 646 647 380 
3 646 380 377 
3 380 647 648 
3 380 648 381 
3 648 647 473 
3 648 473 476 
3 649 650 648 
3 649 648 476 
3 648 650 384 
3 648 384 381 
3 384 650 561 
3 384 561 385 
3 561 650 649 
3 561 649 562 
3 555 651 652 
3 555 652 556 
3 652 651 653 
3 652 653 393 
3 653 651 654 
3 653 654 227 
3 654 651 555 
3 654 555 558 
3 559 655 615 
3 559 615 323 
3 615 655 656 
3 615 656 616 
3 656 655 657 
3 656 657 485 
3 657 655 559 
3 657 559 562 
3 224 658 566 
3 224 566 232 
3 566 658 563 
3 566 563 240 
3 563 658 654 
3 563 654 558 
3 654 658 224 
3 654 224 227 
3 257 659 577 
3 257 577 258 
3 577 659 509 
3 577 509 504 
3 509 659 581 
3 509 581 510 
3 581 659 257 
3 581 257 260 
3 270 660 585 
3 270 585 278 
3 585 660 582 
3 585 582 286 
3 582 660 661 
3 582 661 269 
3 661 660 270 
3 661 270 273 
3 392 662 652 
3 392 652 393 
3 652 662 617 
3 652 617 556 
3 617 662 397 
3 617 397 399 
3 397 662 392 
3 397 392 394 
3 395 663 664 
3 395 664 402 
3 664 663 493 
3 664 493 494 
3 493 663 386 
3 493 386 389 
3 386 663 395 
3 386 395 394 
3 403 665 666 
3 403 666 408 
3 666 665 499 
3 666 499 500 
3 499 665 664 
3 499 664 494 
3 664 665 403 
3 664 403 402 
3 409 667 628 
3 409 628 414 
3 628 667 505 
3 628 505 506 
3 505 667 666 
3 505 666 500 
3 666 667 409 
3 666 409 408 
3 420 668 632 
3 420 632 427 
3 632 668 516 
3 632 516 517 
3 516 668 627 
3 516 627 512 
3 627 668 420 
3 627 420 423 
3 439 669 670 
3 439 670 440 
3 670 669 633 
3 670 633 432 
3 633 669 671 
3 633 671 636 
3 671 669 439 
3 671 439 441 
3 446 672 671 
3 446 671 441 
3 671 672 637 
3 671 637 636 
3 637 672 450 
3 637 450 452 
3 450 672 446 
3 450 446 447 
3 448 673 643 
3 448 643 455 
3 643 673 533 
3 643 533 534 
3 533 673 442 
3 533 442 445 
3 442 673 448 
3 442 448 447 
3 467 674 675 
3 467 675 468 
3 675 674 644 
3 675 644 460 
3 644 674 472 
3 644 472 474 
3 472 674 467 
3 472 467 469 
3 470 676 482 
3 470 482 477 
3 482 676 548 
3 482 548 483 
3 548 676 461 
3 548 461 464 
3 461 676 470 
3 461 470 469 
3 484 677 475 
3 484 475 477 
3 475 677 649 
3 475 649 476 
3 649 677 657 
3 649 657 562 
3 657 677 484 
3 657 484 485 
3 567 678 230 
3 567 230 232 
3 230 678 491 
3 230 491 231 
3 491 678 572 
3 491 572 492 
3 572 678 567 
3 572 567 569 
3 570 679 680 
3 570 680 574 
3 680 679 246 
3 680 246 247 
3 246 679 568 
3 246 568 241 
3 568 679 570 
3 568 570 569 
3 575 681 256 
3 575 256 258 
3 256 681 252 
3 256 252 253 
3 252 681 680 
3 252 680 247 
3 680 681 575 
3 680 575 574 
3 579 682 661 
3 579 661 273 
3 661 682 268 
3 661 268 269 
3 268 682 259 
3 268 259 261 
3 259 682 579 
3 259 579 260 
3 586 683 276 
3 586 276 278 
3 276 683 523 
3 276 523 277 
3 523 683 591 
3 523 591 524 
3 591 683 586 
3 591 586 588 
3 589 684 595 
3 589 595 593 
3 595 684 292 
3 595 292 293 
3 292 684 587 
3 292 587 287 
3 587 684 589 
3 587 589 588 
3 596 685 592 
3 596 592 593 
3 592 685 531 
3 592 531 528 
3 531 685 686 
3 531 686 532 
3 686 685 596 
3 686 596 598 
3 600 687 686 
3 600 686 598 
3 686 687 537 
3 686 537 532 
3 537 687 605 
3 537 605 538 
3 605 687 600 
3 605 600 602 
3 603 688 609 
3 603 609 607 
3 609 688 310 
3 609 310 311 
3 310 688 601 
3 310 601 305 
3 601 688 603 
3 601 603 602 
3 610 689 606 
3 610 606 607 
3 606 689 546 
3 606 546 543 
3 546 689 690 
3 546 690 547 
3 690 689 610 
3 690 610 612 
3 614 691 690 
3 614 690 612 
3 690 691 551 
3 690 551 547 
3 551 691 692 
3 551 692 552 
3 692 691 614 
3 692 614 616 
3 625 693 412 
3 625 412 414 
3 412 693 415 
3 412 415 413 
3 415 693 422 
3 415 422 419 
3 422 693 625 
3 422 625 423 
3 630 694 425 
3 630 425 427 
3 425 694 428 
3 425 428 426 
3 428 694 670 
3 428 670 432 
3 670 694 630 
3 670 630 440 
3 641 695 453 
3 641 453 455 
3 453 695 456 
3 453 456 454 
3 456 695 675 
3 456 675 460 
3 675 695 641 
3 675 641 468 
3 653 696 390 
3 653 390 393 
3 390 696 488 
3 390 488 391 
3 488 696 226 
3 488 226 229 
3 226 696 653 
3 226 653 227 
3 656 697 692 
3 656 692 616 
3 692 697 549 
3 692 549 552 
3 549 697 478 
3 549 478 481 
3 478 697 656 
3 478 656 485 
